<svg width="225" height="256" viewBox="0 0 225 256" fill="none" xmlns="http://www.w3.org/2000/svg">
<g opacity="0.34" clip-path="url(#clip0_597_3152)">
<path d="M-137.989 183.223C-137.989 178.173 -138.023 174.766 -137.983 171.354C-137.938 167.403 -137.433 163.509 -136.678 159.626C-136.281 157.585 -136.219 155.482 -135.878 153.425C-135.198 149.326 -134.585 145.211 -133.672 141.164C-131.896 133.291 -129.605 125.553 -126.717 118.009C-125.316 114.336 -123.977 110.623 -122.31 107.069C-117.323 96.4466 -111.861 86.0792 -104.866 76.6074C-101.826 72.4979 -98.6777 68.4677 -95.4386 64.5056C-92.6364 61.0762 -89.8228 57.6185 -86.6915 54.5066C-82.993 50.8392 -78.8463 47.6309 -75.0797 44.0202C-71.6081 40.6986 -67.7394 37.9097 -63.8877 35.0926C-58.3569 31.0511 -52.7411 27.1229 -46.6204 23.977C-42.173 21.6926 -37.8505 19.1532 -33.3295 17.0333C-23.0564 12.2209 -12.4657 8.24736 -1.37015 5.70227C3.45723 4.59695 8.25055 3.33291 13.0949 2.32395C15.4717 1.8308 17.9337 1.78546 20.3559 1.47937C23.5665 1.07125 26.7602 0.595108 29.9709 0.186988C30.7821 0.0849576 31.6159 0.113299 32.4384 0.113299C39.8468 0.113299 47.2836 -0.238137 54.6637 0.226666C60.1207 0.572434 65.6231 0.901197 71.0517 2.05187C74.7616 2.83977 78.5169 3.52564 82.2551 4.20583C88.7502 5.39052 95.0298 7.31775 101.281 9.31867C109.761 12.0338 117.981 15.4858 125.9 19.5103C134.494 23.8749 142.742 28.8858 150.496 34.6618C156.016 38.7713 161.586 42.7902 166.431 47.7273C168.535 49.8699 170.963 51.6951 173.079 53.8321C175.626 56.4055 178.099 59.0696 180.408 61.8584C183.369 65.4352 186.131 69.1876 188.996 72.8493C193.154 78.1662 196.943 83.7552 200.171 89.6559C203.79 96.2652 206.916 103.141 210.342 109.858C213.57 116.178 215.572 122.963 217.694 129.669C219.639 135.807 221.069 142.116 222.203 148.488C223.134 153.736 223.69 159.014 224.365 164.291C225.459 172.833 224.773 181.375 224.955 189.912C225.051 194.446 224.177 198.907 223.707 203.402C223.219 208.022 222.345 212.534 221.511 217.086C220.099 224.817 217.977 232.351 215.527 239.799C212.861 247.933 209.599 255.846 205.73 263.453C200.727 273.293 194.896 282.657 188.071 291.392C184.044 296.55 179.92 301.595 175.314 306.26C171.627 309.995 167.9 313.697 164.088 317.29C161.382 319.841 158.483 322.222 155.477 324.416C150.224 328.242 144.96 332.073 139.457 335.52C132.094 340.14 124.385 344.147 116.364 347.582C110.402 350.133 104.395 352.53 98.2007 354.435C90.815 356.708 83.3669 358.675 75.743 360.013C70.3767 360.954 64.9821 361.538 59.5818 362.178C49.8533 363.334 40.1078 363.028 30.4247 362.563C22.9823 362.206 15.5455 360.863 8.14845 359.44C-1.76155 357.536 -11.3539 354.679 -20.8044 351.34C-28.2412 348.71 -35.3036 345.099 -42.3205 341.466C-50.801 337.079 -58.72 331.83 -66.3553 326.105C-72.4306 321.547 -78.1089 316.537 -83.5489 311.276C-90.373 304.673 -96.6128 297.548 -102.2 289.81C-106.494 283.87 -110.641 277.828 -114.306 271.524C-118.259 264.728 -121.776 257.648 -124.573 250.257C-126.49 245.184 -128.549 240.144 -130.132 234.969C-132.288 227.918 -134.148 220.793 -135.277 213.469C-136.054 208.442 -136.729 203.408 -137.444 198.38C-138.25 192.752 -137.631 187.163 -137.989 183.212V183.223ZM148.67 327.476C148.908 327.244 149.141 327.006 149.379 326.774C149.611 326.536 149.85 326.303 150.082 326.065C150.553 325.833 151.024 325.6 151.495 325.362C151.608 325.192 151.722 325.016 151.829 324.846C151.722 325.022 151.614 325.203 151.506 325.379C151.035 325.617 150.564 325.85 150.099 326.088C149.861 326.32 149.628 326.558 149.39 326.791C149.158 327.029 148.919 327.261 148.687 327.499C148.568 327.664 148.454 327.828 148.335 327.992C148.443 327.822 148.556 327.647 148.664 327.476H148.67ZM71.029 55.884C70.7908 56.1164 70.5582 56.3545 70.32 56.5869C66.1903 57.6129 63.2973 60.6964 59.3605 62.9241C60.461 63.5589 61.2041 63.9841 62.1741 64.5396C64.9197 61.8414 67.6085 59.2057 70.2973 56.5642C70.5299 56.3261 70.7681 56.0938 71.0007 55.8557C71.1198 55.6856 71.2333 55.5156 71.3524 55.3399C71.2446 55.5212 71.1312 55.697 71.0234 55.8784L71.029 55.884ZM90.0776 57.2954C89.9017 57.1821 89.7259 57.0687 89.5557 56.9553C89.7372 57.063 89.9187 57.1707 90.0946 57.2784C90.3329 57.5108 90.5654 57.7489 90.8037 57.9813C94.02 61.456 97.2421 64.925 100.691 68.6491C101.264 68.3714 101.984 68.0256 103.096 67.4928C99.9025 64.8343 97.1343 62.3799 94.1959 60.1579C93.1464 59.3644 92.4601 57.8453 90.781 58.0096C90.5484 57.7716 90.3102 57.5392 90.0776 57.3011V57.2954ZM85.1311 44.5757C85.029 44.7457 84.9212 44.9101 84.8191 45.0802C84.9325 44.9215 85.0403 44.7628 85.1538 44.5984C85.3807 44.3546 85.6133 44.1166 85.8402 43.8728C89.1303 41.4468 92.4147 39.0207 95.9884 36.3906C94.7518 35.7218 93.9009 35.2626 92.9706 34.7581C90.5881 37.5073 88.3815 40.0297 86.2259 42.5918C85.965 42.9035 85.9706 43.4477 85.8572 43.8842C85.6133 44.1109 85.375 44.3433 85.1311 44.57V44.5757ZM181.151 65.7639C180.918 65.5258 180.68 65.2934 180.447 65.0554C180.396 64.7096 180.476 64.2448 180.277 64.0464C178.479 62.2382 176.641 60.4754 174.809 58.6955C174.809 57.2274 173.72 56.5756 172.693 55.8727C172.523 55.7763 172.347 55.6743 172.177 55.5779C172.347 55.68 172.517 55.782 172.687 55.884C172.755 57.3011 173.657 58.1003 174.809 58.7068C175.337 60.9232 176.766 62.5443 178.411 63.9727C178.978 64.4659 179.772 64.6926 180.464 65.044C180.703 65.2764 180.941 65.5145 181.174 65.7469L181.701 66.0643C181.52 65.968 181.332 65.866 181.151 65.7696V65.7639ZM-94.8827 296.431C-94.6444 296.669 -94.4119 296.902 -94.1736 297.14C-94.3495 298.251 -93.4986 298.795 -92.8803 299.458C-91.6947 300.733 -90.5035 301.997 -89.3009 303.256C-87.6388 304.985 -85.9654 306.708 -84.292 308.431C-84.1218 308.539 -83.9516 308.646 -83.7758 308.76C-83.9573 308.658 -84.1332 308.556 -84.3147 308.459C-84.2012 306.577 -85.0351 305.115 -86.3908 303.925C-88.9775 301.657 -91.5926 299.418 -94.1963 297.168C-94.4346 296.93 -94.6671 296.697 -94.9054 296.459C-95.138 296.221 -95.3762 295.989 -95.6088 295.751C-95.8414 295.513 -96.0683 295.269 -96.3008 295.031C-96.5334 294.793 -96.766 294.555 -96.9986 294.317L-97.5148 294.005C-97.3503 294.118 -97.1858 294.226 -97.0213 294.339C-96.783 294.572 -96.5448 294.804 -96.3065 295.037C-96.0683 295.269 -95.83 295.496 -95.5861 295.728C-95.3479 295.961 -95.1153 296.199 -94.877 296.431H-94.8827ZM67.5007 40.3415C67.7389 40.5795 67.9715 40.8119 68.2098 41.05C68.6749 41.2881 69.1401 41.5261 69.6109 41.7699C69.7924 41.8719 69.9683 41.9796 70.1498 42.0816C69.9683 41.9739 69.7924 41.8719 69.6109 41.7642C69.1344 41.5318 68.6636 41.3051 68.1871 41.0727C67.9488 40.8346 67.7163 40.6022 67.478 40.3641C67.0072 40.1261 66.542 39.888 66.0712 39.6556C65.7252 39.2135 65.4642 38.6353 65.0218 38.3462C62.4408 36.6684 59.82 35.0586 57.239 33.4431C56.581 33.8796 56.0478 34.231 55.2309 34.7695C58.5323 36.3396 61.4934 37.7567 64.4659 39.1454C64.9707 39.3835 65.5437 39.4855 66.0826 39.6442C66.5534 39.8767 67.0299 40.1091 67.5007 40.3415ZM75.9755 41.0443C76.1457 41.1577 76.3159 41.2711 76.4861 41.3844C76.3102 41.2767 76.1344 41.1747 75.9529 41.067C75.7203 40.5965 75.4877 40.1204 75.2551 39.6499C73.7519 36.3453 72.243 33.0406 70.8192 29.9117C69.3727 29.821 68.2835 29.617 67.6936 30.7676C68.3856 31.7086 69.0039 32.6892 69.7527 33.5451C71.5566 35.6027 73.4229 37.6093 75.2665 39.6386C75.5047 40.1091 75.7373 40.5739 75.9755 41.0443ZM67.5007 42.4557C67.6822 42.5691 67.8638 42.6768 68.0453 42.7902C67.8581 42.6881 67.6652 42.5804 67.478 42.4784C67.0072 42.246 66.5363 42.0079 66.0655 41.7755C62.3443 39.2701 58.3168 37.4279 54.0226 35.9712C53.5461 36.419 53.1547 36.7817 52.4513 37.4393C55.333 38.4596 57.88 39.4289 60.4667 40.2621C62.3103 40.8516 64.2163 41.2597 66.0939 41.7529C66.5647 41.9909 67.0355 42.2233 67.5064 42.4614L67.5007 42.4557ZM-75.8342 46.6957C-75.3633 46.4576 -74.8982 46.2195 -74.4274 45.9871C-74.1891 45.7547 -73.9509 45.5223 -73.7126 45.2899C-73.2645 45.1822 -72.7766 45.1595 -72.3852 44.9498C-68.6981 42.9999 -65.0222 41.0273 -61.3521 39.0434C-60.7508 38.7146 -60.0474 38.4142 -59.6446 37.9041C-57.6989 35.4667 -55.844 32.9556 -53.955 30.4729C-53.8416 30.2915 -53.7281 30.1101 -53.6147 29.9287C-53.7224 30.1158 -53.8302 30.2972 -53.9437 30.4842C-54.3861 30.5919 -54.908 30.5806 -55.254 30.8243C-59.3156 33.6698 -63.4339 36.4473 -67.365 39.4629C-69.634 41.203 -71.6081 43.3343 -73.7126 45.2899C-73.9452 45.528 -74.1778 45.766 -74.4103 46.0041C-74.8812 46.2365 -75.3577 46.4689 -75.8285 46.7013C-75.9419 46.8714 -76.0497 47.0471 -76.1632 47.2171C-76.0554 47.0414 -75.9476 46.8657 -75.8398 46.6957H-75.8342ZM90.0833 55.1698C89.9074 55.0621 89.7259 54.9487 89.55 54.841C89.7259 54.9487 89.9074 55.0564 90.0833 55.1698C90.5597 55.4022 91.0306 55.6289 91.5071 55.8613C92.7834 57.012 94.0144 58.208 95.3361 59.302C98.2688 61.7394 101.241 64.1258 104.276 66.5972C105.014 65.9113 105.603 65.3671 106.568 64.4659C106.063 64.1768 105.66 63.9501 105.257 63.7063C102.098 61.8131 98.9608 59.8859 95.7728 58.038C94.3887 57.2388 92.9195 56.5926 91.4844 55.8784C91.0192 55.6403 90.5484 55.4022 90.0833 55.1585V55.1698ZM-105.485 81.2725C-105.252 80.802 -105.014 80.3315 -104.781 79.8611C-104.486 79.691 -104.135 79.5833 -103.908 79.3452C-99.8802 75.1507 -95.5521 71.2906 -90.9629 67.7195C-90.1461 67.0846 -89.2215 66.3478 -88.8244 65.4465C-87.4403 62.3062 -86.2717 59.0696 -85.0181 55.867C-84.9103 55.6856 -84.8025 55.4986 -84.7004 55.3172C-84.8025 55.5042 -84.9046 55.6913 -85.0067 55.8784C-85.3868 56.1334 -85.8122 56.3375 -86.1356 56.6436C-91.6663 61.8358 -96.3746 67.7592 -100.924 73.7846C-102.348 75.6665 -104.356 77.299 -104.776 79.8611C-105.008 80.3315 -105.247 80.802 -105.479 81.2725H-105.485ZM86.5436 58.7068C86.3734 58.5878 86.2089 58.4688 86.0387 58.3497C86.2146 58.4631 86.3904 58.5765 86.5606 58.6842C86.5776 59.6875 86.9236 60.4754 87.956 60.8098C87.4285 62.55 89.0395 63.5306 89.5103 64.925C90.2704 67.181 91.5525 69.2613 92.704 71.6023C93.6059 71.1488 94.2639 70.8144 94.8993 70.497C94.2242 69.42 93.6683 68.5414 93.1181 67.6571C91.5978 65.2198 90.1286 62.754 87.9617 60.8041C87.9957 59.7555 87.5476 59.0413 86.5379 58.7012L86.5436 58.7068ZM71.7325 41.0557C71.9026 41.169 72.0671 41.2824 72.2373 41.3958C72.0671 41.2824 71.8969 41.1747 71.7211 41.0613C71.0347 40.0184 70.371 38.9414 68.9018 38.9414C66.4229 36.521 63.944 34.1006 61.3913 31.6122C60.4497 32.094 59.7803 32.4341 59.0485 32.8082C60.4894 33.7775 61.675 34.7411 63.008 35.427C65.0501 36.4813 66.6101 38.3349 68.9075 38.9414C69.5145 40.092 70.3029 40.999 71.7381 41.0557H71.7325ZM-8.75018 9.32434C-10.8263 9.84583 -12.8968 10.373 -15.5516 11.0418C-12.4601 11.8751 -10.5541 10.7924 -8.77287 9.296C-8.3531 9.23365 -7.939 9.16562 -7.51923 9.10327C-7.57596 8.96723 -7.63835 8.83119 -7.69507 8.69515C-8.04677 8.90488 -8.39848 9.11461 -8.75018 9.32434ZM178.326 300.671C180.538 299.163 181.644 296.788 183.091 294.685C181.088 296.357 178.7 297.735 178.343 300.688C178.235 300.864 178.122 301.034 178.014 301.209C178.116 301.028 178.224 300.852 178.326 300.671ZM206.587 257.654C203.875 259.825 202.559 262.693 202.355 266.117C202.139 266.463 201.924 266.803 201.714 267.148C201.856 267.211 201.992 267.273 202.134 267.335C202.202 266.922 202.264 266.508 202.332 266.1C203.745 263.277 205.157 260.46 206.57 257.637C206.678 257.456 206.785 257.274 206.893 257.098C206.791 257.286 206.695 257.473 206.592 257.66L206.587 257.654ZM99.9592 55.884C99.6019 55.6743 99.2445 55.4646 98.8871 55.2492C98.8304 55.3909 98.768 55.5326 98.7113 55.6743C99.1367 55.7366 99.5565 55.799 99.9819 55.8613C102.631 57.9019 105.7 59.0243 108.769 60.0899C109.126 59.6931 109.359 59.4324 109.654 59.1036C107.816 58.3894 106.069 57.6355 104.27 57.0234C102.864 56.5472 101.4 56.2525 99.9592 55.8784V55.884ZM95.0127 55.884C94.8312 55.7707 94.644 55.663 94.4625 55.5496C94.6553 55.6516 94.8425 55.7537 95.0354 55.8613C99.1594 58.4178 103.198 61.1216 107.481 63.4116C107.827 62.6804 108.026 62.2609 108.275 61.7337C104.855 60.0446 101.451 58.3157 97.9965 56.6889C97.0775 56.2581 96.0111 56.1448 95.0127 55.884ZM78.0857 58.7012C76.1911 62.0682 75.0452 65.7299 73.6611 69.4767C74.6141 69.9301 75.4026 70.2986 76.418 70.7804C76.9966 66.5858 78.1538 62.7314 78.0687 58.6898C78.2843 58.3327 78.4942 57.9756 78.7097 57.6185C78.5679 57.5562 78.4261 57.4995 78.2843 57.4371C78.2162 57.8566 78.1538 58.2817 78.0857 58.7012ZM83.7356 43.8842C86.2656 40.6759 88.7899 37.4676 91.5184 34.0043C90.2024 33.5508 89.0962 33.1653 88.0184 32.7912C87.0995 34.8035 86.2032 36.538 85.5055 38.3462C84.8078 40.1487 84.3086 42.0249 83.7243 43.8728C83.6222 44.0485 83.5144 44.2186 83.4123 44.3943C83.5201 44.2243 83.6279 44.0542 83.7356 43.8842ZM84.422 58.7068C84.3653 58.2874 84.3029 57.8679 84.2462 57.4485C84.11 57.5052 83.9682 57.5562 83.8321 57.6129C84.0363 57.97 84.2405 58.3271 84.4447 58.6842C85.1538 63.2075 86.7875 67.4701 87.8483 71.9594C89.0225 71.5966 89.862 71.3416 90.8774 71.0241C89.7429 68.6945 88.7275 66.4951 87.61 64.3468C86.6116 62.4366 85.4885 60.5831 84.422 58.7068ZM67.5007 44.5757C67.8581 44.7911 68.2154 45.0065 68.5728 45.2162C68.6352 45.0745 68.6919 44.9271 68.7543 44.7854C68.3289 44.7231 67.9091 44.6551 67.4837 44.5927C67.0412 44.2753 66.6441 43.8388 66.1506 43.6574C61.8338 42.0816 57.5056 40.5342 53.1604 39.0321C52.6555 38.8563 52.0316 39.0094 51.175 39.0094C50.9594 39.8596 50.7609 40.6362 50.6021 41.2711C53.6369 41.9286 56.32 42.5521 59.0202 43.0736C61.8395 43.6234 64.6758 44.0769 67.5064 44.57L67.5007 44.5757ZM73.1506 50.9469C72.2373 51.0546 71.2957 51.0716 70.4107 51.287C68.0793 51.8538 65.7479 52.4433 63.4505 53.1349C60.0923 54.1438 56.7625 55.2435 53.064 56.4168C53.8808 57.3068 54.4764 57.953 54.9359 58.4518C58.9578 56.8136 62.7868 55.2605 66.6101 53.6847C68.7941 52.7834 70.9553 51.8425 73.1279 50.9186C73.5477 50.8505 73.9731 50.7882 74.3929 50.7202C74.3362 50.5841 74.2794 50.4538 74.2227 50.3177C73.8653 50.5274 73.508 50.7315 73.1449 50.9412L73.1506 50.9469ZM86.5436 45.2786C87.4228 45.0575 88.3361 44.9271 89.1643 44.587C91.2915 43.7198 93.3223 42.5578 95.5006 41.8889C97.3215 41.3277 98.8984 40.3981 101.003 39.7009C99.5508 38.7487 98.5241 38.0741 97.4633 37.3769C93.3336 39.4969 89.9528 42.4047 86.5606 45.3069C86.4528 45.4826 86.3394 45.6527 86.2316 45.8284C86.3337 45.647 86.4358 45.4656 86.5379 45.2842L86.5436 45.2786ZM146.577 33.9929C146.752 34.1006 146.934 34.2083 147.11 34.3103C146.923 34.214 146.741 34.112 146.554 34.0156C142.85 30.4956 138.368 28.1092 133.949 25.6945C132.605 24.9633 130.716 25.2353 129.071 25.0483C129.014 25.207 128.952 25.3714 128.895 25.5301C132.378 28.0922 135.867 30.6543 139.27 33.1597C141.766 33.4431 144.171 33.7208 146.577 33.9929ZM59.0088 360.636C64.2843 361.044 69.401 359.707 74.5687 359.055C77.6319 358.669 80.7235 357.802 83.764 355.807C82.3061 355.807 81.1432 355.506 80.247 355.869C78.4147 356.606 76.5655 356.379 74.7162 356.43C72.3678 356.498 70.0193 356.527 67.6709 356.464C64.0461 356.374 61.1814 357.762 59.0202 360.648C58.9067 360.818 58.7933 360.982 58.6741 361.152C58.7819 360.976 58.8954 360.806 59.0032 360.631L59.0088 360.636ZM-41.9461 23.4101C-41.2598 23.3081 -40.5734 23.2458 -39.8927 23.1041C-35.0653 22.1178 -30.2379 21.1145 -25.0475 20.0375C-22.0808 17.9005 -18.7453 15.4915 -14.8255 12.663C-17.7866 13.2071 -20.1861 13.4566 -22.4665 14.1084C-29.058 15.9903 -35.0256 19.3289 -41.118 22.3558C-41.4753 22.5316 -41.6625 23.0587 -41.9291 23.4215C-42.3546 23.4782 -42.78 23.5405 -43.1998 23.5972C-43.1544 23.7446 -43.1147 23.8976 -43.0693 24.045C-42.6949 23.8296 -42.3205 23.6142 -41.9461 23.3988V23.4101ZM-104.764 283.031C-104.702 283.445 -104.645 283.853 -104.583 284.267C-104.441 284.21 -104.305 284.148 -104.163 284.091C-104.373 283.745 -104.577 283.4 -104.787 283.054C-105.473 280.259 -106.506 277.499 -106.75 274.67C-106.977 271.961 -108.355 270.164 -110.017 268.361C-110.811 267.5 -111.691 266.695 -112.405 265.771C-114.748 262.733 -117.034 259.649 -119.343 256.583C-119.405 257.943 -119.144 259.167 -118.634 260.278C-115.571 266.944 -111.787 273.214 -107.918 279.432C-107.084 280.769 -105.831 281.841 -104.77 283.037L-104.764 283.031ZM198.112 89.724C198.282 89.8316 198.452 89.9394 198.617 90.0471C198.441 89.945 198.265 89.843 198.089 89.741C198.05 89.3952 198.123 88.9701 197.953 88.7093C194.691 83.7835 191.498 78.8124 188.088 73.9887C185.859 70.8371 182.433 68.9439 179.075 65.7866C180.771 69.9755 182.11 73.3595 183.522 76.7151C183.738 77.2196 184.225 77.6617 184.685 78.0075C188.707 81.0231 192.468 84.3334 195.996 87.9101C196.643 88.5676 197.403 89.1174 198.106 89.7183L198.112 89.724ZM-61.0004 328.191C-60.8358 328.293 -60.6713 328.395 -60.5068 328.497C-60.6713 328.395 -60.8415 328.293 -61.006 328.196C-61.9533 325.85 -62.8213 323.469 -63.882 321.173C-64.2507 320.38 -64.9825 319.666 -65.7199 319.155C-71.3642 315.222 -77.0538 311.35 -82.8341 307.388C-82.1137 309.491 -81.104 311.322 -79.527 312.926C-73.8828 318.668 -67.7848 323.832 -61.006 328.191H-61.0004ZM118.316 345.111C118.962 344.884 119.649 344.725 120.256 344.413C124.584 342.174 128.872 339.85 133.223 337.657C137.296 335.599 140.859 332.833 144.33 329.925C144.699 329.613 144.892 329.086 145.226 328.559C140.144 330.481 135.265 332.187 130.512 334.205C128.867 334.902 126.932 335.078 125.633 336.699C123.308 339.595 120.778 342.328 118.333 345.128C118.214 345.292 118.1 345.462 117.981 345.626C118.089 345.451 118.202 345.281 118.31 345.105L118.316 345.111ZM-125.265 120.764C-124.34 119.607 -123.353 118.496 -122.508 117.289C-119.054 112.363 -115.644 107.403 -112.025 102.177C-111.39 98.1698 -110.687 93.7258 -109.926 88.9134C-112.649 91.5775 -114.476 94.4173 -115.979 97.4159C-118.259 101.968 -120.438 106.582 -122.468 111.252C-123.79 114.291 -125.617 117.238 -125.242 120.792C-125.35 120.968 -125.452 121.144 -125.56 121.319L-125.271 120.769L-125.265 120.764ZM182.563 292.905C194.306 284.34 200.33 270.34 200.528 264.501C196.575 268.14 192.507 271.887 188.514 275.56C188.247 276.53 188.071 277.436 187.754 278.298C186.228 282.402 184.645 286.489 183.125 290.593C182.853 291.335 182.762 292.146 182.586 292.928C182.473 293.104 182.359 293.279 182.246 293.461C182.353 293.279 182.461 293.092 182.569 292.911L182.563 292.905ZM181.168 74.9069C181.332 75.0203 181.503 75.128 181.667 75.2414C181.491 75.1393 181.321 75.0373 181.145 74.9296C180.606 71.2679 178.53 68.3033 176.698 65.2424C176.193 64.4035 175.388 63.6666 174.576 63.0941C170.101 59.9425 165.08 57.8623 160.026 55.867C159.601 55.7026 159.141 55.6289 158.375 55.4249C160.06 58.8145 161.558 61.8131 162.692 64.1031C168.552 67.6061 173.794 70.7464 179.046 73.864C179.721 74.2664 180.453 74.5612 181.162 74.9069H181.168ZM-56.78 36.8158C-56.0992 36.708 -55.3561 36.7307 -54.7435 36.4643C-49.9785 34.3897 -45.0093 32.9443 -39.9494 31.8503C-36.6253 31.1304 -33.528 30.2858 -31.6901 26.9982C-31.0831 25.9155 -29.9203 25.1447 -29.0297 24.215C-28.4454 23.6029 -27.8895 22.9623 -27.0953 22.0894C-28.2242 22.0894 -28.9446 21.9647 -29.6026 22.1121C-33.857 23.0587 -38.1171 23.9997 -42.3375 25.0823C-45.9793 26.0119 -49.3092 27.5254 -51.686 30.6656C-53.2913 32.7856 -55.0555 34.7865 -56.7516 36.8384C-56.8537 37.0028 -56.9615 37.1672 -57.0636 37.3316C-56.9671 37.1615 -56.8707 36.9915 -56.7686 36.8158H-56.78ZM205.157 256.226C205.691 255.789 206.337 255.443 206.734 254.905C209.446 251.254 211.573 247.315 212.946 242.945C214.438 238.217 216.242 233.637 216.661 228.57C216.865 226.093 217.087 223.695 217.007 221.292C214.058 225.702 211.159 230.038 208.221 234.431C207.937 236.681 207.659 239.096 207.324 241.505C206.955 244.129 206.53 246.748 206.144 249.367C205.81 251.651 205.492 253.941 205.169 256.226C205.067 256.407 204.959 256.594 204.857 256.775C204.959 256.588 205.061 256.401 205.163 256.22L205.157 256.226ZM-86.4305 63.6213C-86.0845 63.5759 -85.6534 63.6553 -85.4038 63.4739C-79.561 59.251 -73.4176 55.5382 -66.9906 52.466C-65.1924 48.5662 -63.4566 44.8081 -61.7208 41.05C-61.6073 40.8856 -61.4995 40.7156 -61.3861 40.5512C-61.4882 40.7269 -61.5903 40.8969 -61.6981 41.0727C-61.9307 41.0897 -62.1973 41.0443 -62.3958 41.1407C-68.2329 43.9919 -73.9962 46.9734 -79.1129 51.0376C-79.9128 51.6725 -80.8601 52.2279 -81.4103 53.0442C-83.6226 56.3091 -85.4719 59.7668 -86.4079 63.644C-86.51 63.8197 -86.6177 64.0011 -86.7198 64.1768C-86.6234 63.9897 -86.527 63.8083 -86.4249 63.6213H-86.4305ZM-32.0702 29.7587C-28.2242 29.8607 -24.5256 28.7894 -20.7477 28.4096C-16.0111 27.9391 -11.2404 27.8201 -6.29396 27.5424C-4.45604 25.6491 -2.49332 23.6312 -0.263992 21.3355C-2.77127 21.0861 -4.9382 20.797 -7.11079 20.6667C-12.3579 20.3492 -17.5654 20.9784 -22.7898 21.3242C-24.2987 21.4262 -25.4673 22.0894 -26.4089 23.1664C-28.3206 25.343 -30.1699 27.565 -32.0475 29.77C-32.1496 29.9344 -32.2574 30.0988 -32.3595 30.2575C-32.263 30.0874 -32.1666 29.9174 -32.0702 29.7473V29.7587ZM-64.5457 50.9242C-63.865 50.8109 -63.0992 50.8619 -62.5149 50.5615C-57.1487 47.8066 -51.425 46.0381 -45.6787 44.332C-44.2549 43.9068 -42.8367 43.4647 -41.6341 43.0963C-39.8019 39.5762 -38.1058 36.3056 -36.2112 32.6609C-37.3173 32.7629 -38.1966 32.7629 -39.0361 32.9329C-44.9186 34.146 -50.4777 36.3963 -56.1219 38.3689C-57.2791 38.7713 -58.6462 39.4969 -59.2078 40.4775C-61.1478 43.8728 -62.7759 47.4439 -64.5287 50.9526C-64.6308 51.117 -64.7386 51.2813 -64.8407 51.4457C-64.7443 51.27 -64.6478 51.0999 -64.5514 50.9242H-64.5457ZM157.871 311.271C157.525 311.305 157.133 311.254 156.833 311.39C150.23 314.417 143.542 317.217 136.91 319.308C133.944 324.155 131.124 328.758 128.067 333.746C135.282 331.036 142.158 328.519 148.613 324.982C149.935 323.225 151.319 321.513 152.555 319.7C154.422 316.95 156.702 314.445 157.842 311.242C157.95 311.072 158.058 310.902 158.166 310.727C158.063 310.908 157.967 311.084 157.865 311.265L157.871 311.271ZM103.493 339.476C105.325 339.233 107.186 339.136 108.984 338.728C113.806 337.628 118.588 336.364 123.404 335.248C125.1 334.857 126.263 334.086 127.171 332.499C129.003 329.313 131.153 326.303 133.11 323.18C133.694 322.245 134.085 321.19 134.715 319.87C127.749 322.041 121.078 323.673 114.277 324.79C112.66 325.056 110.873 325.43 109.937 327.289C108.224 330.69 106.347 334.006 104.548 337.362C104.18 338.054 103.851 338.773 103.505 339.476C103.397 339.646 103.283 339.816 103.176 339.992C103.283 339.822 103.391 339.646 103.499 339.476H103.493ZM174.798 259.751C175.66 259.434 176.624 259.275 177.362 258.776C182.161 255.557 186.914 252.263 191.265 249.282C193.069 240.734 192.139 232.674 191.469 224.557C185.842 228.218 180.351 231.801 174.815 235.406V259.768C174.707 259.938 174.599 260.103 174.486 260.273C174.588 260.097 174.69 259.927 174.792 259.751H174.798ZM143.042 298.574C142.356 298.676 141.658 298.727 140.989 298.891C136.525 299.996 132.191 301.584 127.596 302.213C124.658 302.615 121.77 303.409 119.047 303.987C116.739 310.625 114.487 317.115 112.104 323.968C120.182 322.307 128.146 320.833 135.969 317.914C137.58 314.06 139.327 310.154 140.83 306.158C141.755 303.698 142.311 301.09 143.025 298.551C143.133 298.387 143.241 298.222 143.343 298.058C143.241 298.228 143.145 298.398 143.042 298.568V298.574ZM-84.2977 122.901L-84.309 122.889C-83.2028 125.31 -82.2215 127.792 -80.9622 130.133C-79.6802 132.514 -79.0959 135.394 -76.5432 137.134C-74.3593 134.787 -72.3455 132.548 -70.2523 130.377C-68.1308 128.178 -65.9695 126.024 -63.7742 123.904C-61.63 121.835 -59.4177 119.834 -57.3926 117.952C-60.1835 112.579 -62.7815 107.574 -65.4136 102.5C-72.6065 108.14 -79.4873 113.848 -85.5797 120.378C-85.0975 121.331 -84.6947 122.113 -84.2977 122.901ZM73.8767 222.907C65.1012 221.547 56.9157 220.271 48.4011 218.951C46.9035 223.48 46.2058 228.241 44.9692 232.849C43.7269 237.48 42.6945 242.168 41.5033 247.117C44.5381 247.78 47.5162 248.517 50.5283 249.066C53.6993 249.645 56.893 250.325 60.098 250.45C63.1895 250.569 66.213 251.997 69.4407 250.994C71.2106 241.618 72.555 232.203 73.8824 222.901L73.8767 222.907ZM34.9628 275.135C44.4133 277.544 53.9546 278.769 63.8759 279.63C65.8159 270.651 67.7049 261.939 68.9926 253.102C59.5931 251.651 50.5226 250.251 41.1742 248.806C39.1434 257.399 37.0956 266.088 34.9628 275.135ZM-15.1659 229.703C-23.3457 225.237 -31.4632 220.804 -39.6261 216.343C-43.1657 224.574 -46.7225 232.849 -50.3245 241.227C-41.7249 246.499 -33.148 251.492 -24.0718 255.472C-21.054 246.748 -18.127 238.268 -15.1659 229.709V229.703ZM5.3235 267.114C9.7935 269.28 14.5528 270.289 19.193 271.519C23.8161 272.743 28.3712 274.529 33.4652 274.534C35.9554 265.703 37.9806 256.923 39.8185 247.972C38.6783 247.853 37.7253 247.887 36.8461 247.644C29.7553 245.66 22.6873 243.602 15.5909 241.624C14.8591 241.42 14.0252 241.596 13.0836 241.596C10.4912 250.109 7.92154 258.555 5.31783 267.12L5.3235 267.114ZM21.2351 211.338C18.0528 210.182 15.4321 209.297 12.8624 208.277C10.1792 207.211 7.62657 205.726 4.86403 204.95C2.22627 204.202 0.0990448 202.144 -2.84502 201.98C-6.31665 210.822 -9.72586 219.506 -13.2032 228.377C-9.24937 231.206 -4.78505 232.515 -0.575989 234.3C3.61606 236.075 7.93289 237.56 12.4142 239.255C15.3867 229.845 18.257 220.759 21.2351 211.344V211.338ZM-13.8101 230.378C-17.0208 238.971 -20.0613 247.485 -22.8352 256.464C-13.9576 260.012 -5.29558 263.481 3.70682 267.08C6.77568 258.119 9.43613 249.361 11.8753 240.66C3.19627 237.186 -5.14809 233.847 -13.8158 230.378H-13.8101ZM98.5581 252.479C98.9155 251.878 99.1254 251.685 99.1424 251.475C99.4317 246.946 99.6983 242.423 99.9592 237.894C99.9989 237.191 99.8401 236.443 100.039 235.791C101.224 231.897 100.385 227.963 100.663 223.797C97.7072 223.797 95.0354 223.803 92.3636 223.797C90.0152 223.791 87.5703 224.177 85.3466 223.65C82.0792 222.879 78.8799 223.298 75.2948 223.094C74.5744 227.963 73.8767 232.725 73.1733 237.492C72.4755 242.225 71.2049 246.884 71.0517 251.714C80.4172 252.484 89.4763 253.068 98.5694 252.484L98.5581 252.479ZM98.6318 254.395C89.0338 253.987 79.8556 253.595 70.5979 253.204C68.9018 261.922 67.1547 270.901 65.3678 280.101C75.3629 280.089 84.9836 281.722 94.644 280.509C96.3174 271.74 97.9682 263.243 98.6262 254.389L98.6318 254.395ZM22.3583 211.95C19.505 221.042 16.6233 230.231 13.6962 239.572C22.4661 242.469 31.1621 244.832 40.2099 246.856C42.5016 237.333 44.7536 227.98 47.0113 218.611C38.8144 216.394 30.7424 214.218 22.3583 211.956V211.95ZM-26.0232 189.181C-30.1812 197.825 -34.9462 205.942 -38.5369 214.552C-35.2355 217.59 -21.2979 225.39 -14.5192 228.003C-11.2915 219.755 -8.05244 211.514 -4.85878 203.249C-4.58083 202.535 -4.60352 201.702 -4.50708 201.073C-11.7169 197.088 -18.7112 193.216 -26.0232 189.175V189.181ZM-46.7338 173.689C-52.4007 181.506 -56.7289 189.951 -61.5222 198.074C-57.2791 202.036 -43.9032 211.837 -39.9494 213.866C-37.8789 209.604 -35.8708 205.313 -33.7266 201.09C-31.5426 196.776 -28.9446 192.672 -27.0783 188.07C-33.9138 183.728 -40.494 179.352 -46.7338 173.695V173.689ZM-51.3513 240.496C-47.8286 232.101 -44.3456 223.797 -40.7436 215.221C-44.3059 212.863 -48.0725 210.567 -51.6179 207.965C-55.1519 205.369 -58.4647 202.473 -62.0271 199.582C-66.6049 207.569 -70.2013 215.697 -73.7013 224.154C-66.7183 229.993 -59.3496 235.423 -51.3513 240.49V240.496ZM126.722 221.105C124.397 221.348 122.428 221.428 120.511 221.779C116.166 222.573 111.798 223.1 107.379 223.128C106.318 223.134 105.257 223.077 104.208 223.179C103.561 223.242 102.937 223.548 102.438 223.701C102.291 224.154 102.172 224.37 102.16 224.591C101.894 230.185 101.644 235.78 101.383 241.375C101.355 241.958 101.428 242.582 101.247 243.115C100.186 246.193 100.895 249.31 100.708 252.343C109.359 251.912 117.754 251.504 125.747 249.65C126.087 245.677 126.581 241.975 126.683 238.263C126.836 232.64 126.722 227.011 126.722 221.11V221.105ZM57.9764 304.316C60.2682 296.374 62.0266 288.733 63.5299 281.342C53.8127 279.868 44.3452 278.434 34.4692 276.938C33.1986 280.429 32.5235 284.38 31.4798 288.229C30.436 292.078 29.2675 295.887 28.0989 299.911C38.0713 301.788 47.8112 303.732 57.9707 304.321L57.9764 304.316ZM77.4277 192.479C69.6563 191.323 62.4634 190.257 55.038 189.158C52.8938 198.607 50.7779 207.943 48.6677 217.267C55.7188 219.206 69.2819 221.082 74.149 220.719C75.4253 211.395 76.5258 201.94 77.4277 192.479ZM4.82999 268.911C2.64037 276.433 0.473434 283.881 -1.71051 291.381C3.00342 293.767 7.87616 294.793 12.6071 296.063C17.304 297.327 21.9725 299.016 26.885 299.248C28.8704 291.403 31.5252 284.063 32.932 276.552C23.5438 274.001 14.4677 271.53 4.82431 268.911H4.82999ZM9.49286 173.904C5.64117 182.537 1.53989 191.142 -1.95442 200.279C5.6752 204.264 13.3956 207.132 21.5528 209.932C24.8712 200.58 27.4239 191.357 30.5552 182.35C23.4531 179.505 16.6176 176.761 9.49852 173.904H9.49286ZM-50.8861 242.831C-53.4218 250.33 -55.8837 257.603 -58.3342 264.864C-49.7459 270.391 -41.1917 275.203 -32.2177 279.324C-31.9397 278.973 -31.6277 278.734 -31.5256 278.428C-29.5175 272.301 -27.5151 266.168 -25.558 260.018C-25.2177 258.952 -25.0929 257.818 -24.917 256.951C-33.6698 252.19 -42.1163 247.598 -50.8861 242.831ZM75.499 221.422C91.0022 222.68 98.3085 222.737 101.173 221.569V193.381C93.6683 193.936 86.3961 192.117 78.8515 192.927C77.734 202.405 76.6336 211.803 75.499 221.422ZM22.8575 210.346C31.0487 212.942 38.9336 215.663 47.4311 216.87C49.5129 207.393 51.5381 198.199 53.6142 188.767C46.2455 186.743 39.1661 184.799 31.8598 182.792C28.9101 191.822 25.9887 200.778 22.8631 210.346H22.8575ZM-30.6464 280.016C-28.7631 280.883 -27.0159 281.756 -25.212 282.504C-18.6942 285.213 -12.1651 287.911 -5.60757 290.525C-4.72832 290.876 -3.63351 290.683 -2.91309 290.723C-0.672424 283.059 1.4548 275.776 3.57634 268.531C-5.23885 265 -14.1391 261.429 -23.3004 257.756C-25.6772 264.955 -28.0824 272.244 -30.6407 280.016H-30.6464ZM93.9917 281.931C84.3142 283.309 74.6482 280.956 64.9934 281.631C63.1725 289.397 61.2268 296.924 59.6669 304.497C69.5485 305.852 79.1011 305.608 88.529 305.563C90.3442 300.62 94.4058 284.794 93.9917 281.931ZM99.9195 253.448C99.9195 255.171 100.056 256.475 99.8911 257.739C99.5394 260.482 99.0346 263.203 98.5921 265.93C98.1837 268.429 97.5938 270.918 97.4179 273.44C97.2591 275.679 95.8296 277.833 96.7712 280.18C105.66 280.537 114.22 279.046 123.035 277.68C124.034 268.849 125.015 260.188 126.03 251.203C117.244 252.382 108.888 253.851 99.9082 253.448H99.9195ZM-29.5686 149.253C-35.6269 156.86 -40.9591 164.682 -46.0758 172.635C-39.6431 177.77 -33.3578 182.668 -26.3352 187.044C-21.3149 178.7 -16.3798 170.486 -11.5524 162.466C-17.7469 157.92 -23.6464 153.6 -29.5686 149.253ZM102.807 192.769C102.807 197.949 102.869 202.751 102.79 207.552C102.705 212.409 102.472 217.261 102.296 222.386C110.527 221.484 118.616 221.224 126.836 219.325C126.575 217.857 126.184 216.536 126.133 215.204C125.945 210.193 126.246 205.171 125.406 200.171C124.89 197.105 124.805 193.965 124.522 190.853C117.346 191.958 110.368 193.063 102.807 192.774V192.769ZM-3.47469 199.826C0.411041 190.955 4.25706 182.18 8.16548 173.258C2.01073 169.891 -4.1497 166.524 -10.4179 163.095C-15.2963 171.308 -20.1237 179.431 -25.0702 187.758C-18.1553 192.565 -10.7413 195.846 -3.47469 199.831V199.826ZM-74.9663 222.918C-71.0805 214.739 -67.2515 206.696 -63.3091 198.403C-65.2832 196.697 -67.4274 194.934 -69.4525 193.058C-71.4379 191.221 -73.3326 189.294 -75.2158 187.35C-77.1048 185.4 -78.9257 183.376 -81.104 181.035C-85.4265 189.203 -89.5448 196.986 -93.6858 204.808C-87.4062 211.145 -81.6372 217.562 -74.9663 222.918ZM127.471 249.288C135.691 248.256 143.235 246.091 150.706 243.789C151.081 234.21 150.468 224.851 149.186 215.663C142.186 217.42 135.305 219.143 128.197 220.923C128.197 224.681 128.197 228.292 128.197 231.908C128.197 233.195 128.436 234.556 128.118 235.763C126.983 240.144 127.868 244.532 127.471 249.288ZM-63.3715 157.891C-69.0781 165.362 -74.7904 172.589 -80.1567 180.298C-75.0797 185.349 -70.1105 190.326 -65.0846 195.246C-64.3075 196.005 -63.258 196.487 -62.4525 197.02C-59.9623 192.729 -57.6762 188.727 -55.3278 184.759C-52.9736 180.786 -50.5685 176.841 -48.1519 172.839C-53.1608 167.919 -58.0279 163.129 -63.3658 157.886L-63.3715 157.891ZM10.0317 172.499C17.2586 175.582 23.9466 178.632 31.1224 180.774C34.5203 171.297 37.8558 162.001 41.2536 152.54C35.2804 150.137 29.432 147.785 23.3396 145.33C18.9207 154.354 14.5528 163.276 10.0374 172.499H10.0317ZM80.8766 161.043C80.8766 164.098 81.3361 166.785 80.7746 169.239C79.7762 173.604 80.7178 178.054 79.6287 182.401C79.1068 184.487 79.64 186.788 78.9026 188.948C78.6757 189.611 79.016 190.467 79.1011 191.249C86.64 191.181 93.9293 192.774 101.315 191.68C101.451 181.636 100.719 171.79 99.9195 161.706C97.6959 161.706 95.7218 161.717 93.7477 161.706C92.2218 161.695 90.5938 161.99 89.1927 161.559C86.5266 160.731 83.9058 161.219 80.8766 161.043ZM21.6662 321.003C23.3453 321.423 24.979 321.916 26.6467 322.222C31.1791 323.061 35.7172 323.911 40.278 324.58C43.2617 325.016 46.3249 324.96 49.2803 325.51C50.3695 325.714 50.9821 325.459 51.7082 325.005C53.773 318.685 56.0931 312.467 57.5567 306.039C47.397 304.469 37.5211 302.944 27.7359 301.436C25.6938 308.006 23.7197 314.366 21.6605 321.003H21.6662ZM-51.9356 241.868C-59.707 236.653 -67.2232 231.472 -74.3082 225.259C-77.0254 232.9 -80.151 240.19 -81.6996 248.069C-74.3763 253.641 -67.5011 259.286 -59.5595 264.076C-56.9785 256.549 -54.4826 249.276 -51.9412 241.873L-51.9356 241.868ZM150.735 245.467C142.702 247.445 134.908 249.367 127.346 251.232C126.393 259.995 125.457 268.588 124.493 277.448C132.838 275.889 141.182 274.035 149.203 271.128C149.736 265.969 150.383 261.146 150.695 256.299C150.927 252.689 150.74 249.044 150.74 245.467H150.735ZM118.009 302.258C119.569 294.634 121.084 287.243 122.695 279.392C119.252 279.732 116.257 279.84 113.329 280.356C109.444 281.036 105.535 281.382 101.616 281.631C99.7664 281.75 97.9057 281.654 96.1019 281.654C94.1732 289.782 92.3126 297.627 90.4406 305.529C91.8247 305.529 93.1011 305.829 94.1448 305.466C96.2153 304.752 98.2971 305.041 100.373 304.871C102.563 304.69 104.741 304.401 106.931 304.191C109.699 303.919 112.484 303.754 115.241 303.38C116.223 303.244 117.13 302.626 118.009 302.258ZM77.3313 190.683C78.7664 184.039 78.3694 177.498 79.328 171.099C79.8215 167.8 79.4131 164.365 79.4131 160.924C74.183 159.994 69.2195 159.093 64.2446 158.254C63.354 158.107 62.4181 158.231 61.4707 158.231C59.4229 168.032 57.4092 177.685 55.3557 187.514C62.6676 188.931 69.6449 190.507 77.3313 190.671V190.683ZM-31.1002 281.744C-33.3181 288.133 -35.0199 294.748 -36.733 301.334C-27.6682 305.619 -18.7056 309.627 -8.95439 312.671C-7.12215 306.039 -5.19347 299.464 -3.58246 292.775C-12.8515 289.057 -21.8538 285.451 -31.0945 281.744H-31.1002ZM5.60146 135.711C0.325958 132.021 -4.59218 128.586 -9.72586 124.998C-12.7267 128.881 -16.1756 132.435 -19.2558 136.357C-22.3077 140.24 -25.6942 143.857 -28.5021 148.068C-22.7728 152.96 -16.8279 157.126 -10.6845 161.032C-5.21616 152.535 0.14444 144.202 5.60713 135.711H5.60146ZM60.1263 157.721C54.363 156.157 48.5089 154.575 42.6207 152.977C40.7431 157.92 38.6897 162.46 37.3226 167.193C35.9611 171.892 33.4822 176.268 32.7845 181.477C39.8185 183.682 46.6086 185.706 53.9262 187.27C56.1839 177.339 58.1977 167.573 60.132 157.727L60.1263 157.721ZM-2.15297 293.211C-4.06462 299.673 -5.80043 306.294 -7.4852 313.045C1.60229 316.605 10.7805 318.668 20.2197 320.918C22.2845 314.264 24.3493 307.615 26.3348 301.209C16.7027 298.506 7.32025 295.87 -2.15297 293.206V293.211ZM123.852 189.793C124.459 184.351 123.154 179.329 122.36 174.352C121.577 169.449 121.135 164.393 119.552 159.802C116.188 160.238 113.233 160.765 110.249 160.975C107.283 161.185 104.265 160.873 101.219 162.256C101.514 164.597 101.95 166.881 102.058 169.183C102.376 176.064 102.563 182.945 102.807 189.832C102.83 190.501 102.909 191.17 102.96 191.85C109.971 191.159 116.756 190.49 123.858 189.793H123.852ZM-63.2297 286.67C-55.1916 292.066 -42.5077 299.01 -38.015 300.501C-37.0564 297.191 -35.8197 293.937 -35.2185 290.564C-34.6172 287.192 -32.3935 284.193 -32.8076 280.854C-41.4867 276.116 -49.9218 271.513 -58.5271 266.808C-60.6089 273.299 -62.0498 279.879 -63.2297 286.67ZM126.161 190.841C126.161 192.57 126.008 193.88 126.189 195.144C127.08 201.481 127.556 207.846 127.562 214.24C127.562 215.958 127.602 217.675 127.624 219.478C131.578 218.628 135.203 217.976 138.76 217.052C142.305 216.128 145.777 214.932 149.192 213.883C147.989 204.315 146.837 195.087 144.642 186.052C138.391 187.673 132.321 189.243 126.161 190.836V190.841ZM173.504 234.266C172.75 224.925 171.751 215.912 170.22 207.013C163.696 209.728 157.326 212.387 150.615 215.187C150.905 217.363 151.359 219.631 151.478 221.909C151.807 228.077 151.994 234.249 152.249 240.422C152.283 241.204 152.391 241.987 152.493 243.024C159.873 240.915 166.516 237.747 173.504 234.266ZM-80.9565 178.785C-75.3066 171.28 -69.8326 164.019 -64.523 156.962C-68.8682 151.163 -72.9922 145.653 -77.1786 140.059C-83.4354 146.526 -88.7109 153.753 -94.236 161.071C-90.2766 167.261 -86.1866 173.377 -80.9565 178.785ZM59.1563 306.232C57.0348 312.994 55.0153 319.41 53.0072 325.81C62.4351 327.255 71.8799 326.672 81.4552 326.751C83.8321 320.244 86.5719 314.06 88.0808 307.042C86.6003 307.042 85.4544 307.042 84.3086 307.042C80.0825 307.031 75.7883 307.479 71.6417 306.878C67.5461 306.283 63.5015 306.617 59.162 306.232H59.1563ZM21.9385 144.741C16.9637 142.043 11.9207 139.305 6.81538 136.533C1.33568 144.996 -4.06464 153.345 -9.55569 161.831C-3.43497 165.436 2.44183 169.086 8.97098 171.733C13.3105 162.704 17.5536 153.867 21.9385 144.741ZM-30.635 148.028C-32.2574 146.617 -33.8911 145.313 -35.3943 143.874C-37.7711 141.606 -40.0515 139.237 -42.3943 136.941C-42.9389 136.408 -43.5912 135.995 -44.2832 135.456C-50.4834 142.678 -56.5247 149.706 -62.6567 156.843C-57.3132 161.854 -52.8999 167.323 -47.2387 171.41C-41.7079 163.622 -36.2849 155.981 -30.6293 148.023L-30.635 148.028ZM143.882 296.794C147.876 281.166 148.692 277.187 148.256 273.219C140.235 275.209 132.219 277.198 124.124 279.205C122.576 286.755 121.022 294.362 119.411 302.213C127.868 301.601 135.697 298.721 143.876 296.794H143.882ZM-75.9419 138.908C-72.1697 144.701 -68.284 150.511 -63.2807 155.499C-57.0693 148.283 -51.0903 141.34 -45.049 134.328C-45.2986 133.897 -45.5652 133.223 -46.0134 132.701C-48.7306 129.527 -51.5271 126.432 -53.7565 122.867C-54.5733 121.557 -55.7305 120.458 -56.7289 119.267C-62.7191 124.522 -74.2118 136.25 -75.9419 138.908ZM-101.905 228.354C-98.8138 231.676 -95.8641 234.998 -92.7385 238.144C-90.356 240.541 -87.7636 242.729 -85.245 244.985C-84.672 245.501 -84.0254 245.932 -83.2085 246.555C-80.5935 239.028 -78.0805 231.778 -75.6243 224.704C-81.0643 219.387 -86.4986 214.07 -91.933 208.753C-92.5626 208.135 -93.2036 207.523 -94.1226 206.639C-97.2538 213.838 -99.9313 220.793 -101.905 228.354ZM-95.3308 162.511C-100.323 169.534 -104.492 176.999 -108.435 184.691C-104.634 191.754 -99.4491 197.683 -94.6785 203.697C-90.4978 195.841 -86.3228 187.99 -82.1988 180.23C-86.6007 174.295 -90.9346 168.446 -95.3365 162.511H-95.3308ZM170.169 205.318C167.854 195.92 165.653 187.01 163.492 178.229C157.508 180.791 151.79 183.24 146.287 185.592C147.756 194.911 149.186 203.992 150.655 213.311C157.468 211.803 163.373 208.101 170.163 205.313L170.169 205.318ZM152.51 244.923C152.175 250.467 151.869 255.693 151.546 260.913C151.438 262.642 151.619 264.348 150.99 266.088C150.553 267.301 150.905 268.804 150.905 270.646C158.523 267.834 165.778 265.301 172.5 261.208C172.784 260.205 173.3 259.218 173.306 258.226C173.374 250.852 173.345 243.483 173.345 236.165C166.345 239.107 159.459 241.998 152.516 244.912L152.51 244.923ZM83.0833 326.745C83.8321 326.745 84.388 326.745 84.9496 326.745C90.0606 326.757 95.1148 326.122 100.169 325.419C103.368 324.971 106.607 324.767 110.028 324.438C110.998 322.188 112.019 320 112.898 317.75C113.732 315.613 114.572 313.459 115.122 311.242C115.684 308.986 117.323 306.923 116.722 304.372C114.566 304.593 112.615 304.701 110.692 305.013C106.347 305.71 102.007 306.317 97.5938 306.402C94.956 306.453 92.3296 306.764 90.0038 306.934C87.6611 313.651 85.4658 319.932 83.089 326.751L83.0833 326.745ZM144.302 184.606C144.336 184.334 144.381 184.209 144.353 184.102C141.965 175.112 139.588 166.116 137.149 157.143C137.024 156.678 136.423 156.338 136.082 155.981C133.433 156.707 130.988 157.342 128.56 158.044C126.098 158.759 123.325 158.452 121.317 159.983C122.871 169.846 124.374 179.386 125.917 189.181C132.032 188.268 138.034 186.369 144.302 184.606ZM-64.6819 285.741C-63.0765 279.041 -61.4882 272.38 -59.8488 265.539C-67.5692 260.794 -74.9152 255.262 -82.1818 249.14C-84.4565 256.073 -85.2053 262.92 -86.3284 269.779C-79.5497 275.532 -72.527 281.002 -64.6819 285.746V285.741ZM-44.2265 133.285C-36.9713 126.092 -30.1018 119.018 -23.0791 112.278C-26.2841 108.084 -29.4778 103.9 -32.6715 99.7286C-41.4186 105.879 -51.4647 114.183 -55.3391 118.502C-51.7597 123.269 -48.1463 128.07 -44.2265 133.285ZM38.1224 117.618C37.1354 119.273 36.0576 120.934 35.1216 122.668C31.6613 129.096 28.2351 135.541 24.8485 142.009C24.5025 142.672 24.5309 143.528 24.3664 144.395C30.2488 146.696 35.9384 148.918 41.7472 151.191C45.2188 141.754 48.5997 132.565 51.9975 123.32C47.2496 121.37 42.6718 119.488 38.1167 117.618H38.1224ZM162.891 177.033C161.138 171.943 159.657 167.352 157.967 162.834C156.294 158.356 154.546 153.889 152.357 149.582C147.439 151.616 142.787 153.538 137.966 155.539C139.44 160.476 140.864 165.181 142.254 169.891C143.638 174.579 144.415 179.431 145.856 184.391C151.71 181.863 157.207 179.488 162.885 177.033H162.891ZM-29.994 147.127C-23.4705 139.294 -17.1853 131.743 -10.8207 124.108C-14.5135 120.435 -18.1723 116.802 -21.9219 113.072C-28.6496 119.823 -35.2241 126.421 -41.7816 133.03C-42.1617 133.41 -42.4056 133.926 -42.797 134.498C-38.5369 138.698 -34.4016 142.78 -29.9883 147.127H-29.994ZM-104.118 140.592C-104.106 144.259 -101.65 147.127 -100.175 150.347C-98.7117 153.544 -97.3049 156.831 -95.0585 159.478C-89.3292 152.404 -83.7247 145.478 -78.1202 138.562C-80.9905 132.985 -83.8892 127.35 -86.8049 121.682C-93.1072 127.192 -98.4054 133.71 -104.118 140.597V140.592ZM12.1136 101.599C4.97748 108.911 -2.45927 115.798 -8.49492 123.949C-3.58246 127.452 0.938599 131.466 6.46368 134.385C12.2838 126.171 17.9734 118.145 23.7764 109.96C19.9928 107.25 16.2489 104.564 12.1136 101.599ZM168.178 286.636C170.781 279.08 171.802 271.026 172.778 262.846C165.307 266.61 157.888 269.682 150.581 272.273C149.016 280.237 147.512 287.855 145.913 295.989C153.741 293.415 160.968 290.502 168.178 286.636ZM100.107 160.232C99.097 150.114 98.1383 140.478 97.174 130.825C92.0913 130.479 87.3888 130.162 82.533 129.833C82.448 130.627 82.3742 131.069 82.3629 131.517C82.1076 139.673 81.8694 147.83 81.5971 155.992C81.563 156.984 81.3872 157.976 81.2567 159.127C87.3661 160.686 93.5038 160.193 100.107 160.238V160.232ZM112.654 129.448C108.587 129.657 104.991 129.833 101.394 130.026C100.492 130.071 99.5905 130.145 98.4957 130.219C99.5111 140.314 100.498 150.188 101.485 160.017C105.978 160.368 117.351 159.065 119.552 157.942C117.266 148.499 114.975 139.021 112.66 129.448H112.654ZM191.515 222.352C190.84 217.596 190.289 213.243 189.592 208.918C188.911 204.672 188.389 200.37 186.71 196.283C181.457 199.701 176.499 202.921 171.615 206.1C172.733 215.085 173.873 224.245 175.047 233.705C180.635 229.834 186.602 226.886 191.509 222.352H191.515ZM80.1335 159.592C79.7989 149.343 81.5857 139.424 80.7235 129.629C76.1854 128.903 71.9196 128.218 67.5574 127.52C65.6741 137.145 63.8022 146.713 61.8565 156.639C67.8751 157.614 73.837 158.577 80.1335 159.592ZM-109.336 183.444C-105.734 176.268 -101.724 169.472 -97.1914 163.004C-96.1136 161.468 -96.3235 160.504 -97.1801 158.951C-100.067 153.719 -102.683 148.335 -105.485 142.853C-110.613 149.372 -115.066 156.525 -119.02 164.058C-116.41 170.86 -113.029 177.164 -109.336 183.444ZM-13.4017 329.5C-13.0897 329.234 -12.8004 329.109 -12.755 328.928C-11.6545 324.467 -10.5711 320 -9.52165 315.528C-9.42522 315.108 -9.58405 314.632 -9.61809 314.258C-18.7453 310.562 -27.7306 306.929 -36.9202 303.21C-38.4972 308.108 -38.8262 313.464 -39.8359 318.651C-31.1796 323.061 -22.3814 326.263 -13.4017 329.506V329.5ZM53.376 123.672C50.0008 132.832 46.6256 141.986 43.2674 151.095C46.2228 152.773 54.4424 155.091 60.1604 155.919C61.1531 153.725 61.5956 151.378 61.8962 148.964C62.2082 146.453 62.7924 143.981 63.269 141.493C63.7284 139.118 64.1652 136.737 64.6871 134.379C65.226 131.959 66.2981 129.612 65.7989 127.056C61.6296 125.922 57.6588 124.839 53.3703 123.677L53.376 123.672ZM-56.2184 116.649C-48.5207 110.374 -41.0953 104.326 -33.6301 98.2378C-35.8197 94.0602 -38.0604 89.7976 -40.4089 85.314C-48.7306 90.1831 -56.4453 95.619 -64.1316 101.554C-61.596 106.74 -59.4801 111.859 -56.2184 116.649ZM16.0447 337.419C23.5949 339.522 31.2075 340.072 38.6613 341.449C40.5786 341.806 42.6208 341.5 44.8784 341.5C47.2042 336.937 49.0478 332.159 50.6645 327.38C40.6524 325.833 30.9806 324.331 21.0309 322.789C19.4539 327.408 17.8202 332.204 16.0447 337.413V337.419ZM-83.7191 248.409C-89.9759 242.327 -96.1534 236.324 -102.427 230.231C-104.316 237.072 -105.598 243.937 -106.217 250.846C-101.128 255.925 -96.2555 260.851 -91.309 265.697C-90.2652 266.718 -88.9435 267.46 -87.7409 268.333C-86.3568 261.474 -85.0237 254.854 -83.7247 248.409H-83.7191ZM24.8202 110.691C18.932 119.092 13.2821 127.152 7.60956 135.241C12.6411 137.973 17.3267 141.17 22.6532 143.346C27.3615 134.532 31.9846 125.888 36.7496 116.966C32.7164 114.846 28.9044 112.845 24.8145 110.691H24.8202ZM-109.251 186.964C-112.445 193.109 -114.396 199.508 -116.592 205.817C-117.176 207.501 -116.603 209.02 -115.639 210.414C-113.597 213.362 -111.645 216.383 -109.467 219.228C-107.504 221.79 -105.286 224.16 -103.193 226.603C-100.459 219.228 -97.8211 212.115 -95.2968 205.307C-99.9313 199.219 -104.475 193.239 -109.251 186.964ZM164.712 177.572C166.89 186.426 169.04 195.195 171.281 204.315C176.698 201.486 181.707 198.301 186.398 194.237C184.18 185.417 181.174 177.05 177.895 168.797C173.334 171.835 169.006 174.715 164.712 177.572ZM14.099 337.198C15.5909 335.293 19.2781 324.569 19.244 322.318C10.2587 319.841 1.30731 317.37 -7.81421 314.853C-9.60674 319.756 -10.4179 324.846 -11.6148 330.033C-3.08894 332.901 5.46532 335.151 14.099 337.198ZM-5.88553 82.066C-14.6837 87.0655 -23.2663 92.4958 -31.4746 98.6743C-28.4681 103.209 -25.6999 107.625 -21.678 110.873C-13.8271 104.275 -6.14079 97.8183 1.5172 91.3848C-0.927689 88.3012 -3.37823 85.2176 -5.87985 82.0604L-5.88553 82.066ZM-105.02 139.294C-98.984 132.514 -93.1355 125.95 -87.4232 119.534C-88.3025 116.603 -89.0343 113.695 -90.061 110.895C-91.0707 108.146 -90.736 104.983 -92.7668 102.143C-98.6323 108.146 -104.866 113.446 -109.819 120.095C-109.104 126.676 -107.3 132.922 -105.02 139.294ZM-38.4745 302.462C-40.5393 301.323 -42.6325 300.138 -44.7541 299.004C-46.8075 297.91 -48.9177 296.907 -50.9542 295.785C-53.0871 294.612 -55.1236 293.251 -57.2848 292.129C-59.3553 291.052 -61.1195 289.329 -63.4339 288.784C-64.835 294.441 -64.4833 299.911 -64.5287 305.359C-63.0652 306.254 -61.8115 307.093 -60.4955 307.813C-54.9137 310.88 -49.3035 313.901 -43.7273 316.984C-42.7573 317.523 -41.8554 317.823 -40.9818 317.455C-40.1309 312.376 -39.3141 307.49 -38.4688 302.456L-38.4745 302.462ZM153.945 148.697C157.349 157.733 160.724 166.677 164.099 175.622C168.427 173.955 171.082 172.283 177.05 167.403C175.904 162.896 173.612 158.747 171.53 154.519C169.443 150.279 167.276 146.073 165.001 141.555C161.053 144.106 157.4 146.464 153.945 148.697ZM137.71 153.912C142.708 152.648 148.97 149.848 151.688 147.615C147.592 138.659 142.991 129.895 137.852 121.501C133.972 123.133 130.398 124.635 126.955 126.081C130.603 135.518 134.165 144.729 137.71 153.906V153.912ZM113.846 129.005C115.842 137.366 118.475 145.495 119.836 153.906C120.035 155.142 120.511 156.333 120.897 157.534C120.959 157.721 121.243 157.829 121.464 158.005C126.354 157.081 131.346 156.452 135.94 154.292C131.385 140.217 126.881 128.892 125.004 126.63C121.453 127.384 117.97 128.133 113.846 129.011V129.005ZM73.1506 342.968C75.7203 338.133 78.2616 333.349 80.9844 328.219C75.8905 328.219 71.1992 328.315 66.5137 328.191C61.7657 328.066 57.0178 327.72 52.3152 327.471C50.2504 332.465 48.2933 337.198 46.3249 341.948C55.3727 343.263 64.1312 342.957 73.1449 342.962L73.1506 342.968ZM-21.2128 112.346C-17.225 116.059 -13.5719 119.454 -9.83365 122.929C-8.62538 121.688 -7.53624 120.628 -6.52086 119.505C-2.45929 115.022 1.55124 110.487 5.64117 106.026C7.33727 104.173 9.18085 102.449 10.9507 100.664C8.01797 97.7843 5.32918 95.1372 2.50423 92.3597C-5.36365 98.986 -13.05 105.465 -21.2128 112.341V112.346ZM-69.8779 86.4477C-77.2353 90.4892 -83.9686 95.5793 -90.8268 100.743C-89.9475 106.933 -88.4216 112.8 -86.2263 118.451C-79.476 112.584 -72.805 106.786 -65.9695 100.845C-67.2289 96.2142 -68.5506 91.3508 -69.8779 86.4477ZM-32.4786 97.3875C-23.6067 91.5832 -15.2056 86.0849 -6.67401 80.5016C-8.40982 77.2876 -10.191 73.9943 -11.9949 70.65C-21.2639 75.077 -30.4762 78.9995 -39.0474 84.5374C-37.9867 86.7934 -37.0053 89.0154 -35.9048 91.1751C-34.81 93.312 -33.5904 95.3866 -32.4843 97.3875H-32.4786ZM192.649 221.824C197.267 217.295 201.612 213.033 205.736 208.997C205.577 203.64 205.135 198.652 200.426 182.883C196.421 186.93 192.439 190.943 188.179 195.24C190.159 203.578 191.974 212.375 192.649 221.824ZM200.035 180.667C197.114 172.431 194.028 164.518 189.96 157.166C186.364 160.708 182.751 164.268 179.222 167.749C182.11 176.268 184.974 184.737 187.907 193.392C192.037 189.016 196.637 185.326 200.035 180.672V180.667ZM189.013 155.465C181.106 140.365 177.294 134.152 174.724 132.123C171.751 135.025 168.773 137.927 165.767 140.858C166.102 141.26 166.482 141.578 166.68 141.986C170.14 149.077 173.55 156.196 177.05 163.265C177.52 164.217 177.6 165.629 179.341 165.912C182.501 162.511 186.398 159.654 189.013 155.471V155.465ZM-87.1566 289.21C-80.2531 294.441 -73.7864 299.957 -66.2872 303.981C-65.8334 298.398 -65.4023 293.081 -64.9655 287.787C-71.9428 282.68 -79.1072 277.431 -86.3228 272.148C-87.8147 277.607 -86.7369 283.252 -87.1566 289.21ZM-124.959 142.78C-123.546 149.4 -122.349 155.749 -119.541 162.194C-115.735 154.196 -110.63 147.728 -105.99 140.858C-106.727 138.715 -107.487 136.669 -108.128 134.583C-108.735 132.605 -109.257 130.598 -109.728 128.586C-110.216 126.5 -110.596 124.391 -111.14 121.693C-116.768 128.62 -121.067 135.569 -124.953 142.78H-124.959ZM145.306 297.825C142.923 304.106 140.405 310.766 137.858 317.489C145.346 314.768 152.998 312.274 159.782 308.04C163.174 301.89 165.438 295.428 167.656 288.864C160.111 291.891 152.833 294.81 145.306 297.825ZM82.17 328.61C79.8102 333.292 77.405 338.065 74.8013 343.229C77.4334 342.9 79.8386 342.322 82.2267 342.356C87.6043 342.435 92.8401 341.268 98.1553 340.859C99.6245 340.746 101.026 340.434 101.808 339.17C104.236 335.225 106.556 331.218 108.871 327.204C109.115 326.779 109.024 326.161 109.047 325.963C100.118 326.842 91.3766 327.698 82.1757 328.604L82.17 328.61ZM-128.028 186.828C-125.208 193.556 -122.253 200.137 -118.021 206.412C-117.59 205.001 -117.272 204.02 -116.994 203.028C-115.48 197.672 -113.324 192.553 -111.038 187.497C-110.284 185.831 -110.278 184.572 -111.288 182.957C-113.262 179.811 -115.003 176.512 -116.682 173.196C-117.845 170.9 -118.747 168.468 -119.899 165.782C-123.331 172.884 -126.184 179.686 -128.028 186.822V186.828ZM169.743 286.336C175.342 282.595 180.215 279.239 185.207 276.065C186.931 274.965 187.85 273.65 188.213 271.666C189.041 267.137 190.125 262.653 190.925 258.119C191.345 255.749 191.39 253.318 191.594 250.96C185.774 254.774 179.999 258.555 174.332 262.274C173.164 270.09 172.273 277.879 169.738 286.341L169.743 286.336ZM-64.8804 99.4848C-64.4096 99.5642 -64.2507 99.6435 -64.1827 99.5925C-56.4226 94.3436 -49.1447 88.3862 -40.9081 84.135C-41.7987 80.6206 -42.6098 77.2933 -43.5118 73.9887C-43.6422 73.5125 -44.1925 73.1498 -44.72 72.5376C-52.5879 76.7945 -60.3253 80.9777 -68.057 85.1666C-68.1818 90.3021 -65.9752 94.7404 -64.8747 99.4848H-64.8804ZM-108.298 248.528C-108.06 248.415 -107.816 248.307 -107.578 248.194C-106.245 241.596 -104.918 234.998 -103.653 228.728C-108.378 222.539 -112.984 216.502 -117.806 210.187C-118.197 211.99 -118.56 213.526 -118.861 215.068C-119.536 218.565 -120.319 222.051 -120.795 225.577C-121.181 228.439 -121.351 231.217 -119.224 233.841C-115.389 238.586 -111.917 243.619 -108.298 248.528ZM-68.5506 83.9026C-60.2346 79.3793 -52.1057 74.9523 -44.4648 70.7917C-44.652 66.2117 -44.8108 62.2269 -44.9923 57.7772C-53.1381 61.49 -60.9209 65.0384 -68.7434 68.6038C-70.0368 73.8243 -69.4468 78.7501 -68.5506 83.9026ZM139.457 120.758C144.086 129.629 148.675 138.426 153.333 147.36C155.114 146.3 157.02 145.262 158.829 144.072C160.639 142.882 162.346 141.538 164.082 140.274C158.994 131.545 153.633 123.224 147.859 115.492C145.028 117.266 142.384 118.922 139.452 120.758H139.457ZM52.9278 92.5071C47.6693 100.261 43.3128 108.322 38.6443 116.444C43.3071 118.298 47.6807 120.033 52.3889 121.909C55.8208 113.276 58.8216 104.892 62.0607 96.2822C58.9691 95.0068 56.1272 93.8335 52.9222 92.5071H52.9278ZM182.546 120.101C180.413 123.587 178.326 126.999 176.233 130.411C180.811 138.194 185.388 145.982 190.046 153.901C193.256 150.732 195.315 146.832 197.216 142.853C197.511 142.241 197.233 141.26 196.994 140.518C196.716 139.645 196.291 138.778 195.758 138.024C191.498 131.981 187.731 125.57 182.535 120.101H182.546ZM149.158 114.551C154.478 122.629 159.811 130.717 165.149 138.817C167.781 137.565 172.506 133.013 174.054 130.207C168.779 122.039 159.096 110.028 155.942 107.721C153.622 110.056 151.313 112.38 149.158 114.551ZM83.0095 101.14C83.3102 110.459 81.6425 119.403 82.5954 128.229C85.1141 128.518 87.4171 128.801 89.7202 129.04C92.1424 129.289 94.5589 129.215 97.0322 129.113C95.5289 119.573 94.0768 110.368 92.6246 101.134H83.0095V101.14ZM34.5543 80.9664C27.3161 87.7004 19.7262 93.5444 13.2027 100.704C15.1371 102.149 16.975 103.566 18.8526 104.921C20.787 106.31 22.6362 107.863 24.8542 108.503C30.6573 101.089 36.3469 93.8278 42.0535 86.5497C39.4838 84.6395 37.1751 82.9163 34.5543 80.9721V80.9664ZM193.347 223.128V246.935C194.062 246.578 194.686 246.425 195.083 246.034C198.106 243.086 201.164 240.161 204.062 237.095C206.558 234.448 207.358 231.251 207.307 227.549C207.239 222.879 206.842 218.253 206.547 213.605C206.485 212.602 206.451 211.593 206.388 210.374C202.043 214.62 197.902 218.673 193.347 223.122V223.128ZM209.61 165.362C206.451 157.37 202.69 150.386 198.991 143.256C196.342 147.258 193.857 150.976 191.418 154.723C190.789 155.692 191.016 156.633 191.623 157.648C194.941 163.231 197.255 169.273 199.53 175.327C200.007 176.591 200.432 177.872 201.124 179.833C204.199 174.59 206.916 169.948 209.61 165.357V165.362ZM-87.6615 271.048C-93.9467 265.034 -99.9256 259.309 -106.222 253.284C-106.432 256.333 -106.835 259.088 -106.761 261.837C-106.687 264.83 -106.177 267.812 -105.87 270.68C-101.037 277.272 -94.8714 282.447 -88.5464 288.014C-88.5464 285.786 -88.5521 283.819 -88.5464 281.852C-88.5351 280.095 -88.6145 278.326 -88.4613 276.586C-88.2968 274.648 -87.9111 272.732 -87.6615 271.06V271.048ZM112.076 127.447C109.427 119.471 106.829 111.609 104.191 103.764C103.8 102.597 103.238 101.486 102.824 100.511C99.5678 100.794 96.7088 101.049 94.1051 101.276C95.5006 110.527 96.8904 119.738 98.2858 129C101.803 128.818 105.382 128.694 108.95 128.416C109.937 128.342 110.896 127.826 112.076 127.441V127.447ZM-39.6487 83.1997C-34.9235 80.6036 -30.4478 78.1265 -25.9608 75.6778C-21.5078 73.2518 -16.5216 71.8574 -12.3636 69.0799C-13.2259 65.9623 -14.0143 63.0998 -14.8425 60.1069C-24.3668 63.4966 -33.7606 67.0223 -42.7743 71.8801C-41.7306 75.6722 -40.7209 79.3282 -39.6487 83.194V83.1997ZM-91.2182 99.2864C-87.4459 96.492 -84.2693 93.9809 -80.9225 91.7079C-77.4735 89.3612 -73.8658 87.2469 -70.3147 85.0249C-69.4865 80.0935 -72.1129 75.1847 -70.1332 69.9131C-78.1826 73.9377 -84.9897 78.9145 -91.2182 84.1577V99.2921V99.2864ZM15.4264 339.114C14.3429 342.464 12.2327 345.774 11.6087 349.974C20.3218 351.402 28.7059 352.78 37.1807 354.174C39.6483 350.524 42.1953 347.168 43.8744 343.478C34.4012 342.021 25.0584 340.587 15.4264 339.108V339.114ZM207.296 206.645C210.796 201.781 213.592 197.519 215.68 192.848C216.088 191.935 216.502 190.785 216.304 189.878C214.789 183.042 213.604 176.104 210.864 169.591C210.569 168.894 210.319 168.174 210.109 167.618C207.319 172.136 204.596 176.534 201.68 181.256C202.1 182.962 202.61 185.082 203.138 187.191C203.643 189.198 204.221 191.187 204.681 193.199C205.163 195.331 205.537 197.485 205.951 199.627C206.36 201.73 206.757 203.833 207.296 206.645ZM43.2334 87.3036C41.6848 89.996 39.2909 91.9743 37.4984 94.5534C35.7115 97.1268 33.5049 99.4055 31.6953 101.962C29.9198 104.467 27.6054 106.627 26.2724 109.767C30.1127 111.853 33.7488 113.831 37.4247 115.827C42.0081 107.585 46.8979 99.7626 51.3622 91.7079C48.6053 90.2171 46.1718 88.8964 43.2334 87.3092V87.3036ZM80.6838 127.696C81.6254 121.79 81.892 104.099 81.1433 100.584C78.4204 100.137 75.7316 99.6946 72.8556 99.2241C72.0047 103.764 71.1311 108.152 70.3654 112.567C69.5882 117.062 68.2381 121.489 68.2098 126.245C72.5096 126.489 76.3159 128.365 80.6781 127.702L80.6838 127.696ZM-39.541 320.697C-40.2273 324.291 -40.5904 327.981 -40.2614 331.858C-32.1666 335.917 -23.7825 339.029 -15.302 342.123C-14.61 338.28 -13.9633 334.704 -13.3393 331.223C-22.1545 327.681 -30.8222 324.2 -39.541 320.697ZM-43.1884 57.6525C-43.6536 65.2311 -43.4948 67.7648 -42.4794 69.6751C-33.2217 65.866 -23.9697 62.0625 -14.7745 58.2817C-15.5856 55.8047 -14.8198 53.0782 -15.3474 50.1193C-17.2591 50.4197 -19.08 50.5558 -20.8158 51.0036C-28.3716 52.9422 -35.9843 54.6823 -43.1884 57.6525ZM181.344 119.437C179.546 115.367 169.426 104.507 162.034 98.5155C160.435 101.163 158.841 103.793 157.405 106.168C163.492 113.945 169.369 121.45 175.427 129.187C177.379 125.973 179.347 122.731 181.344 119.437ZM14.0593 338.66C5.06256 336.251 -3.41795 333.984 -12.0686 331.671C-12.4657 335.548 -14.2015 338.966 -13.5095 342.906C-5.71535 345.128 1.99937 347.321 9.95233 349.589C11.3705 345.819 12.6922 342.294 14.0593 338.66ZM63.5129 96.6677C60.1377 105.119 56.9554 113.474 54.0737 121.903C57.239 123.575 63.1441 125.236 66.5364 125.451C68.1814 116.671 69.8321 107.88 71.4999 98.986C68.8167 98.2094 66.2924 97.4726 63.5185 96.6677H63.5129ZM113.551 98.2264C117.873 107.143 122.054 115.753 126.286 124.482C128.43 123.819 130.33 123.349 132.134 122.634C133.722 122.005 135.203 121.104 136.973 120.197C132.083 111.326 126.484 103.203 120.432 95.2393C118.066 96.2709 115.865 97.2232 113.551 98.2321V98.2264ZM2.91266 90.3021C11.0244 84.7075 18.9888 79.2149 27.0382 73.6599C25.5519 71.7553 24.5195 69.386 22.5114 67.8895C13.9969 71.1602 -1.55734 79.2092 -4.25749 81.7146C-1.95442 84.7415 -0.0370941 88.0971 2.91266 90.3021ZM-5.4771 79.9744C3.80891 75.3547 12.7432 70.9051 21.7853 66.3988C20.8096 64.2391 19.9191 62.2552 18.915 60.0332C9.05038 62.8731 -0.717804 66.0587 -10.4066 70.1966C-8.68779 73.6032 -7.1335 76.6925 -5.48277 79.9744H-5.4771ZM-68.8058 66.9996C-60.7678 63.4569 -53.0077 60.0332 -44.8959 56.4565C-44.0393 52.7778 -43.1147 48.8213 -42.1957 44.8705C-50.2451 47.1038 -58.1073 49.6659 -65.5441 53.5657C-67.416 57.8226 -68.335 62.2609 -68.8115 66.9996H-68.8058ZM45.5421 343.654C43.3071 347.293 41.2877 350.586 39.0073 354.305C43.6475 354.554 47.8112 354.786 51.9805 355.002C53.2625 355.07 54.5502 355.07 55.8322 355.161C57.6758 355.291 59.5194 355.614 61.363 355.58C62.1968 355.563 63.1895 355.076 63.8192 354.492C66.7859 351.748 69.055 348.393 71.585 345.269C71.6587 345.173 71.4772 344.873 71.3467 344.453C69.6733 344.453 67.9318 344.453 66.1847 344.453C63.0137 344.442 59.7576 344.884 56.6944 344.3C52.9448 343.592 49.2463 344.022 45.5421 343.665V343.654ZM104.531 100.261C107.668 109.722 110.624 118.649 113.556 127.498C117.402 126.823 121.299 126.619 124.816 124.454C120.596 115.793 116.5 107.375 112.269 98.6856C109.58 99.2354 107.027 99.7569 104.531 100.267V100.261ZM3.37781 91.9856C5.08525 93.5217 6.37292 94.7291 7.70598 95.8741C9.12413 97.0871 10.5877 98.2435 12.0058 99.3998C15.5568 96.1689 19.0682 92.9152 22.6419 89.7353C26.2383 86.5327 29.8971 83.3981 32.9547 80.7283C31.1338 78.682 29.5171 76.8568 27.7756 74.8956C19.6581 80.1501 11.6541 85.6484 3.37781 91.9856ZM-43.1601 56.1844C-33.7095 52.6417 -24.3328 50.4368 -14.8879 48.4245C-14.3093 45.494 -13.7647 42.7222 -13.1464 39.5706C-22.3474 40.3528 -31.2363 41.9513 -39.9834 44.2016C-41.9008 47.8803 -42.6325 51.6781 -43.1601 56.1901V56.1844ZM-92.5569 100.018C-92.6931 95.2562 -92.8292 90.5005 -92.971 85.5861C-102.206 93.3233 -105.082 96.4749 -110.267 102.96V117.731C-104.333 111.796 -98.4848 105.947 -92.5569 100.018ZM-118.94 208.266C-122.349 201.679 -125.492 195.614 -128.691 189.43C-129.156 191.204 -129.746 193.035 -130.109 194.911C-130.66 197.734 -131.267 200.58 -131.46 203.436C-131.692 206.775 -132.072 210.176 -130.421 213.384C-127.931 218.214 -125.549 223.1 -122.973 228.252C-122.548 227.447 -122.208 227.079 -122.162 226.682C-121.51 220.946 -120.387 215.306 -118.957 209.717C-118.787 209.054 -118.934 208.317 -118.934 208.266H-118.94ZM183.471 118.258C188.406 125.242 193.472 132.418 198.605 139.685C200.188 135.241 202.06 130.904 202.332 126.364C197.46 119.466 192.587 112.998 186.67 107.591C185.661 110.963 184.64 114.364 183.471 118.258ZM206.547 236.658C201.89 241.136 197.539 245.325 193.296 249.407C192.774 253.329 192.36 257.059 191.764 260.76C191.146 264.581 190.352 268.378 189.507 272.845C193.477 269.132 197.062 266.032 200.319 262.619C201.686 261.185 202.798 259.434 203.138 257.172C203.75 253.097 204.987 249.117 205.725 245.059C206.212 242.349 206.28 239.566 206.547 236.664V236.658ZM-63.2127 319.218C-54.6527 324.818 -44.5045 330.158 -41.3902 330.713V319.87C-45.327 317.71 -49.1844 315.59 -53.0474 313.481C-56.8083 311.424 -60.5692 309.378 -64.8577 307.036C-64.2564 311.509 -63.7345 315.392 -63.2183 319.223L-63.2127 319.218ZM133.932 85.6541C132.333 87.3036 130.739 88.9417 129.275 90.4495C135.413 97.8127 141.664 105.306 148.125 113.055C150.712 111.343 153.066 109.087 155.159 106.65C153.264 103.385 139.605 89.9564 133.932 85.6541ZM-67.7621 54.4953C-69.1121 55.2265 -70.4339 55.8727 -71.6818 56.6266C-76.1405 59.319 -80.6275 61.9605 -84.9897 64.806C-87.0092 66.121 -88.6372 67.9179 -89.142 70.48C-89.5448 72.5036 -90.1744 74.4875 -90.5488 76.5167C-90.8722 78.2683 -90.9686 80.0595 -91.2296 82.4061C-84.4281 76.6981 -77.3204 72.4752 -70.6664 68.3317C-69.6681 63.5646 -68.7321 59.1093 -67.7621 54.5009V54.4953ZM-129.185 184.107C-128.549 182.894 -128.255 182.515 -128.147 182.089C-126.802 176.79 -124.471 171.847 -122.105 166.989C-120.999 164.71 -120.971 162.947 -121.708 160.754C-123.246 156.168 -124.879 151.594 -125.379 146.725C-125.418 146.334 -125.878 145.982 -126.246 145.466C-129.349 151.378 -131.482 157.466 -133.496 163.577C-133.978 165.039 -133.814 166.881 -133.434 168.429C-132.203 173.457 -130.739 178.422 -129.179 184.102L-129.185 184.107ZM86.2883 354.39C91.5525 350.762 95.2226 346.635 99.4373 342.39C97.5767 342.39 96.2834 342.265 95.0297 342.413C92.063 342.775 89.1189 343.399 86.1465 343.677C81.9828 344.062 77.8021 344.221 73.9958 344.453C70.8872 348.279 67.9659 351.879 64.8176 355.761C66.6328 355.501 68.2892 355.121 69.9626 355.042C75.5444 354.764 81.1263 354.588 86.2826 354.39H86.2883ZM121.923 94.4684C127.483 102.761 133.008 111.009 138.641 119.403C141.386 117.901 144.211 116.439 146.945 114.132C143.74 110.085 140.773 106.094 137.54 102.336C134.256 98.5269 131.34 94.355 127.602 91.1864C125.554 92.3711 123.767 93.4027 121.929 94.4684H121.923ZM169.256 288.002C167.514 294.243 165.268 300.603 161.705 307.167C167.452 304.469 171.961 301.283 176.409 297.99C177.515 297.168 178.978 296.425 179.506 295.286C182.263 289.374 185.02 283.439 186.699 277C180.981 280.605 175.348 284.153 169.256 287.997V288.002ZM165.398 88.1935C164.434 91.4074 163.589 94.2303 162.834 96.747C169.494 103.634 175.915 110.277 182.41 116.994C183.477 113.327 184.566 109.597 185.7 105.692C178.837 99.7739 172.171 94.0262 165.398 88.1935ZM-107.703 251.3C-110.159 248.211 -112.383 245.229 -114.805 242.417C-117.136 239.702 -118.753 236.409 -121.89 233.252C-121.544 239.646 -121.294 245.212 -120.897 250.767C-120.829 251.736 -120.262 252.751 -119.689 253.578C-117.386 256.911 -115.054 260.227 -112.604 263.447C-111.191 265.306 -109.524 266.973 -107.708 269.019V251.294L-107.703 251.3ZM-13.0784 59.6138C-12.7607 63.0261 -12.1821 65.985 -10.503 68.7511C-1.00711 64.9874 8.21652 61.4447 17.928 59.0129C18.4555 56.9043 17.27 55.0735 16.9977 52.8458C6.71895 54.1495 -3.08327 56.5245 -13.0784 59.6138ZM-40.182 42.9489C-30.618 40.0637 -21.4908 38.9527 -12.5168 38.0288C-10.849 34.9905 -9.2834 32.1337 -7.57028 29.0218C-12.2331 29.2995 -16.6861 29.2995 -21.054 29.9061C-25.4786 30.5182 -30.0507 30.5409 -34.3562 32.3264C-36.1488 35.5914 -37.9356 38.845 -40.182 42.9489ZM210.535 163.288C211.845 158.781 213.122 154.666 214.199 150.494C214.438 149.57 214.245 148.346 213.825 147.462C211.647 142.859 209.4 138.285 207.024 133.784C206.065 131.964 204.709 130.36 203.643 128.813C202.298 132.962 200.96 137.094 199.615 141.226C203.166 148.408 206.74 155.624 210.535 163.288ZM207.528 208.946C207.682 216.343 209.485 223.763 208.045 231.897C211.312 228.264 213.161 224.5 215.374 220.98C217.285 217.936 218.267 214.682 217.87 211.026C217.694 209.399 217.915 207.739 217.813 206.1C217.569 202.178 217.246 198.261 216.939 194.169C213.729 199.213 210.626 204.088 207.528 208.952V208.946ZM185.819 91.8326C179.432 86.7708 173.192 81.3292 165.727 77.0892V87.0145C171.513 91.8156 177.583 95.9705 182.631 101.344C183.533 102.308 184.413 103.368 185.819 103.543V91.8326ZM161.03 97.4215C153.718 90.4382 145.901 84.5771 137.597 79.1128C136.502 80.8814 135.6 82.3381 134.568 84.0103C138.306 87.4226 142.084 90.6819 145.641 94.1679C149.254 97.705 152.646 101.463 156.299 105.301C157.967 102.523 159.436 100.069 161.025 97.4272L161.03 97.4215ZM-86.2774 291.834C-86.9468 295.348 -85.3017 298.579 -84.7004 301.946C-84.3657 303.84 -83.1518 305.183 -81.5408 306.311C-78.1259 308.709 -74.8585 311.327 -71.4776 313.776C-69.3334 315.329 -67.2459 317.03 -64.7216 318.078C-65.2718 313.878 -65.7823 309.99 -66.2929 306.118C-72.8731 301.413 -79.5554 296.641 -86.2774 291.834ZM-112.037 105.301C-112.485 105.663 -112.819 105.839 -113.012 106.111C-116.614 111.213 -120.268 116.28 -123.739 121.467C-124.743 122.963 -125.73 124.8 -125.804 126.517C-125.991 130.887 -126.434 135.343 -125.055 139.265C-120.58 132.679 -115.973 125.905 -111.271 118.99C-112.524 114.789 -111.537 110.204 -112.031 105.301H-112.037ZM-5.67564 29.1011C-7.57596 31.7879 -9.18697 34.282 -10.2024 37.3202H18.6768C19.7375 35.308 20.6905 33.4998 21.791 31.4138C20.3502 31.3061 19.1816 31.3515 18.0698 31.1191C14.2011 30.3142 10.304 29.7927 6.34457 29.787C5.40292 29.787 4.38185 29.9967 3.53664 29.702C0.54718 28.6477 -2.48766 29.3392 -5.68132 29.1011H-5.67564ZM-110.545 99.8589L-109.796 100.29C-109.189 99.5755 -108.537 98.8953 -107.975 98.1414C-104.101 92.9719 -99.0747 89.0211 -94.1566 84.9399C-93.5099 84.4014 -93.0164 83.4718 -92.8236 82.6385C-92.3244 80.5129 -92.0578 78.3363 -91.6493 76.188C-91.1785 73.7336 -90.6566 71.2962 -90.1291 68.7228C-92.1201 70.3779 -94.0829 71.8234 -95.8357 73.5012C-99.1485 76.6698 -102.393 79.9121 -105.541 83.2451C-106.455 84.2143 -107.226 85.5181 -107.555 86.7991C-108.673 91.124 -109.569 95.5057 -110.545 99.8646V99.8589ZM16.5269 46.0211C6.71896 45.8171 -2.49899 47.9427 -11.8247 48.997C-12.4601 49.0707 -13.0387 49.6262 -13.5322 49.8983V58.0437C-8.44954 56.7966 -3.58812 55.5496 1.30165 54.4216C6.3389 53.2596 11.4102 52.2166 16.5269 51.1113V46.0268V46.0211ZM18.0755 39.0094C13.0439 38.7657 8.28459 38.3235 3.53096 38.3745C-1.23401 38.4199 -5.9933 38.9527 -10.7753 39.2758C-12.426 41.8832 -12.7267 42.9205 -13.2769 47.7783C-3.45766 46.5596 6.39563 45.3296 16.6346 44.0599C17.0147 42.7278 17.5025 41.016 18.0698 39.0151L18.0755 39.0094ZM123.563 336.58C121.027 337.266 119.076 337.867 117.09 338.309C112.932 339.233 108.774 340.213 104.571 340.882C102.557 341.205 101.003 341.999 99.8741 343.552C97.6562 346.607 95.0751 349.26 92.0006 351.448C91.3369 351.924 90.849 352.644 89.7826 353.789C93.2486 353.148 95.943 352.587 98.6659 352.156C103.38 351.414 107.895 350.053 112.138 347.865C113.159 347.338 114.175 346.698 115.003 345.904C117.55 343.467 120.012 340.939 122.479 338.422C122.831 338.065 123.013 337.543 123.574 336.574L123.563 336.58ZM202.951 124.709C202.911 119.409 204.312 114.937 202.684 110.43C198.441 104.467 193.375 99.105 187.737 94.0376C187.464 98.1244 187.215 101.917 186.96 105.754C193.001 111.213 197.874 117.601 202.951 124.709ZM164.127 75.9669C156.521 71.5343 148.88 67.334 140.382 64.2675V71.3359C148.471 75.6778 156.447 80.4166 164.127 86.0565V75.9669ZM217.495 189.719C219.078 184.788 220.502 180.604 221.738 176.37C222.045 175.333 221.937 174.08 221.699 172.992C220.967 169.636 220.212 166.275 219.225 162.987C218.113 159.28 217.524 155.375 215.442 152.047C213.989 156.514 212.537 160.981 211.04 165.583C213.706 173.065 216.27 180.791 217.495 189.719ZM138.261 77.5427C142.328 80.6206 146.253 83.5228 150.111 86.51C153.934 89.4745 157.695 92.5241 161.711 95.721C162.567 92.7905 163.305 90.2794 164.037 87.7684C156.345 82.0774 148.392 77.1346 139.838 72.5772C139.276 74.3514 138.794 75.8649 138.261 77.5427ZM92.2388 99.4905C90.452 90.3758 88.9487 81.4935 86.3904 72.9003C85.0744 72.9003 84.1384 72.8833 83.2024 72.9117C82.9925 72.9174 82.794 73.0647 82.2608 73.2858C82.7599 81.896 81.6595 90.6706 83.1797 99.4962H92.2388V99.4905ZM-39.9551 333.859C-39.5466 335.9 -39.2233 337.566 -38.8829 339.227C-38.4518 341.307 -37.3003 342.707 -35.2809 343.569C-30.4818 345.615 -25.7566 347.854 -20.9632 349.906C-19.426 350.564 -17.7469 350.892 -15.943 351.425V343.558C-23.7598 340.4 -31.571 337.243 -39.9551 333.853V333.859ZM67.7219 69.1196C66.0996 71.5456 64.4772 73.9206 62.9116 76.3297C61.2722 78.8521 59.5194 81.3292 58.1126 83.9763C56.7965 86.459 54.3233 88.3636 54.0737 91.6455C56.8419 92.7055 59.5023 93.7201 62.4578 94.8538C65.5663 86.7878 68.5785 78.9655 71.7041 70.8428C70.5072 70.3269 69.2819 69.7941 67.7219 69.1196ZM44.1013 86.1472C46.9603 87.7287 49.547 89.1571 52.3662 90.7159C56.5186 82.7689 62.0664 76.069 66.1733 68.4904C64.7155 67.7365 63.5129 67.113 62.0777 66.3704C59.7576 68.9835 57.4772 71.6193 55.1288 74.1927C51.5948 78.0699 48.021 81.9017 44.1013 86.1472ZM6.31053 357.825C7.3089 355.444 8.18816 353.347 9.18085 350.983C5.24408 349.107 1.1655 348.823 -2.60109 347.531C-6.43576 346.216 -10.3612 345.173 -14.3547 343.983V351.805C-11.1327 353.392 -7.66104 354.208 -4.22345 355.104C-0.780197 356 2.66873 356.889 6.30486 357.83L6.31053 357.825ZM102.415 98.5325C98.8361 89.8487 95.3418 81.3632 91.8191 72.8097C90.469 72.8833 89.2607 72.957 88.0808 73.0194C90.0435 82.0887 91.9325 90.8009 93.8442 99.6265C96.7088 99.2411 99.5451 100.38 102.415 98.5325ZM35.6378 355.359C27.248 353.942 18.9888 352.542 10.5196 351.108C10.5026 353.522 7.68896 355.325 8.32997 358.329C15.0917 359.298 21.6889 360.245 28.0649 361.158C31.406 360.081 33.4709 357.7 35.6378 355.353V355.359ZM43.0632 85.4047C49.1499 78.665 55.0607 72.1125 60.9999 65.5315C60.0583 64.8683 59.2357 64.2902 58.4359 63.7233C47.7715 70.4573 38.8995 77.3046 36.3469 80.8757C38.6102 82.4005 40.8679 83.9196 43.0689 85.4047H43.0632ZM165.449 75.0486C172.194 79.2545 178.859 84.0613 185.456 89.6219C185.105 87.4283 184.974 85.5747 184.492 83.8232C183.505 80.2465 182.382 76.6868 178.354 75.2357C178.15 75.162 178.014 74.9069 177.821 74.7822C173.289 71.829 168.785 68.8248 163.509 66.5462C164.15 69.3463 164.729 71.8914 165.449 75.0373V75.0486ZM214.801 146.062C215.113 144.163 215.578 142.388 215.669 140.597C215.933 135.295 214.799 130.205 212.265 125.327C210.824 122.561 209.185 119.896 207.551 117.244C206.802 116.036 205.838 114.959 204.726 113.497C204.511 117.964 204.323 121.892 204.119 126.239C207.857 132.299 211.783 138.84 214.806 146.062H214.801ZM-86.4135 302.082C-87.0489 297.978 -87.6218 294.249 -88.2798 290.02C-94.1282 285.44 -99.3697 279.488 -105.332 274.16C-104.35 278.179 -103.159 282.096 -101.951 286.007C-101.786 286.545 -101.622 287.152 -101.264 287.554C-99.1031 289.997 -96.9872 292.497 -94.6615 294.77C-92.1655 297.208 -89.4427 299.418 -86.4192 302.077L-86.4135 302.082ZM27.1005 25.8872C20.6905 24.5325 14.8988 23.2684 9.09576 22.0951C7.29189 21.7323 5.44829 21.5906 3.61604 21.3809C3.16225 21.3299 2.66873 21.3412 2.23195 21.4602C0.467773 21.9364 -2.79964 25.326 -3.61081 27.548C5.0966 28.6817 13.9231 28.4833 22.5909 30.4956C23.9693 29.0841 25.3194 27.7011 27.1005 25.8815V25.8872ZM202.832 107.778C202.871 107.557 203.03 107.211 202.968 106.899C202.4 103.974 201.856 101.044 201.181 98.1414C200.846 96.7017 200.574 95.0692 199.712 93.9582C197.721 91.3961 195.434 89.0494 193.16 86.7141C192.037 85.5577 190.692 84.6111 189.439 83.5795C187.986 82.3835 186.523 81.1931 184.798 79.7817C185.661 83.8346 186.415 87.4056 187.118 90.7159C192.445 96.4976 197.647 102.143 202.832 107.778ZM119.825 93.9922C113.273 85.7731 107.294 77.7921 100.311 70.6047C99.6132 70.8144 99.0403 70.9164 98.5411 71.1545C98.2631 71.2905 98.1043 71.659 97.9398 71.8574C102.597 79.8044 107.22 87.6834 111.838 95.5623C112.138 96.0725 112.462 96.5656 112.757 97.0418C115.309 95.9364 117.408 95.0352 119.819 93.9922H119.825ZM105.535 67.6458C108.122 69.9188 110.652 71.9764 112.989 74.2324C117.283 78.3816 121.458 82.6499 125.69 86.8671C126.399 87.5757 127.142 88.2502 127.908 88.9814C129.564 87.2299 131.295 85.8695 132.565 84.1123C124.414 77.2933 116.404 70.8938 107.668 65.6506C106.908 66.3648 106.398 66.8409 105.535 67.6458ZM54.658 60.226C45.8882 64.4432 37.6005 68.9155 29.9936 73.6712C31.718 75.4568 33.4085 77.2083 35.0989 78.9541C42.2747 73.5919 49.5583 68.1446 56.5299 62.9241C55.7868 61.8528 55.1855 60.9855 54.6523 60.226H54.658ZM9.52121 14.4542C8.55687 14.1254 7.81944 13.723 7.0423 13.6323C3.11119 13.1731 -0.81424 12.6006 -4.79071 12.8217C-5.48845 12.8614 -6.19751 12.8274 -6.88957 12.731C-8.38145 12.5156 -11.5695 12.7764 -12.8061 13.5246C-15.9373 15.4178 -19.0005 17.4244 -22.7898 19.8278C-20.43 19.8278 -18.9211 19.8788 -17.4122 19.8051C-16.7372 19.7711 -16.0735 19.3403 -15.4098 19.3403C-12.0346 19.3516 -8.6424 19.2666 -5.28423 19.5557C-1.65944 19.8731 1.84621 20.576 4.80162 17.4301C5.94749 16.2114 7.70598 15.5652 9.52121 14.4542ZM80.8086 73.0761C79.6457 72.753 78.6927 72.4866 77.7057 72.2088C77.1214 75.1904 76.5314 77.9962 76.0266 80.8133C75.499 83.7609 74.9091 86.7084 74.6255 89.6786C74.3645 92.4731 72.884 95.1202 73.4229 98.1811C76.2421 97.6596 78.7211 99.6492 81.546 98.5552C81.546 97.5633 81.5687 96.6337 81.546 95.7097C81.3078 88.2502 81.0638 80.785 80.8142 73.0704L80.8086 73.0761ZM93.1521 72.5433C96.8904 81.5729 100.458 90.1831 104.123 99.0314C106.415 98.4589 108.746 97.875 111.208 97.2628C106.46 88.596 101.559 80.2068 96.1132 72.0161C95.0808 72.2031 94.2016 72.3562 93.1465 72.5433H93.1521ZM-134.891 168.803C-135.43 170.968 -136.071 172.833 -136.327 174.749C-136.741 177.844 -137.019 180.973 -137.121 184.096C-137.177 185.802 -136.508 187.537 -136.588 189.243C-136.843 194.849 -135.362 200.052 -133.309 205.313C-132.101 198.93 -130.926 192.729 -129.746 186.533C-131.42 180.774 -133.11 174.93 -134.886 168.809L-134.891 168.803ZM139.838 62.3176C142.589 63.5703 145.215 64.7606 147.836 65.9623C150.462 67.164 153.06 68.4337 155.709 69.573C158.285 70.6784 160.367 72.8267 163.617 73.5182C163.186 70.4006 162.63 67.7535 161.104 65.2821C154.79 62.0455 148 59.8065 141.25 57.4995C140.564 57.2671 139.724 57.4655 138.947 57.4655C139.253 59.1263 139.52 60.5831 139.838 62.3176ZM71.5509 97.5519C72.0728 95.3413 72.6514 93.2667 73.0315 91.1524C73.4229 88.9984 73.5533 86.7991 73.9164 84.6395C74.2738 82.4968 74.8354 80.3882 75.2041 78.2456C75.5785 76.1143 75.828 73.966 76.1344 71.8347C74.9375 71.71 74.1093 71.625 73.0315 71.5173C69.7867 79.2716 66.9675 87.1392 63.944 95.2449C66.4569 96.0101 68.8564 96.7357 71.5509 97.5519ZM28.513 72.9287C31.2869 71.2792 33.8169 69.6467 36.4603 68.224C41.7755 65.3671 47.1531 62.6237 52.5024 59.8235C52.8087 59.6648 53.0696 59.4097 53.3192 59.2227C52.6612 58.3157 52.1167 57.5732 51.5721 56.825C29.1994 64.5339 26.9701 65.4352 24.4004 67.8499C25.6881 69.4427 26.9928 71.0468 28.513 72.923V72.9287ZM33.3234 21.1768C25.9093 18.3427 19.0058 15.8316 11.9945 14.8113C8.87454 16.3757 6.20276 17.8608 3.50829 20.3209C12.2384 20.8764 20.129 22.9113 28.2067 24.8499C29.7213 23.7616 31.2926 22.6336 33.3234 21.1768ZM23.2943 66.0077C24.5195 65.5372 25.2626 65.2594 26.0057 64.9647C30.1921 63.3209 34.3671 61.6487 38.5705 60.0389C42.3371 58.5991 46.1377 57.2388 49.9157 55.816C50.1653 55.7196 50.3241 55.3682 50.6077 55.0338C50.1426 54.5406 49.7512 54.1325 49.1272 53.4693C45.9562 54.0305 42.6548 54.5633 39.376 55.2152C36.2221 55.8443 33.0851 56.5699 29.9482 57.2954C26.7205 58.0437 23.4985 58.8372 19.9985 59.6761C21.1443 61.8811 22.1427 63.8027 23.2886 66.0077H23.2943ZM-132.163 213.526C-132.078 219.472 -131.834 225.503 -129.911 231.319C-127.982 237.146 -126.53 243.194 -122.644 248.233C-122.718 245.427 -122.083 242.644 -123.041 239.889C-123.336 239.056 -123.161 238.019 -123.058 237.089C-122.843 235.151 -122.525 233.218 -122.253 231.285C-122.457 231.319 -122.656 231.347 -122.86 231.381C-125.963 225.424 -129.066 219.466 -132.163 213.52V213.526ZM121.129 93.295C122.876 92.3201 124.703 91.4131 126.252 89.809C125.86 89.3102 125.616 88.9191 125.304 88.6073C120.227 83.5398 115.184 78.444 110.039 73.4502C108.219 71.6873 106.154 70.1739 104.168 68.5244C103.408 69.0005 102.756 69.403 102.052 69.8451C108.389 77.6391 114.617 85.2913 121.135 93.3007L121.129 93.295ZM138.658 63.6213C137.71 63.1678 136.82 62.6237 135.855 62.3006C131.499 60.8325 127.137 59.3814 122.752 58.0096C119.575 57.0177 116.359 56.1334 113.148 55.2548C112.637 55.1131 112.053 55.2378 111.418 55.2378V58.072C116.007 59.9936 120.624 61.7904 125.111 63.8537C129.553 65.8943 133.927 68.0653 138.658 70.0775V63.6326V63.6213ZM160.826 63.2755C159.476 60.5831 158.37 58.1457 157.048 55.8387C156.572 55.0111 155.675 54.1438 154.796 53.8774C150.502 52.5851 146.196 51.2303 141.795 50.4424C139.803 50.0853 137.716 48.8553 135.475 49.8302C136.315 51.5251 137.086 53.0839 137.903 54.7333C145.419 57.5335 152.958 60.3393 160.832 63.2699L160.826 63.2755ZM-39.921 341.092C-40.511 338.003 -41.0158 335.333 -41.4867 332.867C-48.4413 329.183 -55.2484 325.578 -62.3788 321.797C-61.2273 324.144 -60.2629 326.116 -59.2816 328.089C-58.4874 329.687 -57.3812 330.911 -55.7759 331.852C-52.0717 334.023 -48.5207 336.455 -44.8505 338.683C-43.3983 339.561 -41.7987 340.185 -39.921 341.092ZM19.6184 58.2307C29.483 56.0654 39.1208 53.9568 48.7812 51.8368C48.577 51.2246 48.3047 50.3914 48.0437 49.5978C41.1629 49.3088 27.1516 50.7315 18.1889 52.7098C18.6711 54.5633 19.1533 56.4168 19.6184 58.2307ZM50.0802 38.2725C41.0608 35.2626 32.2796 33.2844 23.1638 31.8049C22.1654 33.7435 21.2578 35.5007 20.3161 37.3372C30.0163 38.5163 39.376 39.6499 48.8322 40.8006C49.1442 40.1657 49.4959 39.4572 50.0802 38.2782V38.2725ZM148.755 44.2923C141.273 41.8719 133.711 41.1067 130.37 42.4387C131.731 44.3093 133.087 46.1628 134.358 47.9087C141.188 48.4188 147.546 50.5161 154.025 52.1939C153.48 48.7759 150.264 47.2455 148.76 44.2923H148.755ZM108.57 63.9444C116.847 70.1796 125.066 76.375 133.382 82.6385C134.84 81.6579 135.685 80.2238 136.026 78.444C135.793 78.1095 135.662 77.7411 135.396 77.5597C127.284 71.9877 118.752 67.113 109.943 62.4763C109.529 62.9184 109.052 63.4286 108.57 63.9444ZM152.618 322.381C159.669 320.414 174.769 306.708 176.369 300.093C171.082 303.352 165.756 306.628 160.69 309.752C157.91 314.105 155.256 318.254 152.618 322.386V322.381ZM31.3947 361.328C32.5179 361.328 33.3177 361.328 34.1232 361.328C40 361.328 45.8768 361.243 51.7479 361.373C55.4805 361.458 57.914 359.298 61.0623 356.821C58.7592 356.68 57.1312 356.521 55.5032 356.487C52.3322 356.419 49.0932 356.81 46.0073 356.283C43.1994 355.801 40.4481 355.852 37.7253 355.722C35.6775 357.536 33.6921 359.299 31.3947 361.333V361.328ZM14.394 13.9157C21.8818 15.4915 28.6208 17.7872 35.1386 20.5363C37.0219 19.55 38.8088 18.6204 41.2083 17.362C35.4393 14.8793 30.3623 12.646 25.2399 10.526C24.321 10.1462 23.09 9.87984 22.2108 10.1803C19.6071 11.0532 16.9807 11.9771 14.3883 13.9157H14.394ZM-134.165 160.572C-131.567 154.422 -128.964 148.272 -126.428 142.269C-126.825 137.74 -127.222 133.262 -127.682 128.002C-128.68 130.219 -129.741 131.607 -130.24 133.427C-131.596 138.415 -132.866 143.403 -133.746 148.505C-134.449 152.569 -135.833 156.554 -134.165 160.567V160.572ZM47.6637 46.1572C45.7917 45.8737 44.107 45.4089 42.4109 45.3919C35.2634 45.3069 28.1103 45.3466 20.9628 45.3749C20.0892 45.3749 19.21 45.6017 18.291 45.7264V50.7939C28.218 49.7452 37.9352 48.7136 47.6637 47.6819V46.1572ZM49.6661 15.3214C46.4214 12.1982 40.9927 8.66681 36.1937 6.54119C32.8582 7.31775 29.483 8.10565 25.7618 8.9729C31.7975 11.7787 37.4473 14.4032 43.0972 17.0219C45.2131 16.4721 47.3233 15.9279 49.6718 15.3214H49.6661ZM17.8486 44.3376C28.167 43.5554 37.8841 43.6631 47.4651 44.536C47.8112 43.6574 48.0097 43.1473 48.3841 42.1837C38.7294 40.914 29.3242 39.4175 19.6865 38.9244C19.0568 40.7722 18.5123 42.3821 17.8486 44.3376ZM-9.14726 11.3706C-7.01437 11.3706 -5.72668 11.3026 -4.44469 11.3819C-0.729141 11.6087 3.06013 11.535 6.67924 12.2662C9.8956 12.9181 12.7716 13.1505 15.6873 11.4216C17.0941 10.5884 18.6938 10.0896 20.2084 9.43771C17.2132 8.29837 14.3202 7.67485 11.3988 7.26107C8.87454 6.90396 6.27081 7.55015 3.75786 6.62621C3.19061 6.41648 2.40779 6.79059 1.72708 6.90396C-1.9998 7.51614 -5.25586 9.27899 -9.14159 11.3649L-9.14726 11.3706ZM219.293 211.338C219.435 211.429 219.577 211.519 219.724 211.61C220.031 210.868 220.348 210.131 220.643 209.388C222.453 204.825 223.049 199.979 223.378 195.166C223.752 189.73 223.843 184.232 222.555 179.25C221.313 182.611 220.07 186.329 218.545 189.929C217.96 191.312 217.779 192.638 217.983 194.01C218.703 198.834 219.327 203.663 219.293 208.549C219.288 209.479 219.293 210.408 219.293 211.338ZM136.752 32.9726C133.734 30.762 131.039 28.7724 128.333 26.7998C126.745 25.6378 125.055 25.1163 123.115 25.9552C122.598 26.1763 121.963 26.1083 121.436 26.3123C119.325 27.1286 116.915 27.0946 114.969 28.4663C117.317 30.3255 119.552 32.094 121.844 33.9079C126.603 33.6075 131.465 33.3014 136.746 32.9726H136.752ZM138.062 71.8177C129.281 66.9883 120.205 63.0771 110.822 59.4041C110.703 60.0446 110.618 60.481 110.539 60.9005C119.445 66.189 128.282 71.4379 137.154 76.7038C137.432 75.7289 137.79 74.6405 138.034 73.5239C138.153 72.9797 138.056 72.3845 138.056 71.8177H138.062ZM174.157 60.8551C172.551 58.6105 171.23 56.7229 169.862 54.8751C169.108 53.8491 168.461 52.585 167.446 51.9445C162.363 48.7533 156.918 46.3385 150.825 44.57C153.004 47.5686 154.955 50.2667 156.742 52.7268C162.516 55.4249 168.07 58.0153 174.157 60.8551ZM39.1264 6.04804C43.6985 9.2053 47.8849 12.0905 51.9465 14.8906C54.5786 14.5562 57.0291 14.2501 59.9675 13.876C56.9894 10.7074 54.3006 7.8449 51.5834 4.95972C47.4595 5.3225 43.5284 5.6626 39.1264 6.04804ZM102.262 39.1568C108.213 37.5356 114.197 35.9088 120.086 34.3103C117.703 32.5815 115.599 30.1668 112.24 29.0105C107.81 31.3515 103.221 33.7775 98.6035 36.2149C99.8458 37.2125 100.838 38.0118 102.262 39.1568ZM106.505 43.4137C107.373 44.4907 108.094 45.3863 108.462 45.8397C114.969 46.1458 120.8 46.4179 126.626 46.707C127.086 46.7297 127.534 46.86 127.987 46.9281C129.343 47.1264 130.699 47.3135 132.758 47.6083C130.801 45.2105 129.309 43.3853 128.038 41.8322C120.528 41.5601 113.568 41.8662 106.5 43.4194L106.505 43.4137ZM52.6442 35.0642C44.7706 31.7426 37.0332 28.5967 28.6038 26.5617C27.4239 27.6331 26.0341 28.8858 24.5082 30.2688C33.3801 32.4511 42.0478 34.5824 50.8573 36.7534C51.3508 36.2886 51.9351 35.7331 52.6442 35.0642ZM137.858 61.3426C138.555 59.183 137.234 57.6412 136.23 56.0201C127.806 53.9454 119.354 52.1543 110.397 51.1793C110.924 52.2336 111.27 52.9365 111.389 53.1746C120.454 55.969 129.099 58.6388 137.858 61.3426ZM54.2382 5.41319C56.8646 8.36072 59.4683 11.2799 61.6579 13.74C63.7398 13.6776 65.3168 13.3035 66.6895 13.6719C68.3062 14.1084 69.8208 14.2501 71.5679 14.0857C70.8532 12.6006 70.2576 11.2346 69.5485 9.93652C68.777 8.53077 67.9035 7.18738 67.1376 5.92334C63.8249 5.03341 58.4643 4.83502 54.2439 5.41319H54.2382ZM145.652 41.5431C143.406 39.2361 141.278 37.0652 139.089 34.8148C134.097 34.0893 129.116 34.5201 123.926 35.444C125.684 37.1502 127.182 38.6069 128.56 39.9447C134.239 40.4775 139.877 41.0047 145.652 41.5488V41.5431ZM133.564 48.9687C125.367 48.1297 117.414 47.0641 109.285 47.5629C110.442 49.5525 110.924 49.9833 112.359 50.159C114.543 50.4311 116.744 50.5728 118.911 50.9356C122.088 51.4741 125.242 52.1373 128.39 52.8004C130.824 53.3106 133.24 53.9114 136.281 54.6143C135.226 52.415 134.443 50.7882 133.569 48.9687H133.564ZM62.7641 15.004C65.9237 19.8901 68.6579 24.1244 71.3183 28.2396C72.9464 28.3699 74.3872 28.4833 76.123 28.6193C74.9545 24.2037 73.9334 19.8844 72.2997 16.115C69.2592 14.5335 66.3605 15.14 62.7641 15.004ZM222.396 170.22C223.19 168.259 223.792 166.677 222.867 164.926C222.623 164.461 222.839 163.769 222.788 163.186C222.544 160.533 222.425 157.857 221.982 155.239C221.171 150.483 220.229 145.744 219.197 141.028C218.862 139.509 218.72 137.808 217.359 136.544C216.928 140.592 216.508 144.486 216.043 148.856C218.516 155.352 220.904 162.426 222.402 170.22H222.396ZM73.1109 14.0574C76.2932 14.5675 79.4358 15.0777 82.7826 15.6162V8.23602C80.5533 7.68619 78.3637 7.01166 76.1287 6.63755C73.8427 6.25777 71.4999 6.17275 69.0039 5.94034C70.4561 8.80852 71.7608 11.3876 73.1166 14.0631L73.1109 14.0574ZM35.2407 21.8287C33.5503 22.883 31.8996 23.909 29.9652 25.1106C38.2245 28.1489 46.1661 31.0681 54.2155 34.0269C54.675 33.5451 55.1174 33.0803 55.7017 32.4681C49.0535 28.2792 42.0989 25.3544 35.2407 21.8287ZM5.65819 5.30549C11.3648 5.41319 16.7254 6.83027 22.1143 8.11132C22.6362 8.23602 23.2262 8.34939 23.7197 8.23035C27.1686 7.38577 30.6062 6.47884 34.7188 5.41886C31.8882 4.47791 29.6646 3.67868 27.4012 3.01549C26.1986 2.65838 24.9109 2.30694 23.68 2.35229C21.2578 2.44865 18.8299 2.70373 16.4418 3.11752C12.8283 3.7467 9.24893 4.56861 5.65251 5.30549H5.65819ZM111.129 17.2883C106.789 15.5992 102.506 13.9327 98.1724 12.2492C96.862 14.4202 95.6197 16.4834 94.281 18.7054C97.5768 20.0148 100.742 21.2732 103.68 22.4409C106.25 20.661 108.627 19.0172 111.123 17.2883H111.129ZM123.756 24.3227C121.067 22.1064 117.709 20.814 114.589 19.0852C112.972 18.1896 111.656 18.473 110.357 19.3176C108.576 20.4796 106.908 21.8173 105.184 23.0814C108.02 24.6402 110.748 26.1423 112.921 27.3383C116.869 26.2386 120.29 25.2864 123.756 24.3227ZM102.001 23.0417C99.1651 22.0157 96.4195 21.0238 93.6003 20.0091C91.8077 23.96 90.157 27.6047 88.4666 31.3345C90.0833 31.9807 91.422 32.5192 92.2105 32.8309C95.58 29.4639 98.6942 26.352 102.001 23.0417ZM59.525 30.847C56.6263 27.5764 47.5445 21.1541 42.3314 18.6941C40.658 19.397 38.9619 20.1055 36.8744 20.9784C43.9198 24.6345 50.6361 28.1149 57.3751 31.6122C58.0388 31.3742 58.7819 31.1134 59.525 30.847ZM141.244 34.5994C143.746 37.1615 145.873 39.1228 147.711 41.3277C148.522 42.3027 149.367 42.7902 150.491 43.1586C153.111 44.0145 155.709 44.9441 158.296 45.8908C160.174 46.5766 162.023 47.3475 164.598 48.3565C163.719 47.3985 163.435 47.0131 163.084 46.7183C160.418 44.4737 157.576 42.4161 155.097 39.9843C151.376 36.3226 146.656 35.6594 141.244 34.5994ZM92.9763 18.2236C94.1732 16.1433 95.3701 14.0687 96.6294 11.8751C92.3409 10.4127 88.3077 9.21097 84.0873 8.55345C83.9909 11.1552 83.3839 13.5076 84.1327 15.8713C87.0201 16.6365 89.7883 17.3734 92.9763 18.2236ZM111.174 27.8768C108.684 26.5334 106.364 25.2807 104.106 24.062C100.305 26.9302 96.8393 29.7757 94.264 33.9249C95.5516 34.5484 96.6578 35.0869 97.3498 35.4213C102.172 32.7912 106.528 30.4105 111.174 27.8711V27.8768ZM73.8427 15.6219C75.2551 20.3492 76.5315 24.6232 77.7964 28.8574C79.277 29.0785 80.6951 29.2882 82.1473 29.5036V16.8122C79.4358 16.4211 76.8548 16.0526 73.8427 15.6219ZM69.7017 28.8517C67.3986 23.8863 64.2049 19.8448 61.2325 15.6389C58.5891 15.8259 55.9797 15.3101 53.4043 16.1263C57.8573 20.525 62.0834 24.7025 66.2868 28.8517H69.7017ZM51.0048 16.3757C48.7812 16.9936 46.9262 17.5094 44.9408 18.0649C50.4829 21.9817 55.8719 25.7908 61.5445 29.804C62.2592 29.736 63.3257 29.6396 64.7438 29.5093C59.9391 24.8442 55.9456 19.9638 51.0048 16.3757ZM83.4804 29.8494C84.5809 30.0818 85.7778 30.3312 87.1902 30.6259C88.9204 26.8338 90.5427 23.2854 92.1708 19.7257C86.9747 17.6965 86.7705 17.6625 83.8548 18.2066C83.6108 21.8967 83.9625 25.6435 83.4804 29.8494ZM202.633 97.7333C203.359 101.888 204.08 106.049 204.851 110.47C208.067 115.691 211.471 121.206 214.874 126.727C211.828 116.632 208.096 106.82 202.633 97.7333ZM104.066 40.5285C105.745 42.4274 107.549 41.8606 109.024 41.5942C113.619 40.7722 118.208 40.1997 122.882 40.2848C123.881 40.3018 124.885 40.2054 125.9 40.1601C125.151 37.598 122.746 37.0141 121.419 35.495C118.395 36.2206 115.599 36.8894 112.802 37.5696C109.909 38.2725 107.067 39.1398 104.072 40.5285H104.066ZM28.7343 1.76845C30.7991 2.6017 32.6086 3.32157 34.4068 4.05846C35.1556 4.36455 35.9271 5.04475 36.6191 4.96539C40.4992 4.51192 44.4416 4.6423 48.265 3.71269C48.5089 3.65034 48.7188 3.44628 49.1102 3.20254C48.594 2.75474 48.282 2.35796 47.8792 2.16524C46.8525 1.67776 45.7804 1.28664 45.0146 0.980554C39.5349 2.10855 34.265 1.19028 28.7343 1.77412V1.76845ZM76.4464 54.0702C76.2875 53.9171 76.1344 53.7584 75.9755 53.6054C71.7438 57.4768 67.5064 61.3483 63.1555 65.3218C64.6133 66.0587 65.7365 66.6312 67.1604 67.3511C70.2803 62.8844 73.3661 58.4744 76.4464 54.0645V54.0702ZM82.5954 71.1715C83.5201 71.2565 84.3766 72.8097 85.9763 71.4266C85.2502 66.2401 83.4123 61.2123 81.8637 56.0824C81.6822 58.5255 81.5687 60.9572 81.7162 63.3776C81.8693 65.8943 82.2721 68.3997 82.5954 71.1715ZM77.3143 56.2581C77.1611 56.1618 77.0079 56.0654 76.8548 55.969C75.4763 57.8736 73.8824 59.6591 72.7762 61.7111C71.5906 63.899 69.4577 65.5315 68.7827 68.1956C70.0307 68.5811 71.0744 68.8985 72.243 69.2613C73.9901 64.7833 75.6522 60.5207 77.3143 56.2638V56.2581ZM93.2032 52.0862C96.5046 53.1065 99.8117 54.0872 103.096 55.1585C104.962 55.7707 106.766 56.5472 108.621 57.2047C108.894 57.3011 109.268 57.1311 109.705 57.063V54.654C104.435 53.0555 98.9098 52.2223 93.2032 52.0806V52.0862ZM58.5834 61.9718C60.2341 60.7815 61.6125 59.7045 63.0761 58.7579C64.5339 57.8113 66.23 57.1764 67.5291 56.0541C68.7317 55.0168 70.6887 54.9771 71.6077 52.9818C70.0817 53.5883 68.9018 54.0305 67.739 54.518C64.1198 56.0484 60.5007 57.5845 56.9043 59.166C56.5753 59.3134 56.4108 59.8405 56.1725 60.1976C57.0858 60.8665 57.8289 61.4106 58.5891 61.9661L58.5834 61.9718ZM114.214 17.4017C117.601 19.1362 120.948 20.5476 123.949 22.5032C125.979 23.8239 127.857 24.3851 130.591 23.7786C125.69 20.8764 120.806 18.7848 116.16 16.3927C115.513 16.7272 114.997 16.9936 114.22 17.4017H114.214ZM72.2316 29.9854C74.3645 34.231 76.3556 38.2102 78.3523 42.1893C78.0517 38.0118 77.7794 33.9022 76.0323 29.9854H72.2316ZM66.5534 49.3484C66.5023 49.1954 66.4456 49.048 66.3945 48.895C61.9359 48.895 57.4829 48.9176 53.0243 48.8836C51.8047 48.8723 50.8006 49.2407 49.9157 50.0967C50.256 51.9955 51.7706 51.7688 52.9335 51.5421C56.6944 50.8165 60.4554 50.1987 64.3014 50.1193C65.0558 50.1023 65.8046 49.6205 66.5534 49.3484ZM80.6554 43.9295C81.2851 39.3212 82.0565 35.0302 81.3758 30.4842C80.1619 30.5579 79.1749 30.6259 78.1141 30.6883C78.9707 35.1663 79.7818 39.3892 80.6554 43.9295ZM105.138 43.7311C99.9082 44.3603 95.0978 45.6754 90.3045 47.0811C92.9366 47.0244 95.5516 46.8147 98.1724 46.6673C100.861 46.5199 103.556 46.4292 106.42 46.3045C105.995 45.4486 105.643 44.7457 105.138 43.7311ZM65.0672 4.01878C60.6142 1.19028 55.5315 1.63241 50.534 1.58707C50.3808 1.58707 50.222 1.80813 49.9554 2.01219C50.5794 2.57336 51.175 3.11185 51.7026 3.58232C56.1896 3.91675 60.6085 3.08351 65.0728 4.02445L65.0672 4.01878ZM88.6538 57.8736C88.5119 58.0153 88.3701 58.1514 88.2283 58.2931C91.0533 62.2439 93.8839 66.1947 96.6861 70.1172C97.6675 69.9188 98.3425 69.7884 99.0119 69.6354C99.0686 69.6241 99.0913 69.4427 99.2218 69.0969C95.7502 65.4125 92.2048 61.643 88.6538 57.8736ZM49.2009 47.954C53.3589 47.767 57.1709 47.5402 60.9829 47.4325C64.7041 47.3305 68.397 48.7306 72.1522 47.6593C68.3573 47.2568 64.5453 46.7297 60.7446 46.809C56.9327 46.8884 53.2115 45.3466 49.2747 46.2592C49.252 46.7693 49.2293 47.2115 49.1953 47.954H49.2009ZM79.7478 58.8882C79.6854 62.9864 77.9099 66.8636 78.1425 71.1772H80.7972C80.9164 66.9939 81.0638 62.9071 79.7478 58.8882ZM82.3459 42.2177C82.4536 42.229 82.5671 42.246 82.6749 42.2574C83.9455 38.947 85.2162 35.6367 86.5322 32.2017C85.3864 31.8786 84.3596 31.5895 83.2988 31.2891C82.9642 35.1266 82.6522 38.6693 82.3459 42.212V42.2177ZM72.8329 40.1261C72.9634 39.9957 73.0939 39.8653 73.2243 39.7349C70.6887 36.6514 68.1587 33.5678 65.5153 30.3482C64.7495 30.6713 64.0518 30.966 63.1101 31.3685C66.5023 34.4237 69.6676 37.2749 72.8329 40.1204V40.1261ZM82.7883 6.30879C78.9423 4.26819 74.6255 4.41556 70.6376 3.1912C69.5088 2.84544 68.2211 3.02115 66.7462 2.94746C67.1376 3.5143 67.2454 3.84306 67.4043 3.8714C72.1182 4.74999 76.8321 5.60591 81.5517 6.43916C81.9431 6.50718 82.3742 6.3598 82.7883 6.30879ZM113.84 16.132C109.075 13.961 104.696 11.3536 99.5792 10.8718C103.59 12.8217 107.68 14.5505 111.781 16.251C112.087 16.3814 112.479 16.3531 112.825 16.3304C113.165 16.3077 113.5 16.2 113.834 16.1263L113.84 16.132ZM52.491 55.2435C56.0648 54.1155 59.5307 53.0215 63.6547 51.7235C58.9918 51.4967 55.1685 52.432 50.8914 53.407C51.6118 54.2345 52.0372 54.722 52.491 55.2492V55.2435ZM96.6578 50.5501C100.969 51.3607 105.28 52.1656 109.812 53.0158C108.877 51.0716 108.877 51.0489 107.992 50.9582C107.073 50.8619 106.097 50.9809 105.229 50.7258C102.37 49.8926 99.5168 50.3404 96.6578 50.5501ZM94.5703 48.4245C94.5646 48.5322 94.5589 48.6342 94.5533 48.7419C96.828 48.7646 99.114 48.946 101.377 48.7703C103.703 48.5945 105.972 50.4197 108.349 49.048C108.088 47.5119 107.061 47.3929 105.961 47.4836C102.166 47.784 98.3709 48.1127 94.5759 48.4245H94.5703ZM60.6255 45.443C57.1142 44.0712 53.3079 43.0396 49.1669 42.5975C49.2747 43.4364 49.3371 43.9578 49.3995 44.468C53.2852 44.8024 56.9554 45.1255 60.6255 45.443ZM97.6788 10.2313C93.3563 7.96394 88.6424 7.10802 83.9398 6.18408C88.268 8.37773 93.1124 8.87654 97.6788 10.2313ZM93.2996 44.2016L93.3507 44.7061C96.6521 43.8842 99.9536 43.0623 103.391 42.2063C102.506 40.9706 101.712 40.9706 100.708 41.3731C98.2574 42.365 95.7672 43.2663 93.2939 44.2016H93.2996ZM-134.727 205.233C-135.124 208.186 -134.443 212.035 -133.417 213.141C-132.31 210.323 -134.33 208.13 -134.727 205.233ZM218.879 222.72C219.424 219.858 220.689 217.097 220.388 214.093C219.152 216.836 218.471 219.676 218.879 222.72ZM-136.667 168.253C-136.31 166.728 -134.613 165.215 -135.646 162.896C-136.043 164.988 -136.355 166.621 -136.667 168.253ZM85.5055 356.493C87.6043 356.068 89.0962 355.761 91.2291 355.325C88.9431 354.809 87.4342 355.008 85.5055 356.493ZM-133.229 214.121C-133.371 214.138 -133.519 214.155 -133.66 214.172C-133.592 214.671 -133.53 215.17 -133.462 215.669C-133.337 215.652 -133.207 215.64 -133.082 215.623C-133.127 215.119 -133.178 214.62 -133.224 214.116L-133.229 214.121ZM96.8563 54.5633C96.8223 54.7107 96.7883 54.8581 96.7542 55.0054C97.0378 54.9601 97.3158 54.9091 97.5994 54.8637C97.3498 54.7617 97.1059 54.6653 96.8563 54.5633ZM91.9552 51.3777C91.9552 51.304 91.9552 51.2247 91.9552 51.151H91.0589C91.0589 51.2247 91.0589 51.304 91.0589 51.3777H91.9552ZM220.933 213.005C220.995 213.005 221.052 213.005 221.114 212.999V212.092C221.029 212.092 220.944 212.103 220.859 212.103C220.882 212.404 220.91 212.704 220.933 213.005ZM77.8872 54.841L77.683 54.688L77.6546 54.9487L77.8872 54.8354V54.841ZM72.5947 52.6927L72.8499 52.8345L72.8726 52.6021L72.5947 52.6927ZM-127.704 125.168L-127.835 125.417L-127.614 125.44L-127.704 125.174V125.168ZM64.5226 51.3153C64.4602 51.2587 64.3978 51.151 64.3354 51.151C64.2617 51.151 64.1879 51.236 64.1142 51.2813C64.1766 51.3437 64.239 51.4457 64.3127 51.4514C64.3808 51.4571 64.4545 51.3664 64.5283 51.3153H64.5226ZM-6.4698 8.23602L-6.23155 8.36639L-6.20886 8.15099L-6.47548 8.23035L-6.4698 8.23602ZM70.6433 45.7944L70.7965 45.596L70.5298 45.5677L70.6433 45.7944ZM69.4521 43.5384L69.2025 43.4024L69.1798 43.6291L69.4521 43.5384ZM87.5873 57.1311L87.7235 56.8987L87.4909 56.876L87.5873 57.1311ZM92.5338 354.82C92.6132 354.775 92.687 354.724 92.7664 354.679C92.6983 354.616 92.6359 354.514 92.5622 354.509C92.4941 354.503 92.4147 354.594 92.3409 354.645C92.409 354.707 92.4714 354.764 92.5395 354.826L92.5338 354.82Z" fill="#02ABE7"/>
</g>
<defs>
<clipPath id="clip0_597_3152">
<rect width="363" height="363" fill="white" transform="translate(-138)"/>
</clipPath>
</defs>
</svg>
