<svg width="311" height="422" viewBox="0 0 311 422" fill="none" xmlns="http://www.w3.org/2000/svg">
<g clip-path="url(#clip0_597_3159)">
<path d="M300.861 272.644C300.316 271.393 299.56 270.091 298.942 269.102C297.758 267.742 296.377 266.324 294.967 265.211C292.016 262.891 286.572 261.291 282.204 260.876C282.117 260.876 282.037 260.876 281.95 260.876C281.172 260.876 280.322 260.862 279.442 260.789C279.057 260.803 278.694 260.825 278.352 260.869C274.006 261.429 274.042 263.596 269.761 267.458C265.64 271.182 252.129 283.707 249.788 286.042L249.854 286.463C249.963 287.22 250.079 288.005 250.123 288.274C252.39 298.908 263.154 304.85 271.694 306.719C272.232 306.836 272.726 307.061 273.17 307.367C278.81 302.537 297.438 283.692 302.235 274.339C301.646 273.917 301.166 273.342 300.868 272.652L300.861 272.644Z" fill="#FEFEFF"/>
<path d="M300.861 272.644C300.832 272.579 300.796 272.521 300.767 272.455C300.578 272.753 300.389 273.052 300.185 273.335C291.122 285.714 280.285 296.304 268.475 305.832C269.565 306.181 270.648 306.487 271.687 306.712C272.225 306.828 272.719 307.054 273.162 307.359C278.802 302.53 297.431 283.685 302.227 274.332C301.639 273.91 301.159 273.335 300.861 272.644Z" fill="#BBCFDA"/>
<path d="M267.464 330.503C270.459 326.823 269.441 321.789 269.441 321.789C269.441 321.789 268.867 322.8 267.13 324.801C265.393 326.801 263.045 329.623 257.943 331.572C256.49 332.125 255.247 332.328 254.222 332.328C251.649 332.328 250.406 331.085 250.406 331.085C254.44 330.488 257.747 329.099 260.741 326.546C264.157 323.63 267.915 320.037 269.623 315.796C269.739 315.513 271.215 310.829 270.808 310.741C259.637 308.305 248.553 300.872 246.074 289.053C246.031 288.842 245.515 285.278 245.5 285.278C245.151 285.256 244.795 285.241 244.446 285.241C240.921 285.241 237.534 286.485 234.685 288.573C234.402 288.784 234.126 288.994 233.85 289.213C228.071 293.831 224.474 300.835 224.423 308.268C224.408 310.007 224.474 311.927 224.939 313.607C226.705 319.971 230.245 325.804 234.962 330.408C239.482 334.816 245.493 338.882 252.012 338.882C252.383 338.882 252.747 338.867 253.117 338.845C259.092 338.416 263.779 335.034 267.457 330.517L267.464 330.503Z" fill="#FEFEFF"/>
<path d="M267.792 309.956C265.117 315.018 261.883 319.637 257.776 324.328C255.545 326.881 253.074 329.106 250.435 331.085C254.455 330.488 257.762 329.099 260.749 326.546C264.165 323.63 267.922 320.037 269.63 315.796C269.747 315.513 271.222 310.829 270.815 310.741C269.805 310.523 268.795 310.261 267.792 309.956Z" fill="#BBCFDA"/>
<path d="M267.137 324.808C265.4 326.808 263.053 329.63 257.95 331.579C256.497 332.132 255.254 332.336 254.229 332.336C251.693 332.336 250.45 331.128 250.421 331.099C247.899 332.983 245.21 334.641 242.411 336.103C245.384 337.776 248.633 338.882 252.02 338.882C252.39 338.882 252.754 338.867 253.124 338.845C259.099 338.416 263.787 335.034 267.464 330.517C270.459 326.837 269.441 321.804 269.441 321.804C269.441 321.804 268.867 322.815 267.13 324.815L267.137 324.808Z" fill="#BBCFDA"/>
<path d="M137.868 213.44C137.868 213.44 123.935 207.127 116.943 203.447C111.754 200.712 103.628 194.239 99.7831 191.082C99.7322 191.664 99.6596 192.115 99.6232 192.326C98.4676 198.974 93.7288 208.036 86.4535 209.927C94.0849 216.146 110.896 227.805 129.248 236.904C129.669 228.379 137.868 213.44 137.868 213.44Z" fill="#FEFEFF"/>
<path d="M93.271 207.672C92.8785 207.352 92.5006 207.018 92.1372 206.669C90.4728 208.203 88.5758 209.374 86.4463 209.927C94.0777 216.146 110.889 227.805 129.241 236.904C129.328 235.209 129.72 233.252 130.294 231.216C117.081 225.005 104.994 217.084 93.271 207.672Z" fill="#BBCFDA"/>
<path d="M83.0812 206.145C83.2847 206.16 83.4809 206.174 83.6772 206.174C90.1166 206.174 94.5792 197.301 95.5604 191.628C95.6694 190.988 95.8657 188.122 95.4151 187.54C92.6459 183.94 89.7896 180.412 87.0205 176.812C84.6656 181.867 81.6276 187.533 75.6242 191.562C74.4322 192.362 73.1312 193.111 71.7648 193.781C70.7546 194.275 69.926 194.632 69.2428 194.886C72.3971 198.254 79.8542 205.869 83.0739 206.145H83.0812Z" fill="#8DA6B5"/>
<path d="M73.7126 192.944C73.669 192.901 73.6254 192.857 73.5818 192.821C72.993 193.155 72.3898 193.482 71.772 193.781C70.7618 194.275 69.9332 194.632 69.25 194.886C72.4043 198.254 79.8614 205.869 83.0811 206.145C83.2846 206.16 83.4808 206.174 83.6771 206.174C85.5377 206.174 87.2312 205.432 88.7284 204.24C83.4154 201.119 78.5749 197.323 73.7126 192.951V192.944Z" fill="#627A8B"/>
<path d="M47.5622 166.222C53.0277 175.052 59.4018 183.365 66.0448 191.315C66.103 191.38 66.2047 191.41 66.3501 191.41C67.2368 191.41 69.5626 190.282 69.9623 190.086C71.1325 189.511 72.259 188.864 73.3419 188.144C78.306 184.813 80.9879 180.063 83.43 174.797C84.2513 173.023 84.026 171.932 83.4009 170.186C83.0448 169.19 82.6596 168.193 82.2453 167.219C79.12 159.909 76.9542 151.727 74.8028 144.075C73.1239 138.104 70.7327 127.958 69.2864 119.797C65.2163 125.463 59.6925 130.074 53.5365 132.824C48.6015 135.027 45.2291 135.144 42.2492 135.253L41.5369 135.282C41.3698 135.282 41.1953 135.289 41.0209 135.289C38.557 135.289 35.8388 134.627 33.2223 133.442C33.9854 136.155 34.6323 138.395 34.8285 139.013C37.852 148.672 42.2856 157.698 47.5622 166.23V166.222Z" fill="#FEFEFF"/>
<path d="M39.7999 135.224C37.6776 135.049 35.41 134.424 33.2223 133.435C33.9854 136.148 34.6323 138.388 34.8285 139.006C37.852 148.665 42.2856 157.691 47.5622 166.222C53.0277 175.052 59.4018 183.365 66.0448 191.315C66.103 191.38 66.2047 191.41 66.3501 191.41C67.2368 191.41 69.5626 190.282 69.9623 190.086C70.3184 189.911 70.66 189.715 71.0089 189.533C59.8234 171.823 44.9093 155.538 39.8071 135.224H39.7999Z" fill="#BBCFDA"/>
<path d="M187.218 322.735C186.164 320.189 185.902 316.96 186.549 313.28C188.075 304.654 194.166 296.784 202.459 292.747C204.538 291.736 207.685 290.202 210.875 290.202C211.682 290.202 212.46 290.304 213.187 290.493C214.553 290.856 215.621 291.518 216.457 292.275C216.588 292.297 216.719 292.318 216.842 292.318C217.315 292.318 217.707 292.115 217.896 291.511C218.049 291.016 218.216 290.507 218.311 289.998C218.507 288.98 218.645 287.947 218.885 286.936C219.612 283.794 220.375 280.659 221.254 277.561C223.078 271.11 231.698 247.537 231.698 247.537C231.698 247.537 231.691 247.537 231.669 247.537C231.524 247.537 230.833 247.486 229.176 246.621C228.951 246.504 228.718 246.381 228.486 246.257C222.846 243.544 218.529 237.645 217.686 230.99C217.06 226.037 218.398 220.983 221.443 216.75C224.227 212.887 227.73 210.182 231.618 208.829L228.057 206.632C222.192 208.487 216.573 209.411 213.114 209.854C211.835 210.109 210.556 210.342 209.262 210.553C207.83 211.891 202.277 216.953 197.495 219.193C193.178 221.215 189.711 222.343 182.879 222.343C180.945 222.343 178.751 222.255 176.185 222.066C164.549 221.223 160.689 217.433 157.397 214.698C154.105 211.964 154.73 208.116 154.73 208.116L148.908 206.632C148.908 206.632 142.599 213.717 139.721 218.91C136.85 224.103 133.412 236.518 132.22 243.18C131.028 249.843 131.377 261.982 131.872 269.771C132.366 277.561 133.412 284.151 135.724 290.886C138.035 297.621 142.592 303.374 147.571 308.421C152.549 313.469 160.261 319.157 168.248 321.397C172.507 322.597 177.929 322.873 182.057 322.873C184.274 322.873 186.113 322.793 187.211 322.728L187.218 322.735Z" fill="#FEFEFF"/>
<path d="M185.604 317.236C177.355 316.749 168.256 314.96 160.282 312.538C154.919 310.909 149.598 308.647 144.881 305.519C145.761 306.516 146.648 307.49 147.571 308.429C152.549 313.476 160.261 319.164 168.248 321.404C172.507 322.604 177.929 322.88 182.058 322.88C184.274 322.88 186.113 322.8 187.211 322.735C186.556 321.157 186.229 319.302 186.215 317.251C186.011 317.251 185.808 317.251 185.604 317.236Z" fill="#BBCFDA"/>
<path d="M142.047 218.481C144.176 219.855 146.386 221.084 148.661 222.19C155.805 224.808 163.219 226.576 170.727 227.783C181.469 228.969 192.305 229.267 203.062 228.219C208.135 227.339 213.107 226.11 217.984 224.503C218.572 221.768 219.721 219.128 221.436 216.75C224.22 212.887 227.723 210.182 231.611 208.829L228.05 206.632C222.184 208.487 216.566 209.411 213.107 209.854C211.827 210.109 210.548 210.342 209.255 210.553C207.823 211.891 202.27 216.953 197.488 219.193C193.17 221.215 189.704 222.343 182.872 222.343C180.938 222.343 178.743 222.255 176.178 222.066C164.542 221.223 160.682 217.433 157.39 214.698C154.097 211.964 154.722 208.116 154.722 208.116L148.901 206.632C148.901 206.632 143.864 212.298 140.739 217.208C141.167 217.637 141.596 218.066 142.04 218.481H142.047Z" fill="#BBCFDA"/>
<path d="M32.9606 51.7563C33.702 56.5493 34.6614 61.306 35.628 66.0555C36.3112 68.8847 37.0162 71.5322 37.5104 73.3141C40.9046 72.0631 43.979 70.9503 46.8135 70.3685C46.4356 66.8992 45.6652 59.6332 45.5198 56.5493C45.4617 55.3056 45.4544 53.9383 45.5489 52.5491C45.0329 50.0762 44.5604 47.5887 43.9209 45.1377C43.2958 42.7157 42.649 39.9882 41.2389 37.8935C40.3741 36.6062 38.9277 35.5588 37.445 35.1006C37.0453 34.977 36.6237 34.9042 36.2022 34.9042C35.6062 34.9042 35.0175 35.0424 34.5233 35.3697C33.702 35.9152 33.2659 36.868 32.9752 37.8062C31.6088 42.2211 32.2629 47.2833 32.9534 51.7563H32.9606Z" fill="#FEFEFF"/>
<path d="M17.6251 50.1853C17.8577 54.4401 18.9116 58.5786 20.0599 62.7898C20.7213 65.1972 21.4554 67.6483 22.1676 70.0194C23.0107 72.8196 23.8756 75.6852 24.6388 78.58C27.4152 77.2053 31.18 75.4888 33.5421 74.4269C32.5246 70.7831 31.0347 64.9499 30.1843 60.3896C29.1813 55.022 27.3498 50.1271 25.1621 46.9632C24.1082 45.4359 22.0586 43.5012 20.2271 43.5012C19.7837 43.5012 19.3549 43.6175 18.9552 43.8721C17.3417 44.9195 17.5015 47.9597 17.6251 50.1853Z" fill="#FEFEFF"/>
<path d="M141.458 345.246C142.069 345.246 142.606 345.318 142.992 345.377L143.144 345.398C144.125 345.529 145.027 345.682 145.892 345.857C147.287 346.14 148.552 346.475 149.758 346.897C154.904 348.679 160.115 351.348 166.155 355.297C166.242 355.355 166.358 355.421 166.489 355.501C166.693 355.625 166.918 355.755 167.158 355.901C166.715 353.464 166.133 350.395 165.523 347.602C164.258 341.813 164.171 336.249 163.597 324.204C147.294 318.364 138.762 304.937 138.762 304.937C137.352 318.211 139.307 340.853 139.736 345.486C140.281 345.333 140.855 345.246 141.465 345.246H141.458Z" fill="#FEFEFF"/>
<path d="M165.523 347.602C164.258 341.813 164.171 336.249 163.597 324.204C147.294 318.364 138.762 304.937 138.762 304.937C138.5 307.388 138.355 310.167 138.297 313.083C140.223 314.938 143.595 317.716 145.637 319.44C147.04 320.422 160.057 328.474 160.057 328.474C160.057 328.474 161.896 333.739 162.376 340.743C162.427 341.514 162.507 342.285 162.652 343.049C162.768 343.682 162.863 344.315 162.928 344.962C163.052 346.235 163.204 347.508 163.488 348.751C163.895 350.555 164.185 352.359 164.447 354.214C165.014 354.57 165.581 354.926 166.162 355.304C166.25 355.363 166.366 355.428 166.497 355.508C166.7 355.632 166.925 355.763 167.165 355.908C166.722 353.472 166.141 350.402 165.53 347.609L165.523 347.602Z" fill="#BBCFDA"/>
<path d="M168.859 366.12C168.503 366.353 168.117 366.571 167.689 366.753L167.536 366.811C164.44 368.054 161.096 368.658 157.303 368.658C151.626 368.658 145.972 367.269 140.978 366.047L140.906 366.032C140.513 365.938 139.961 365.792 139.35 365.538C138.74 372.011 138.253 386.499 138.253 386.499C138.253 386.499 138.449 386.463 139.038 386.463C139.627 386.463 140.63 386.499 142.243 386.638C145.47 386.921 147.992 387.409 151.706 389.023C155.42 390.638 157.804 392.674 157.942 393.867C158.022 394.522 157.782 394.667 157.55 394.667C157.361 394.667 157.172 394.565 157.172 394.565C157.172 394.565 153.596 392.674 147.781 391.06C145.143 390.325 142.018 390.012 138.922 390.012C135.186 390.012 131.501 390.471 128.783 391.198C123.804 392.529 117.074 396.318 113.36 402.631C111.914 405.09 108.563 410.632 110.86 413.345C113.447 416.407 119.043 416.327 122.648 416.683C127.227 417.134 131.952 417.505 136.632 417.505C139.438 417.505 142.236 417.374 144.961 417.04C152.949 416.065 160.937 415.09 168.924 414.116C171.061 413.854 173.314 413.548 175.029 412.254C178.336 409.752 176.163 406.101 175.633 402.864C174.92 398.537 174.179 394.209 173.416 389.889C172.006 381.939 170.472 374.018 168.844 366.112L168.859 366.12Z" fill="#FEFEFF"/>
<path d="M165.363 374.746C165.523 375.822 165.661 376.913 165.755 378.033C165.872 379.313 165.995 380.594 166.126 381.874C168.03 392.463 170.203 402.995 172.246 413.549C173.249 413.279 174.208 412.887 175.037 412.261C178.344 409.759 176.17 406.108 175.64 402.871C174.928 398.544 174.186 394.216 173.423 389.896C172.013 381.946 170.48 374.026 168.851 366.12C168.495 366.353 168.11 366.571 167.681 366.753L167.529 366.811C166.489 367.225 165.421 367.567 164.323 367.836C164.825 369.96 165.152 372.164 165.334 374.44C165.341 374.535 165.348 374.637 165.363 374.731V374.746Z" fill="#BBCFDA"/>
<path d="M224.779 219.164C222.417 222.444 221.254 226.43 221.77 230.474C222.512 236.365 227.003 242.235 232.992 243.486C233.072 243.5 233.494 243.559 233.959 243.61C233.959 243.391 233.959 243.18 233.973 242.94V242.853L234.002 241.995C234.068 239.682 234.126 237.493 234.678 234.867C235.594 230.532 237.542 226.59 240.282 223.339C241.888 221.332 243.792 219.586 245.9 218.342C245.98 218.291 246.082 218.255 246.184 218.219C246.736 217.87 247.303 217.535 247.884 217.23C248.72 216.793 249.52 216.422 250.283 216.109C246.075 214.109 240.892 211.935 237.382 211.935C237.309 211.935 237.244 211.935 237.171 211.935C232.025 212.066 227.715 215.069 224.772 219.15L224.779 219.164Z" fill="#8DA6B5"/>
<path d="M221.712 227.317C221.625 228.358 221.639 229.412 221.77 230.474C222.511 236.365 227.003 242.235 232.992 243.486C233.072 243.5 233.493 243.559 233.959 243.61C233.959 243.391 233.959 243.18 233.973 242.94V242.853L234.002 241.995C234.031 240.991 234.068 240.002 234.14 238.991C228.893 236.482 224.605 232.365 221.712 227.31V227.317Z" fill="#627A8B"/>
<path d="M269.732 225.514C266.011 223.674 262.34 221.63 258.481 220.081C257.26 219.593 256.817 219.15 255.479 219.07C255.414 219.07 255.341 219.07 255.269 219.07C253.575 219.07 251.235 220.139 249.803 220.888C243.989 223.935 240.057 229.332 238.712 235.725C238.167 238.293 238.174 240.438 238.094 243.028C238.08 243.428 237.883 244.54 238.363 244.773C245.653 248.286 261.214 254.454 263.954 255.436C266.498 256.352 273.613 256.658 274.573 256.694C274.493 255.079 275.423 253.763 276.419 252.388C276.942 251.668 277.654 250.723 277.887 250.446C281.47 246.184 286.95 243.74 292.917 243.74C293.208 243.74 293.506 243.74 293.797 243.762C294.959 243.813 296.202 243.966 297.46 244.228C296.98 243.719 296.493 243.224 295.984 242.737C288.411 235.456 279.108 230.139 269.739 225.514H269.732Z" fill="#FEFEFF"/>
<path d="M269.841 252.97C265.4 251.908 261.068 250.526 256.824 248.839C252.485 247.115 248.531 244.948 244.446 242.948C243.022 242.402 241.663 241.769 240.369 241.064C240.282 241.028 240.202 240.991 240.122 240.955C240.187 240.984 240.26 241.013 240.325 241.042C239.599 240.642 238.894 240.22 238.21 239.777C238.152 240.824 238.131 241.878 238.094 243.028C238.08 243.428 237.883 244.54 238.363 244.773C245.653 248.286 261.214 254.454 263.954 255.436C266.498 256.352 273.613 256.658 274.573 256.694C274.529 255.763 274.82 254.934 275.263 254.134C273.453 253.777 271.644 253.399 269.848 252.97H269.841Z" fill="#BBCFDA"/>
<path d="M305.782 254.847C304.001 250.148 298.274 248.075 293.608 247.879C293.368 247.872 293.135 247.864 292.895 247.864C288.411 247.864 283.941 249.624 281.019 253.101C280.816 253.348 278.425 256.476 278.679 256.527C280.438 256.883 282.516 256.643 284.341 256.832C290.991 257.523 296.878 259.683 301.13 264.993C301.486 265.436 303.427 268.229 304.633 270.986C307.053 265.546 307.657 259.8 305.782 254.839V254.847Z" fill="#8DA6B5"/>
<path d="M309.634 253.392C308.805 251.203 307.439 249.45 305.774 248.068C305.607 247.53 305.338 247.013 304.96 246.57L304.372 245.871C302.649 243.835 300.868 241.733 298.826 239.769C290.322 231.601 279.784 225.892 271.549 221.819C270.517 221.31 269.492 220.786 268.46 220.255C265.749 218.866 262.951 217.433 260 216.255C259.768 216.16 259.564 216.066 259.331 215.957C258.844 215.724 258.241 215.44 257.442 215.229C257.166 214.975 256.853 214.757 256.504 214.582L255.559 214.117C249.156 210.931 242.477 207.825 237.375 207.825C237.266 207.825 237.164 207.825 237.062 207.825C236.604 207.84 236.146 207.876 235.688 207.92C235.441 206.872 234.787 205.949 233.85 205.367L232.229 204.37C237.455 202.363 242.455 199.992 247.143 197.279C256.875 191.635 269.63 182.369 275.539 170.157C276.847 170.084 278.185 169.779 279.537 169.219C284.864 167.008 289.225 162.593 292.139 156.44C295.316 149.741 297.423 142.963 298.397 136.286C299.691 127.449 300.222 110.968 289.254 99.8396C288.004 98.5741 286.478 97.6576 284.791 97.1194C284.726 96.683 284.661 96.2612 284.595 95.8466C283.36 88.0715 281.368 82.4202 277.93 76.9362C275.939 73.7651 273.65 70.6958 271.084 67.7647C271.382 67.4737 271.644 67.1392 271.847 66.7537L290.352 31.9949C290.591 31.544 290.737 31.0567 290.795 30.5766C291.071 30.5985 291.347 30.6203 291.623 30.6203C298.034 30.6203 303.245 25.4054 303.245 18.9904C303.245 12.5754 298.034 7.3605 291.623 7.3605C285.213 7.3605 280.002 12.5754 280.002 18.9904C280.002 21.4342 280.765 23.6962 282.051 25.5727C281.681 25.8709 281.346 26.2345 281.085 26.6636L261.774 58.6877C240.958 41.1592 213.041 31.1367 184.848 31.1367C173.488 31.1367 162.412 32.7513 151.931 35.9297C145.238 37.959 138.842 40.6864 132.795 44.0467L124.48 20.6414C124.378 20.3505 124.233 20.0814 124.073 19.8268C126.173 17.7249 127.467 14.8228 127.467 11.6226C127.467 5.20763 122.256 -0.00727844 115.846 -0.00727844C109.435 -0.00727844 104.224 5.20763 104.224 11.6226C104.224 17.4848 108.585 22.3361 114.232 23.1216C114.254 23.4125 114.297 23.7034 114.385 23.9871L121.9 49.1379C122.052 49.647 122.307 50.1125 122.627 50.5198C107.269 61.6988 96.2654 76.1725 90.7053 92.5736C85.545 107.797 83.6408 123.238 85.1889 137.231C86.9768 153.371 93.1619 167.248 103.563 178.47C114.356 190.115 128.557 199.221 144.831 204.996C143.835 206.16 142.2 208.109 140.513 210.327C140.215 210.073 139.896 209.84 139.532 209.673C139.394 209.607 125.628 203.367 118.825 199.781C112.313 196.348 100.379 186.231 100.263 186.129C99.8558 185.78 99.3907 185.533 98.8964 185.365C98.8165 185.242 98.7438 185.118 98.6493 185.002C97.2611 183.198 95.8293 181.387 94.4484 179.634C92.973 177.765 91.4467 175.838 89.9858 173.925C89.4843 173.263 88.8011 172.79 88.038 172.528C88.0234 171.139 87.6528 169.917 87.2457 168.761C86.8387 167.612 86.4245 166.564 85.9956 165.56C83.2992 159.247 81.315 152.156 79.3962 145.305C79.1709 144.504 78.9529 143.712 78.7276 142.926C76.7943 136.046 73.6908 122.648 72.5497 114.284C74.5339 110.291 75.8058 106.095 76.867 102.138C77.1577 101.069 77.4121 99.9851 77.6665 98.9377C78.3496 96.1084 78.9892 93.4319 80.1158 91.1626C80.7481 89.8825 81.7802 88.6388 82.8631 87.3296C83.3937 86.6896 83.9388 86.0277 84.4766 85.3222C87.74 81.031 87.4056 74.2087 83.7861 71.2849C81.6566 69.5611 78.8003 69.2048 76.7797 69.2048C75.6532 69.2048 74.5121 69.3211 73.4946 69.5321C71.1688 70.0266 67.8982 71.8013 65.1218 74.4706C65.1727 66.7973 65.1799 57.7494 65.0055 54.5638C64.4749 44.7449 58.9948 41.1665 54.038 41.0937H53.9217C51.8939 41.0937 50.0769 41.8792 48.6669 43.3557C48.398 43.6394 48.1509 43.9521 47.9183 44.2794C47.9038 44.2139 47.8892 44.1412 47.8674 44.0758L47.7511 43.6321C47.0825 41.0428 46.3339 38.1117 44.6113 35.5588C43.2304 33.5005 41.05 31.8858 38.6297 31.1294C37.8157 30.8748 36.9872 30.7439 36.1586 30.7439C34.7123 30.7439 33.3459 31.144 32.2048 31.9004C30.7076 32.8968 29.661 34.4169 28.9996 36.548C28.251 38.9554 27.9966 41.4356 28.0184 43.923C25.2274 40.3155 20.6776 37.799 16.673 40.381C13.0535 42.7229 13.3006 47.3269 13.4677 50.4035C13.5332 51.5672 13.6494 52.7164 13.8093 53.851C12.1886 52.7527 10.3352 52.1563 8.46732 52.1563C7.86407 52.1563 7.26809 52.2218 6.68664 52.3454C4.80422 52.7527 3.13983 53.7928 2.00602 55.2838C-1.33002 59.6841 0.181737 65.5972 1.18473 69.5102L1.33736 70.1139C2.6238 75.2197 4.5353 80.0928 6.23603 84.2603L6.69391 85.3804C7.87861 88.2679 9.10691 91.2572 9.54299 94.0792C10.2189 98.4286 12.1304 105.644 15.4955 112.859C18.7371 119.812 23.3378 126.314 27.4951 129.827C27.6695 129.98 27.8512 130.118 28.0329 130.264C29.363 135.187 30.8239 140.126 30.8529 140.213C33.7819 149.574 38.0846 158.782 44.0154 168.368C48.9649 176.368 54.9465 184.493 62.8396 193.933C63.1812 194.348 63.5955 194.675 64.0461 194.93C64.2278 195.381 64.4822 195.81 64.8165 196.181C65.6087 197.061 68.436 200.152 71.6485 203.163C75.2971 206.596 77.7755 208.356 79.5852 209.273C79.6216 209.316 79.6506 209.36 79.687 209.404C84.0333 214.117 104.805 229.39 127.365 240.569C127.7 240.737 128.049 240.846 128.412 240.918C128.303 241.449 128.208 241.958 128.121 242.431C126.653 250.657 127.438 265.618 127.714 270.004C128.267 278.768 129.524 285.612 131.784 292.202C132.86 295.337 134.394 298.391 136.45 301.483C135.447 302.144 134.75 303.228 134.619 304.472C133.013 319.557 135.557 345.617 135.666 346.722C135.731 347.377 135.956 347.98 136.291 348.504C136.007 349.224 135.833 350.06 135.789 351.006C135.789 351.079 135.789 351.144 135.782 351.21C135.68 352.315 135.607 353.435 135.578 354.541C135.535 355.785 135.542 357.05 135.578 358.294C135.578 358.417 135.578 358.556 135.578 358.708C135.564 359.428 135.557 360.41 135.789 361.436C135.149 363.618 134.575 371.895 134.096 386.099C131.77 386.317 129.553 386.696 127.678 387.198C121.9 388.747 114.167 393.06 109.769 400.522L109.675 400.675C107.684 404.057 103.533 411.097 107.676 415.992C111.005 419.927 116.558 420.334 120.613 420.64C121.173 420.684 121.711 420.72 122.212 420.771C126.457 421.185 131.486 421.607 136.596 421.607C139.794 421.607 142.679 421.447 145.427 421.113L163.502 418.909L169.389 418.189C171.686 417.912 174.826 417.527 177.479 415.527C182.261 411.919 180.866 406.784 180.11 404.028C179.928 403.351 179.754 402.711 179.666 402.18C178.94 397.751 178.184 393.365 177.435 389.154C176.003 381.095 174.368 372.607 172.573 363.938C172.558 363.858 172.551 363.785 172.536 363.72C172.478 363.312 172.333 362.447 171.824 361.574C172.006 360.978 172.057 360.33 171.955 359.69C171.904 359.399 170.763 352.519 169.498 346.7C168.488 342.074 168.27 337.34 167.878 328.75C167.834 327.724 167.783 326.648 167.725 325.506C171.49 326.473 176.279 326.975 182.014 326.975C185.75 326.975 188.475 326.757 188.584 326.75C189.02 326.713 189.435 326.604 189.82 326.444C190.779 327.252 191.898 327.863 193.199 328.241L193.672 328.379C193.904 328.452 194.137 328.517 194.355 328.575C194.37 329.885 194.595 331.15 195.046 332.35C195.387 333.267 195.758 334.132 196.107 334.961C196.463 335.798 196.79 336.583 197.088 337.376C197.626 338.838 198.193 340.343 198.759 341.856C199.661 344.256 200.598 346.737 201.427 349.079C201.71 349.871 202.001 350.65 202.292 351.37C203.891 355.414 205.17 358.534 205.184 358.563C205.519 359.385 206.107 360.054 206.834 360.498C207.009 361.334 207.329 362.054 207.568 362.578C207.605 362.65 207.634 362.716 207.656 362.774C208.041 363.741 208.557 364.68 209.182 365.552C209.385 365.836 209.618 366.098 209.836 366.367C209.284 367.407 209.196 368.651 209.632 369.785C210.984 373.262 214.633 382.746 215.294 384.826C216.108 387.408 219.154 398.078 219.19 398.187C219.364 398.791 219.662 399.344 220.055 399.802C218.928 402.202 218.223 404.813 217.998 407.468C217.874 408.937 217.918 410.326 217.954 411.672V412.007C217.969 412.319 218.013 412.603 218.056 412.923C218.063 413.003 218.085 413.112 218.093 413.214C218.02 413.665 218.027 414.13 218.114 414.596C218.463 416.538 219.968 417.491 220.549 417.854C224.299 420.291 228.42 420.945 232.309 421.411C235.441 421.782 238.719 421.964 242.331 421.964C242.826 421.964 243.32 421.964 243.807 421.956C248.408 421.898 252.943 421.556 256.773 421.236L257.769 421.156C261.592 420.851 265.931 420.502 269.885 418.312L269.943 418.283C270.822 417.811 273.17 416.545 273.344 413.876C273.468 412.065 273.599 410.021 273.148 407.81C272.341 403.861 270.524 400.151 267.748 396.798C265.16 393.678 261.832 391.016 258.081 389.052C258.139 388.318 258.016 387.561 257.667 386.87C257.573 386.681 255.29 382.143 251.409 376.87C247.95 372.171 242.099 360.345 242.041 360.228C241.67 359.472 241.074 358.868 240.362 358.468C240.376 357.676 240.253 356.839 239.94 355.937C239.141 353.646 236.517 349.74 235.463 348.22C235.892 346.708 235.427 345.217 235.151 344.547C235.056 344.322 234.947 344.104 234.838 343.878C234.816 343.835 234.794 343.791 234.773 343.74L234.758 343.704L234.111 341.907C233.661 340.656 233.21 339.398 232.767 338.147C232.011 336.023 231.204 333.907 230.419 331.863C230.376 331.746 230.332 331.63 230.288 331.514C230.848 332.125 231.422 332.728 232.018 333.317C238.487 339.623 245.377 342.962 251.94 342.962C252.405 342.962 252.877 342.947 253.343 342.911C259.847 342.445 265.647 339.136 270.575 333.07C274.682 328.023 273.54 321.651 273.395 320.938C273.257 320.255 272.952 319.622 272.53 319.098C272.835 318.516 273.119 317.913 273.366 317.295C273.555 316.836 274.013 315.302 274.26 314.414C274.616 313.134 274.871 312.094 274.914 311.149C275.815 310.436 277.182 309.236 279.391 307.127C282.32 304.326 285.714 300.901 288.934 297.475C295.228 290.784 303.325 281.532 306.181 275.444C306.312 275.168 306.399 274.884 306.465 274.601C307.272 274.179 307.933 273.502 308.318 272.637C311.291 265.953 311.727 259.101 309.554 253.356L309.634 253.392ZM252.02 338.874C245.508 338.874 239.49 334.809 234.969 330.401C230.252 325.797 226.712 319.964 224.946 313.6C224.481 311.927 224.423 310 224.43 308.261C224.481 300.828 228.079 293.831 233.857 289.205C234.133 288.987 234.409 288.769 234.693 288.565C237.542 286.478 240.929 285.234 244.454 285.234C244.803 285.234 245.151 285.249 245.508 285.271C245.522 285.271 246.031 288.834 246.082 289.045C248.56 300.864 259.651 308.298 270.815 310.734C271.222 310.821 269.747 315.505 269.63 315.789C267.915 320.029 264.165 323.622 260.749 326.539C257.754 329.092 254.447 330.481 250.414 331.077C250.414 331.077 251.656 332.321 254.229 332.321C255.254 332.321 256.497 332.125 257.951 331.565C263.053 329.615 265.4 326.793 267.137 324.793C268.874 322.793 269.449 321.782 269.449 321.782C269.449 321.782 270.466 326.808 267.472 330.495C263.794 335.012 259.106 338.394 253.132 338.823C252.761 338.852 252.39 338.86 252.027 338.86L252.02 338.874ZM228.966 339.565C229.416 340.823 229.867 342.082 230.317 343.34C230.543 343.965 230.768 344.598 230.993 345.224C231.073 345.442 231.175 345.646 231.277 345.857C229.249 345.318 226.981 344.882 224.612 344.882C224.169 344.882 223.718 344.896 223.282 344.926C219.917 345.158 216.653 346.322 213.841 348.286C211.057 350.228 209.364 352.686 208.23 355.014C207.714 353.733 206.987 351.93 206.173 349.879C205.889 349.166 205.621 348.446 205.359 347.718C203.992 343.878 202.408 339.791 200.998 335.972C200.358 334.241 199.588 332.641 198.948 330.925C198.345 329.317 198.418 327.608 198.898 325.921C199.683 323.171 200.613 320.582 202.052 318.095C203.084 316.313 204.312 314.633 205.751 313.149C207.241 311.614 208.971 310.298 210.883 309.338C212.22 308.661 213.688 308.203 215.142 307.868C215.818 307.716 216.792 307.41 217.656 307.41C218.093 307.41 218.5 307.49 218.819 307.701C218.907 307.759 218.986 307.832 219.059 307.912C219.473 308.385 219.67 309.09 219.793 309.694C220.135 311.345 220.469 312.996 220.825 314.64C221.523 317.876 222.286 321.098 223.318 324.248C225.012 329.419 227.127 334.445 228.951 339.572L228.966 339.565ZM244.359 385.736C235.478 385.736 227.614 389.372 222.773 395.562C221.894 392.485 219.931 385.67 219.284 383.626C218.441 380.957 213.535 368.331 213.535 368.331C213.535 368.331 217.627 369.72 221.872 369.72C223.18 369.72 224.51 369.589 225.731 369.24C230.921 367.764 236.037 365.24 238.421 362.083C238.421 362.083 244.446 374.288 248.168 379.342C250.457 382.448 252.151 385.285 253.125 387.016C250.334 386.172 247.368 385.728 244.359 385.728M269.31 413.636C269.281 414.072 268.257 414.581 267.966 414.741C264.492 416.669 260.371 416.843 256.504 417.163C252.289 417.52 248.066 417.811 243.829 417.869C243.356 417.869 242.884 417.876 242.404 417.876C239.221 417.876 236.03 417.731 232.868 417.352C229.358 416.938 225.855 416.385 222.839 414.414C222.78 414.378 222.134 413.992 222.25 413.839C222.439 413.599 222.155 412.232 222.148 411.934C222.112 410.581 222.061 409.199 222.17 407.846C222.402 405.046 223.289 402.304 224.75 399.904C228.857 393.169 236.626 389.852 244.359 389.852C248.226 389.852 252.078 390.681 255.458 392.325C258.924 394.013 262.151 396.456 264.644 399.46C266.854 402.13 268.482 405.235 269.18 408.661C269.521 410.319 269.412 411.948 269.303 413.628L269.31 413.636ZM236.27 358.585C235.841 358.847 235.456 359.188 235.143 359.603C233.573 361.683 229.445 363.909 224.619 365.276C223.863 365.494 222.94 365.603 221.886 365.603C218.412 365.603 214.902 364.44 214.866 364.425C214.437 364.28 213.993 364.214 213.557 364.214C213.528 364.214 213.499 364.221 213.47 364.221C213.165 363.901 212.867 363.56 212.612 363.196C212.184 362.6 211.827 361.945 211.551 361.261C211.362 360.788 210.795 359.785 210.933 359.29C212.053 356.177 213.47 353.595 216.225 351.668C218.391 350.155 220.956 349.224 223.594 349.035C223.943 349.013 224.292 348.999 224.641 348.999C227.156 348.999 229.583 349.602 231.996 350.33C231.996 350.33 235.42 355.224 236.154 357.326C236.306 357.763 236.335 358.177 236.284 358.577L236.27 358.585ZM175.044 412.261C173.321 413.563 171.075 413.861 168.939 414.123C160.951 415.098 152.963 416.072 144.976 417.047C142.243 417.381 139.452 417.512 136.647 417.512C131.966 417.512 127.242 417.141 122.663 416.691C119.058 416.341 113.462 416.414 110.874 413.352C108.577 410.639 111.921 405.097 113.374 402.639C117.088 396.325 123.819 392.536 128.797 391.205C131.515 390.478 135.208 390.02 138.936 390.02C142.032 390.02 145.158 390.332 147.796 391.067C153.618 392.682 157.186 394.573 157.186 394.573C157.186 394.573 157.375 394.674 157.564 394.674C157.797 394.674 158.037 394.529 157.957 393.874C157.819 392.682 155.435 390.645 151.721 389.03C148.007 387.416 145.485 386.928 142.258 386.645C140.644 386.507 139.648 386.47 139.052 386.47C138.456 386.47 138.267 386.507 138.267 386.507C138.267 386.507 138.754 372.026 139.365 365.545C139.975 365.8 140.528 365.938 140.92 366.04L140.993 366.054C145.986 367.276 151.641 368.665 157.317 368.665C161.111 368.665 164.462 368.062 167.55 366.818L167.703 366.76C168.139 366.578 168.517 366.36 168.873 366.127C170.494 374.033 172.028 381.954 173.445 389.903C174.215 394.224 174.949 398.544 175.662 402.879C176.192 406.115 178.365 409.766 175.058 412.268L175.044 412.261ZM138.762 304.937C138.762 304.937 147.294 318.364 163.597 324.204C164.178 336.256 164.265 341.82 165.523 347.602C166.133 350.395 166.715 353.464 167.158 355.901C166.925 355.755 166.693 355.624 166.489 355.501C166.359 355.421 166.242 355.355 166.155 355.297C160.115 351.348 154.904 348.679 149.758 346.897C148.552 346.482 147.287 346.14 145.892 345.857C145.027 345.682 144.126 345.529 143.144 345.398L142.992 345.377C142.607 345.318 142.069 345.246 141.458 345.246C140.848 345.246 140.273 345.326 139.728 345.486C139.3 340.853 137.344 318.211 138.754 304.937H138.762ZM139.743 358.17C139.699 357.014 139.699 355.85 139.743 354.694C139.779 353.661 139.837 352.635 139.932 351.61C139.997 350.897 139.888 349.842 140.68 349.508C140.92 349.406 141.189 349.37 141.458 349.37C141.843 349.37 142.243 349.435 142.585 349.486C143.421 349.602 144.249 349.733 145.078 349.908C146.219 350.14 147.316 350.424 148.414 350.802C153.901 352.701 159.054 355.588 163.902 358.759C164.781 359.334 168.008 360.89 166.976 362.352C166.766 362.643 166.438 362.825 166.104 362.963C166.068 362.978 166.039 362.992 166.002 363.007C163.211 364.127 160.275 364.556 157.303 364.556C152.099 364.556 146.778 363.247 141.887 362.047C141.284 361.901 140.637 361.734 140.194 361.269C139.568 360.592 139.772 359.057 139.743 358.185V358.17ZM147.578 308.421C142.599 303.374 138.042 297.62 135.731 290.885C133.42 284.15 132.366 277.554 131.879 269.771C131.385 261.982 131.036 249.85 132.228 243.18C133.42 236.518 136.857 224.095 139.728 218.91C142.599 213.717 148.915 206.632 148.915 206.632L154.737 208.116C154.737 208.116 154.105 211.964 157.404 214.698C160.697 217.433 164.556 221.223 176.192 222.066C178.758 222.255 180.96 222.343 182.886 222.343C189.718 222.343 193.185 221.215 197.502 219.193C202.284 216.953 207.845 211.891 209.269 210.553C210.563 210.342 211.842 210.109 213.121 209.854C216.581 209.418 222.206 208.487 228.064 206.632L231.626 208.829C227.737 210.189 224.234 212.895 221.45 216.749C218.405 220.982 217.068 226.037 217.693 230.99C218.536 237.645 222.853 243.544 228.493 246.257C228.726 246.381 228.958 246.504 229.184 246.621C230.841 247.479 231.531 247.537 231.677 247.537C231.698 247.537 231.706 247.537 231.706 247.537C231.706 247.537 223.086 271.11 221.261 277.561C220.382 280.667 219.626 283.801 218.892 286.936C218.659 287.947 218.514 288.98 218.318 289.998C218.223 290.507 218.056 291.016 217.904 291.511C217.715 292.107 217.322 292.318 216.85 292.318C216.726 292.318 216.595 292.296 216.464 292.275C215.629 291.518 214.56 290.864 213.194 290.493C212.467 290.296 211.689 290.202 210.883 290.202C207.692 290.202 204.545 291.736 202.466 292.747C194.173 296.784 188.075 304.654 186.556 313.28C185.91 316.96 186.171 320.189 187.225 322.735C186.128 322.8 184.289 322.88 182.072 322.88C177.944 322.88 172.522 322.604 168.263 321.404C160.268 319.157 152.556 313.476 147.585 308.429L147.578 308.421ZM5.32752 57.8003C5.88716 57.0657 6.68664 56.593 7.58788 56.3966C7.89314 56.3312 8.1984 56.3021 8.50366 56.3021C9.82644 56.3021 11.142 56.8766 12.1522 57.7494C14.587 59.8659 15.3138 63.3207 16.1496 66.2809C16.7529 68.4193 17.487 70.5212 18.1411 72.6523C19.1441 75.918 20.2852 79.1836 21.0992 82.5075C21.1283 82.6166 21.1791 82.7402 21.1791 82.8566C21.1791 83.2857 18.708 84.6458 18.6499 85.3877C18.6063 85.9041 18.4173 87.0242 19.224 87.0242C19.5729 87.0242 20.1107 86.8132 20.932 86.2532C23.6503 84.3985 30.6858 80.2019 36.115 78.2236C41.5442 76.2452 46.3629 74.2742 50.0624 74.0851C50.7601 74.0487 51.3343 74.0415 51.814 74.0415C52.6135 74.0415 53.144 74.0705 53.4929 74.0705C54.0598 74.0705 54.1616 73.9905 54.1979 73.5905C54.2561 72.7905 55.1209 71.8595 51.109 71.8013C51.109 71.8013 49.8153 60.3096 49.6263 56.3602C49.4446 52.4254 49.808 45.2395 53.9581 45.2395C53.9726 45.2395 53.9944 45.2395 54.0089 45.2395C58.2026 45.2977 60.6156 49.1307 60.9209 54.811C61.2261 60.4914 60.9209 86.5369 60.9209 86.5587C60.9209 86.515 60.87 86.4932 60.7755 86.4932C59.7943 86.4932 54.2924 88.6097 53.8054 88.9298C47.7584 92.9519 44.5169 100.378 46.1667 107.586C46.2467 107.949 46.3848 108.357 46.7336 108.48C46.799 108.502 46.8572 108.517 46.9226 108.517C47.2424 108.517 47.5476 108.255 47.6712 107.942C47.8166 107.571 47.7657 107.156 47.7293 106.756C46.9008 97.774 53.9145 90.0862 62.7161 89.4534C63.8281 86.0568 63.581 83.0894 66.0521 79.6928C68.5232 76.2962 72.3462 74.0124 74.3813 73.576C75.0863 73.4232 75.9367 73.336 76.8088 73.336C78.4514 73.336 80.1812 73.656 81.2278 74.4997C82.834 75.7943 83.3864 79.9982 81.2278 82.8348C79.5925 84.9804 77.6592 86.9078 76.4527 89.3443C74.6502 92.9737 73.967 97.1849 72.9204 101.076C71.8229 105.142 70.5874 109.193 68.6541 112.946C65.0927 119.848 58.973 125.856 51.8503 129.034C47.286 131.071 44.4442 131.013 41.3553 131.136C41.239 131.136 41.1227 131.136 41.0064 131.136C37.9393 131.136 33.6293 129.594 30.1843 126.685C26.6011 123.659 22.2839 117.608 19.2604 111.12C16.2369 104.633 14.3254 97.8395 13.6422 93.4537C13.068 89.7589 11.4763 86.1587 10.0808 82.7112C8.27108 78.2672 6.53402 73.7723 5.36386 69.1102C4.54984 65.8809 3.04535 60.7751 5.32025 57.7785L5.32752 57.8003ZM18.9551 43.8721C19.3549 43.6103 19.7837 43.5012 20.227 43.5012C22.0586 43.5012 24.1082 45.4286 25.162 46.9632C27.3497 50.1344 29.1813 55.0292 30.1843 60.3896C31.0346 64.9499 32.5246 70.7831 33.5421 74.4269C31.18 75.4888 27.4151 77.2053 24.6387 78.58C23.8756 75.6852 23.0107 72.8123 22.1676 70.0194C21.4553 67.6483 20.7213 65.1972 20.0599 62.7898C18.9042 58.5786 17.8504 54.4401 17.6251 50.1853C17.5015 47.9597 17.3416 44.9194 18.9551 43.8721ZM34.5306 35.3624C35.0248 35.0351 35.6135 34.8969 36.2095 34.8969C36.631 34.8969 37.0526 34.9697 37.4523 35.0933C38.935 35.5588 40.3813 36.5989 41.2462 37.8862C42.6562 39.9809 43.3031 42.7084 43.9282 45.1304C44.5605 47.5815 45.0329 50.0689 45.5562 52.5418C45.4617 53.931 45.469 55.3056 45.5271 56.5421C45.6725 59.6332 46.4429 66.8991 46.8208 70.3612C43.9863 70.9431 40.9119 72.0559 37.5177 73.3069C37.0235 71.5249 36.3185 68.8775 35.6353 66.0482C34.6614 61.2988 33.702 56.5421 32.9679 51.749C32.2775 47.2687 31.6233 42.2065 32.9897 37.799C33.2805 36.8607 33.7238 35.9079 34.5378 35.3624H34.5306ZM41.0137 135.282C41.1881 135.282 41.3553 135.282 41.5297 135.275L42.242 135.246C45.2219 135.137 48.5942 135.02 53.5292 132.816C59.6853 130.074 65.209 125.456 69.2791 119.79C70.7255 127.951 73.1167 138.097 74.7956 144.068C76.9469 151.72 79.1128 159.902 82.2381 167.212C82.6523 168.186 83.0375 169.175 83.3937 170.179C84.0187 171.932 84.244 173.016 83.4228 174.79C80.9807 180.063 78.2988 184.805 73.3347 188.137C72.2518 188.864 71.1252 189.504 69.955 190.079C69.5626 190.275 67.2368 191.402 66.3428 191.402C66.1975 191.402 66.0957 191.373 66.0376 191.308C59.3946 183.358 53.0205 175.052 47.5549 166.215C42.2783 157.684 37.8375 148.665 34.8213 138.999C34.625 138.38 33.9782 136.133 33.215 133.427C35.8315 134.606 38.5498 135.275 41.0137 135.275V135.282ZM71.7721 193.781C73.1385 193.111 74.4394 192.362 75.6314 191.562C81.6348 187.533 84.6729 181.86 87.0277 176.812C89.7968 180.412 92.6532 183.94 95.4223 187.54C95.8729 188.122 95.6767 190.988 95.5677 191.628C94.5865 197.301 90.1239 206.174 83.6844 206.174C83.4882 206.174 83.2847 206.167 83.0884 206.145C79.8687 205.869 72.4117 198.261 69.2573 194.886C69.9405 194.632 70.7691 194.282 71.7793 193.781H71.7721ZM99.6233 192.326C99.6596 192.108 99.7323 191.664 99.7831 191.082C103.628 194.239 111.746 200.712 116.943 203.447C123.935 207.127 137.868 213.44 137.868 213.44C137.868 213.44 129.662 228.379 129.248 236.904C110.896 227.805 94.085 216.146 86.4535 209.927C93.7361 208.036 98.4749 198.974 99.6233 192.326ZM115.875 4.12392C120.017 4.12392 123.375 7.48415 123.375 11.6299C123.375 15.7756 120.017 19.1359 115.875 19.1359C111.732 19.1359 108.374 15.7756 108.374 11.6299C108.374 7.48415 111.732 4.12392 115.875 4.12392ZM120.679 22.1979L129.081 45.8577L125.875 47.9597L118.404 22.9616C119.196 22.787 119.959 22.5252 120.679 22.1906V22.1979ZM127.867 51.909C135.622 46.6578 144.184 42.5993 153.145 39.8791C163.393 36.7662 174.114 35.2606 184.87 35.2606C212.336 35.2606 240.013 45.0867 260.596 63.088C261.526 63.9026 262.435 64.7463 263.329 65.6045L265.211 67.6337C265.437 67.8738 265.691 68.0774 265.967 68.2592C269.136 71.6049 272.014 75.2415 274.456 79.1327C277.981 84.7549 279.544 90.2098 280.547 96.4939C280.547 96.5303 280.554 96.5666 280.561 96.5957C275.692 96.8648 271.069 99.8469 268.635 104.356C263.445 113.986 262.435 123.099 261.73 133.173C261.585 135.187 261.49 137.275 261.439 139.37C261.316 144.701 261.403 151.683 263.198 158.367C264.739 164.084 267.595 167.939 271.28 169.459C265.822 179.78 254.912 188.013 245.086 193.715C231.996 201.308 217.155 205.76 202.146 207.367C197.437 207.876 192.691 208.131 187.945 208.131C175.247 208.131 162.536 206.298 150.427 202.53C133.892 197.381 118.455 188.442 106.63 175.685C85.8648 153.283 85.2616 121.637 94.6519 93.9192C100.546 76.5289 112.764 62.157 127.874 51.9163L127.867 51.909ZM291.638 11.4844C295.781 11.4844 299.139 14.8447 299.139 18.9904C299.139 23.1361 295.781 26.4964 291.638 26.4964C287.495 26.4964 284.137 23.1361 284.137 18.9904C284.137 14.8447 287.495 11.4844 291.638 11.4844ZM284.624 28.7947L286.725 30.0602L268.22 64.819L264.993 61.3497L284.624 28.802V28.7947ZM294.327 135.689C293.36 142.279 291.267 148.672 288.418 154.672C286.216 159.306 282.793 163.408 277.959 165.408C276.877 165.859 275.881 166.062 274.972 166.062C270.699 166.062 268.322 161.567 267.166 157.291C265.611 151.523 265.408 145.399 265.546 139.464C265.589 137.479 265.684 135.478 265.822 133.464C266.52 123.55 267.472 115.179 272.247 106.313C274.136 102.814 277.829 100.691 281.259 100.691C283.142 100.691 284.944 101.331 286.325 102.734C294.691 111.222 295.97 124.416 294.32 135.689H294.327ZM304.641 271C303.441 268.237 301.493 265.451 301.137 265.007C296.893 259.698 290.998 257.538 284.348 256.847C282.524 256.658 280.438 256.898 278.686 256.541C278.432 256.49 280.823 253.356 281.027 253.116C283.948 249.639 288.425 247.879 292.903 247.879C293.142 247.879 293.375 247.879 293.615 247.893C298.274 248.09 304.008 250.155 305.789 254.861C307.664 259.822 307.061 265.575 304.641 271.008V271ZM248.037 282.005C247.296 281.416 246.474 281.227 245.871 281.168C245.849 281.168 245.827 281.168 245.806 281.168C245.362 281.139 244.912 281.125 244.468 281.125C240.18 281.125 235.965 282.55 232.272 285.249C231.938 285.489 231.618 285.743 231.299 285.998C226.305 289.991 222.78 295.526 221.225 301.533C220.578 299.744 219.88 297.955 219.132 296.209C219.103 296.137 219.066 296.057 219.03 295.969C220.346 295.373 221.37 294.246 221.843 292.755L221.872 292.667C222.046 292.115 222.243 291.489 222.381 290.776C222.453 290.384 222.526 289.991 222.591 289.598C222.693 288.987 222.795 288.405 222.919 287.874C223.551 285.147 224.321 281.918 225.237 278.681C226.996 272.448 235.5 249.188 235.587 248.948C235.703 248.643 235.768 248.323 235.805 248.003C236.066 248.199 236.328 248.366 236.582 248.49C244.054 252.09 259.811 258.323 262.573 259.32C264.484 260.011 267.828 260.389 270.59 260.6C270.328 260.891 270.066 261.189 269.812 261.48C269.078 262.324 268.249 263.284 267.028 264.389C263.489 267.582 252.245 277.99 248.059 281.998L248.037 282.005ZM293.782 243.77C293.491 243.755 293.193 243.748 292.903 243.748C286.936 243.748 281.455 246.192 277.872 250.454C277.64 250.73 276.927 251.676 276.404 252.396C275.408 253.77 274.478 255.087 274.558 256.701C273.599 256.665 266.49 256.359 263.939 255.443C261.207 254.461 245.646 248.293 238.349 244.78C237.869 244.548 238.065 243.435 238.08 243.035C238.16 240.446 238.152 238.3 238.697 235.733C240.049 229.339 243.981 223.943 249.788 220.895C251.22 220.146 253.553 219.077 255.254 219.077C255.327 219.077 255.392 219.077 255.465 219.077C256.802 219.15 257.246 219.593 258.467 220.088C262.326 221.63 265.996 223.681 269.717 225.521C279.086 230.147 288.389 235.471 295.962 242.744C296.471 243.231 296.958 243.733 297.438 244.235C296.18 243.973 294.938 243.82 293.775 243.77H293.782ZM250.29 216.117C249.527 216.429 248.727 216.8 247.892 217.237C247.31 217.542 246.743 217.877 246.191 218.226C246.082 218.262 245.987 218.299 245.907 218.35C243.792 219.593 241.895 221.346 240.289 223.346C237.542 226.597 235.601 230.54 234.685 234.874C234.133 237.5 234.068 239.689 234.01 242.002L233.988 242.86V242.948C233.959 243.188 233.966 243.391 233.966 243.617C233.501 243.566 233.079 243.508 232.999 243.493C227.01 242.242 222.526 236.373 221.777 230.481C221.269 226.437 222.424 222.452 224.786 219.171C227.723 215.098 232.04 212.087 237.186 211.956C237.258 211.956 237.324 211.956 237.396 211.956C240.907 211.956 246.089 214.131 250.297 216.131L250.29 216.117ZM190.605 313.993C191.949 306.363 197.371 299.81 204.261 296.45C206.071 295.569 208.651 294.318 210.875 294.318C211.304 294.318 211.726 294.362 212.118 294.471C213.783 294.915 214.698 296.333 215.331 297.817C216.094 299.592 216.799 301.395 217.446 303.214C217.453 303.235 217.46 303.265 217.467 303.294C216.363 303.323 215.352 303.57 214.611 303.752C214.473 303.788 214.349 303.817 214.233 303.846C212.256 304.297 210.556 304.894 209.044 305.65C206.791 306.785 204.69 308.341 202.808 310.269C201.194 311.927 199.741 313.862 198.491 316.022C197.095 318.429 196.027 321.055 195.031 324.488C194.842 324.43 194.631 324.371 194.391 324.299C190.067 323.048 189.936 317.724 190.597 313.993H190.605ZM273.163 307.359C272.719 307.054 272.225 306.828 271.687 306.712C263.147 304.85 252.39 298.901 250.116 288.267C250.072 287.998 249.956 287.213 249.847 286.456L249.781 286.034C252.122 283.7 265.633 271.175 269.754 267.451C274.027 263.596 273.998 261.429 278.345 260.862C278.679 260.818 279.05 260.796 279.435 260.782C280.307 260.854 281.157 260.869 281.942 260.869C282.03 260.869 282.11 260.869 282.197 260.869C286.565 261.283 292.009 262.884 294.959 265.204C296.377 266.317 297.75 267.735 298.935 269.095C299.553 270.084 300.309 271.386 300.854 272.637C301.152 273.328 301.639 273.903 302.22 274.324C297.423 283.678 278.795 302.523 273.155 307.352L273.163 307.359Z" fill="#0F1B2A"/>
<path d="M195.038 324.495C196.034 321.062 197.102 318.436 198.498 316.029C199.748 313.869 201.202 311.934 202.815 310.276C204.697 308.341 206.791 306.792 209.051 305.657C210.563 304.894 212.264 304.305 214.24 303.854C214.357 303.825 214.488 303.795 214.618 303.759C215.36 303.57 216.363 303.33 217.475 303.301C217.467 303.279 217.46 303.25 217.453 303.221C216.806 301.403 216.101 299.599 215.338 297.824C214.706 296.34 213.79 294.922 212.125 294.478C211.726 294.369 211.311 294.326 210.883 294.326C208.659 294.326 206.078 295.577 204.269 296.457C197.371 299.817 191.957 306.37 190.612 314C189.951 317.731 190.081 323.055 194.406 324.306C194.646 324.379 194.857 324.437 195.046 324.495H195.038Z" fill="#8DA6B5"/>
<path d="M195.7 318.182C193.846 318.182 192.051 318 190.321 317.666C190.409 320.582 191.382 323.433 194.399 324.306C194.639 324.379 194.849 324.437 195.038 324.495C195.758 322.022 196.521 319.978 197.408 318.124C196.841 318.16 196.267 318.189 195.7 318.189V318.182Z" fill="#627A8B"/>
<path d="M220.847 314.633C220.491 312.989 220.157 311.338 219.815 309.687C219.691 309.083 219.495 308.378 219.081 307.905C219.008 307.825 218.928 307.752 218.841 307.694C218.521 307.476 218.114 307.403 217.678 307.403C216.821 307.403 215.839 307.708 215.164 307.861C213.703 308.196 212.242 308.661 210.904 309.33C208.993 310.29 207.263 311.607 205.773 313.142C204.334 314.618 203.106 316.298 202.074 318.087C200.635 320.575 199.704 323.164 198.919 325.913C198.44 327.601 198.367 329.31 198.97 330.917C199.61 332.634 200.38 334.234 201.02 335.965C202.43 339.791 204.014 343.878 205.381 347.711C205.642 348.439 205.911 349.159 206.195 349.871C207.009 351.922 207.728 353.726 208.252 355.006C209.385 352.679 211.079 350.221 213.863 348.279C216.675 346.315 219.939 345.151 223.304 344.918C223.74 344.889 224.19 344.875 224.634 344.875C227.003 344.875 229.264 345.311 231.299 345.849C231.197 345.638 231.095 345.435 231.015 345.217C230.79 344.591 230.565 343.958 230.339 343.333C229.889 342.074 229.438 340.816 228.987 339.558C227.163 334.43 225.048 329.412 223.355 324.233C222.323 321.084 221.559 317.862 220.862 314.625L220.847 314.633Z" fill="#FEFEFF"/>
<path d="M206.965 343.267C207.699 345.013 208.433 346.758 209.175 348.497C205.737 340.496 201.732 332.517 199.494 324.059C199.29 324.67 199.087 325.288 198.905 325.928C198.425 327.615 198.352 329.324 198.956 330.932C199.595 332.648 200.366 334.248 201.005 335.979C202.415 339.805 204 343.893 205.366 347.726C205.628 348.453 205.897 349.173 206.18 349.886C206.994 351.937 207.714 353.741 208.237 355.021C208.826 353.821 209.567 352.584 210.519 351.406C210.236 350.613 209.952 349.82 209.669 349.035C208.702 347.231 207.83 345.311 206.965 343.267Z" fill="#BBCFDA"/>
<path d="M231.975 350.337C229.562 349.61 227.127 349.006 224.619 349.006C224.27 349.006 223.922 349.02 223.573 349.042C220.934 349.224 218.369 350.162 216.203 351.675C213.448 353.603 212.031 356.185 210.912 359.297C210.781 359.792 211.341 360.803 211.529 361.269C211.806 361.952 212.162 362.6 212.591 363.203C212.852 363.567 213.143 363.901 213.448 364.229C213.477 364.229 213.506 364.221 213.535 364.221C213.972 364.221 214.415 364.294 214.844 364.432C214.88 364.447 218.391 365.611 221.865 365.611C222.926 365.611 223.842 365.502 224.597 365.283C229.423 363.916 233.559 361.683 235.122 359.61C235.434 359.196 235.819 358.854 236.248 358.592C236.299 358.192 236.263 357.777 236.117 357.341C235.383 355.239 231.96 350.344 231.96 350.344L231.975 350.337Z" fill="#8DA6B5"/>
<path d="M212.125 356.461C211.668 357.348 211.275 358.287 210.912 359.29C210.781 359.785 211.341 360.796 211.529 361.261C211.806 361.945 212.162 362.592 212.591 363.196C212.852 363.56 213.143 363.894 213.448 364.221C213.477 364.221 213.506 364.214 213.535 364.214C213.972 364.214 214.415 364.287 214.844 364.425C214.858 364.425 215.643 364.687 216.821 364.963C214.822 362.432 213.23 359.559 212.111 356.461H212.125Z" fill="#627A8B"/>
<path d="M244.359 385.736C247.368 385.736 250.334 386.179 253.124 387.023C252.151 385.299 250.457 382.455 248.168 379.35C244.454 374.302 238.421 362.09 238.421 362.09C236.037 365.247 230.921 367.771 225.731 369.247C224.51 369.596 223.18 369.727 221.872 369.727C217.627 369.727 213.535 368.338 213.535 368.338C213.535 368.338 218.441 380.964 219.284 383.634C219.931 385.677 221.886 392.485 222.773 395.569C227.614 389.38 235.478 385.743 244.359 385.743" fill="#FEFEFF"/>
<path d="M224.91 388.55C224.837 387.867 224.772 387.183 224.714 386.499C223.885 384.136 223.042 381.779 222.141 379.444C222.01 379.161 221.872 378.87 221.741 378.586C221.356 377.851 220.978 377.117 220.593 376.39C219.742 374.782 219.052 373.146 218.507 371.495C218.194 370.775 217.882 370.047 217.584 369.32C215.251 368.905 213.55 368.331 213.55 368.331C213.55 368.331 218.456 380.957 219.299 383.626C219.946 385.67 221.901 392.478 222.788 395.562C223.602 394.522 224.51 393.554 225.484 392.667C225.252 391.336 225.07 389.961 224.917 388.558L224.91 388.55Z" fill="#BBCFDA"/>
<path d="M256.533 388.827C252.776 386.856 248.495 385.867 244.207 385.867C235.616 385.867 226.989 389.845 222.432 397.904C220.811 400.777 219.822 404.064 219.568 407.417C219.444 409.032 219.503 410.683 219.546 412.312C219.553 412.668 219.866 414.312 219.655 414.596C219.524 414.785 220.237 415.236 220.309 415.287C223.66 417.651 227.548 418.305 231.451 418.8C234.969 419.251 238.508 419.425 242.041 419.425C242.564 419.425 243.095 419.425 243.618 419.411C248.32 419.345 253.008 418.989 257.696 418.567C261.992 418.182 266.563 417.971 270.423 415.665C270.742 415.469 271.883 414.858 271.912 414.341C272.036 412.327 272.152 410.377 271.782 408.392C271.004 404.29 269.194 400.566 266.745 397.373C263.976 393.773 260.393 390.849 256.541 388.827H256.533Z" fill="#FEFEFF"/>
<path d="M242.034 421.491C238.123 421.491 234.569 421.28 231.182 420.851C227.127 420.334 222.853 419.607 219.117 416.974C218.47 416.538 217.78 415.963 217.613 415.039L217.46 414.181L217.649 413.89C217.627 413.628 217.584 413.301 217.562 413.127C217.518 412.785 217.489 412.508 217.482 412.363V411.963C217.431 410.428 217.388 408.85 217.511 407.257C217.795 403.599 218.87 400.013 220.636 396.885C225.266 388.689 234.075 383.801 244.207 383.801C248.909 383.801 253.495 384.907 257.485 387.001C261.737 389.234 265.502 392.383 268.366 396.115C271.164 399.758 272.988 403.759 273.795 408.006C274.224 410.254 274.086 412.399 273.962 414.465C273.86 416.043 272.363 416.916 271.556 417.381L271.469 417.432C267.537 419.782 262.995 420.174 258.99 420.516L257.871 420.611C253.655 420.989 248.669 421.389 243.64 421.462C243.102 421.469 242.564 421.476 242.034 421.476V421.491ZM221.77 413.796C224.677 415.73 228.13 416.305 231.706 416.756C234.918 417.163 238.298 417.367 242.041 417.367C242.557 417.367 243.073 417.367 243.589 417.352C248.48 417.28 253.372 416.887 257.507 416.516L258.641 416.414C262.384 416.094 266.251 415.76 269.369 413.89L269.499 413.818C269.659 413.723 269.797 413.643 269.906 413.57C270.008 411.905 270.059 410.319 269.768 408.77C269.085 405.162 267.523 401.744 265.117 398.624C262.609 395.358 259.317 392.602 255.588 390.645C252.187 388.863 248.255 387.918 244.221 387.918C235.601 387.918 228.13 392.027 224.234 398.915C222.766 401.511 221.865 404.508 221.632 407.57C221.523 408.952 221.567 410.428 221.603 411.854V412.254C221.618 412.297 221.639 412.436 221.661 412.588C221.719 413.01 221.77 413.41 221.792 413.788L221.77 413.796ZM217.976 413.403C217.947 413.439 217.925 413.476 217.904 413.512L217.976 413.403Z" fill="#0F1B2A"/>
<path d="M140.194 361.254C140.63 361.719 141.284 361.887 141.887 362.032C146.778 363.232 152.099 364.541 157.303 364.541C160.275 364.541 163.211 364.112 166.002 362.992C166.039 362.978 166.068 362.963 166.104 362.949C166.439 362.81 166.766 362.629 166.976 362.338C168.008 360.883 164.781 359.319 163.902 358.745C159.054 355.574 153.901 352.686 148.414 350.788C147.316 350.41 146.219 350.126 145.078 349.893C144.249 349.726 143.421 349.588 142.585 349.471C142.243 349.428 141.843 349.355 141.458 349.355C141.182 349.355 140.913 349.391 140.681 349.493C139.888 349.835 139.997 350.882 139.932 351.595C139.837 352.621 139.772 353.653 139.743 354.679C139.707 355.835 139.707 356.999 139.743 358.156C139.772 359.028 139.569 360.556 140.194 361.239V361.254Z" fill="#8DA6B5"/>
<path d="M164.084 358.861C164.105 359.145 164.135 359.428 164.149 359.719C164.214 361.007 164.265 362.287 164.323 363.574C164.89 363.407 165.45 363.218 166.01 362.992C166.046 362.978 166.075 362.963 166.111 362.949C166.446 362.81 166.773 362.629 166.984 362.338C167.957 360.97 165.159 359.508 164.091 358.861H164.084Z" fill="#627A8B"/>
<path d="M13.6495 93.4755C14.3254 97.8613 16.2442 104.654 19.2677 111.142C22.2912 117.63 26.6157 123.681 30.1916 126.707C33.6366 129.623 37.9466 131.158 41.0137 131.158C41.13 131.158 41.2463 131.158 41.3626 131.158C44.4515 131.034 47.286 131.1 51.8576 129.056C58.9731 125.878 65.1 119.87 68.6614 112.968C70.5947 109.215 71.8303 105.164 72.9277 101.098C73.9743 97.1994 74.6648 92.9955 76.46 89.3661C77.6665 86.9369 79.6071 85.0022 81.2351 82.8566C83.3937 80.0128 82.8414 75.8161 81.2351 74.5215C80.1885 73.6778 78.4587 73.3578 76.8161 73.3578C75.944 73.3578 75.0936 73.4451 74.3886 73.5978C72.3536 74.0269 68.5233 76.318 66.0594 79.7146C63.5883 83.1112 63.8354 86.0786 62.7234 89.4752C53.929 90.1007 46.9081 97.7885 47.7367 106.778C47.773 107.178 47.8239 107.593 47.6785 107.964C47.555 108.277 47.2497 108.538 46.9299 108.538C46.8645 108.538 46.8063 108.531 46.7409 108.502C46.3921 108.378 46.254 107.964 46.174 107.607C44.5242 100.4 47.7657 92.9737 53.8128 88.9516C54.2924 88.6316 59.8016 86.515 60.7828 86.515C60.8773 86.515 60.9282 86.5369 60.9282 86.5805C60.9282 86.566 61.2334 60.5133 60.9282 54.8329C60.6229 49.1525 58.2099 45.3195 54.0163 45.2613C54.0017 45.2613 53.9799 45.2613 53.9654 45.2613C49.8153 45.2613 49.4519 52.44 49.6336 56.3821C49.8153 60.3314 51.1163 71.8231 51.1163 71.8231C55.1283 71.8813 54.2634 72.8123 54.2052 73.6123C54.1762 74.0124 54.0671 74.0924 53.5002 74.0924C53.1514 74.0924 52.6208 74.0633 51.8213 74.0633C51.3416 74.0633 50.7674 74.0705 50.0697 74.1069C46.363 74.2887 41.5515 76.2671 36.1223 78.2454C30.6931 80.2237 23.6576 84.4204 20.9393 86.275C20.1181 86.8351 19.5802 87.046 19.2313 87.046C18.4246 87.046 18.6136 85.9259 18.6572 85.4095C18.7153 84.6676 21.1865 83.3075 21.1865 82.8784C21.1865 82.7621 21.1356 82.6384 21.1065 82.5293C20.2925 79.2127 19.1514 75.9398 18.1484 72.6741C17.4943 70.5503 16.7602 68.4483 16.157 66.3027C15.3139 63.3425 14.5943 59.8878 12.1595 57.7712C11.1493 56.8985 9.83376 56.3239 8.51097 56.3239C8.20571 56.3239 7.89319 56.353 7.5952 56.4184C6.69396 56.6148 5.89447 57.0803 5.33483 57.8222C3.05993 60.8187 4.56442 65.9245 5.37844 69.1538C6.5486 73.816 8.28566 78.3108 10.0954 82.7548C11.4981 86.195 13.0826 89.7953 13.6568 93.4973L13.6495 93.4755Z" fill="#FEFEFF"/>
<path d="M129.088 45.865L120.686 22.2052C119.959 22.5325 119.203 22.7943 118.411 22.9761L125.883 47.9742L129.088 45.8723V45.865Z" fill="#FEFEFF"/>
<path d="M291.638 26.4964C295.78 26.4964 299.139 23.1358 299.139 18.9904C299.139 14.845 295.78 11.4844 291.638 11.4844C287.495 11.4844 284.137 14.845 284.137 18.9904C284.137 23.1358 287.495 26.4964 291.638 26.4964Z" fill="#FEFEFF"/>
<path d="M118.747 18.5657C122.574 16.9793 124.392 12.5885 122.807 8.75865C121.221 4.92877 116.834 3.11007 113.007 4.69645C109.179 6.28284 107.362 10.6736 108.947 14.5035C110.533 18.3334 114.92 20.1521 118.747 18.5657Z" fill="#FEFEFF"/>
<path d="M106.622 175.678C118.448 188.435 133.892 197.374 150.42 202.523C162.528 206.298 175.247 208.123 187.937 208.123C192.683 208.123 197.429 207.869 202.139 207.36C217.148 205.745 231.989 201.301 245.079 193.708C254.905 188.006 265.815 179.78 271.273 169.452C267.588 167.932 264.732 164.077 263.191 158.36C261.388 151.683 261.301 144.701 261.432 139.362C261.483 137.268 261.577 135.18 261.723 133.166C262.435 123.092 263.438 113.979 268.627 104.349C271.062 99.8396 275.685 96.8576 280.554 96.5885C280.554 96.5521 280.547 96.5157 280.54 96.4866C279.537 90.1953 277.974 84.7476 274.449 79.1254C272.007 75.2343 269.129 71.5976 265.96 68.252C265.691 68.0701 265.429 67.8738 265.204 67.6265L263.322 65.5972C262.428 64.739 261.519 63.8953 260.589 63.0807C239.998 45.0795 212.322 35.2533 184.863 35.2533C174.106 35.2533 163.393 36.7589 153.138 39.8718C144.176 42.592 135.615 46.6505 127.86 51.9017C112.749 62.1425 100.532 76.5071 94.6374 93.9046C85.2398 121.623 85.8503 153.269 106.615 175.67L106.622 175.678ZM99.9431 100.101C103.345 89.4171 107.429 80.2237 116.369 72.9068C126.806 64.3681 138.675 62.877 151.561 61.5242C163.459 60.2732 175.262 59.3132 187.218 60.7096C193.904 61.4879 200.533 62.8334 206.972 64.7899C218.957 68.4338 230.819 74.3106 239.301 83.7439C244.461 89.4898 247.63 96.603 249.323 104.145C250.864 111.033 251.177 118.277 250.653 125.158C250.196 131.18 248.982 137.144 247.012 142.853C238.225 168.281 216.036 185.766 189.747 190.515C163.262 195.293 133.42 190.537 113.636 170.994C105.205 162.666 98.0461 151.356 95.6695 139.617C92.9876 126.365 95.9093 112.771 99.9358 100.109L99.9431 100.101Z" fill="#FEFEFF"/>
<path d="M265.349 163.779C259.709 172.652 252.296 180.107 243.763 186.456C233.799 193.875 221.53 197.861 209.749 201.417C201.013 204.05 192.08 206.254 183.046 208.029C184.674 208.087 186.309 208.123 187.945 208.123C192.691 208.123 197.437 207.869 202.146 207.36C217.155 205.745 231.996 201.301 245.086 193.708C254.913 188.006 265.822 179.78 271.28 169.452C268.918 168.477 266.905 166.542 265.349 163.771V163.779Z" fill="#BBCFDA"/>
<path d="M113.643 170.979C133.434 190.522 163.277 195.279 189.754 190.5C216.036 185.758 238.232 168.266 247.019 142.839C248.989 137.129 250.203 131.165 250.661 125.143C251.184 118.263 250.871 111.019 249.331 104.131C247.637 96.5885 244.476 89.4752 239.308 83.7294C230.826 74.296 218.965 68.412 206.98 64.7754C200.54 62.8189 193.912 61.4733 187.225 60.6951C175.269 59.2986 163.466 60.2587 151.568 61.5097C138.682 62.8698 126.813 64.3608 116.376 72.8923C107.436 80.2092 103.352 89.4025 99.9503 100.087C95.9238 112.742 93.0021 126.343 95.684 139.595C98.0606 151.327 105.212 162.637 113.651 170.972L113.643 170.979ZM190.568 123.172C190.939 113.121 193.839 102.349 205.824 101.832C211.784 101.571 216.93 104.422 219.997 109.477C222.003 112.779 222.519 123.325 219.466 131.849C219.088 132.904 217.526 132.635 217.526 131.522C217.526 124.278 216.283 111.542 207.663 111.44C199.377 111.346 194.682 122.503 192.553 129.5C192.226 130.569 190.648 130.365 190.597 129.245C190.503 127.216 190.503 125.187 190.576 123.172H190.568ZM144.809 151.458C146.909 151.458 160.057 153.814 165.632 154.091C171.737 154.396 184.034 154.723 186.556 154.614C189.078 154.512 192.233 155.036 190.765 158.193C186.578 167.175 176.926 175.001 166.78 175.227C156.14 175.467 147.265 167.997 143.239 158.505C141.451 154.294 142.716 151.458 144.816 151.458H144.809ZM123.048 99.3014C125.694 97.1412 130.084 95.6939 133.5 96.5739C136.887 97.4467 140.012 101.302 141.487 104.276C143.842 109.04 143.45 114.873 142.309 120.197C142.083 121.245 140.601 121.274 140.361 120.226C138.965 114.139 135.651 103.993 129.132 104.982C122.387 106.007 120.185 118.495 119.487 125.201C119.378 126.249 117.902 126.445 117.561 125.449C117.561 125.441 117.561 125.427 117.554 125.42C116.5 122.256 115.867 118.925 115.875 115.586C115.889 109.775 118.469 103.047 123.048 99.3086V99.3014Z" fill="#0F1B2A"/>
<path d="M281.266 100.691C277.836 100.691 274.144 102.814 272.254 106.313C267.479 115.172 266.527 123.55 265.829 133.464C265.684 135.478 265.597 137.486 265.553 139.464C265.415 145.399 265.618 151.523 267.174 157.291C268.329 161.567 270.699 166.062 274.98 166.062C275.888 166.062 276.884 165.859 277.967 165.408C282.8 163.408 286.231 159.306 288.425 154.672C291.275 148.665 293.368 142.272 294.334 135.689C295.984 124.416 294.705 111.222 286.34 102.734C284.959 101.331 283.156 100.691 281.274 100.691H281.266ZM291.166 134.482C290.032 144.374 285.249 158.302 278.177 158.302C277.974 158.302 277.763 158.287 277.56 158.265C272.189 157.647 271.578 150.41 271.382 148.032C271.033 143.923 271.222 138.366 271.912 132.38C273.628 117.441 277.298 109.869 282.815 109.869C283.025 109.869 283.243 109.884 283.454 109.906C290.286 110.691 292.503 122.867 291.173 134.489L291.166 134.482Z" fill="#FEFEFF"/>
<path d="M293.026 139.355C292.83 139.981 292.612 140.584 292.386 141.181C291.006 151.909 282.524 160.942 272.312 164.193C271.949 164.353 271.593 164.52 271.222 164.659C272.269 165.524 273.504 166.055 274.972 166.055C275.881 166.055 276.876 165.851 277.959 165.4C282.793 163.4 286.223 159.298 288.418 154.665C291.267 148.657 293.36 142.264 294.327 135.682C294.378 135.318 294.407 134.947 294.458 134.584C294 136.177 293.528 137.769 293.033 139.348L293.026 139.355Z" fill="#BBCFDA"/>
<path d="M282.974 114.001C282.916 114.001 282.865 113.993 282.807 113.993C280.089 113.993 277.291 121.63 275.997 132.853C274.682 144.301 275.263 153.858 278.025 154.178C278.076 154.178 278.119 154.185 278.17 154.185C280.961 154.185 285.773 145.268 287.066 134.016C288.382 122.568 285.736 114.321 282.967 114.001H282.974Z" fill="#8DA6B5"/>
<path d="M283.447 109.906C283.236 109.884 283.025 109.869 282.807 109.869C277.291 109.869 273.628 117.441 271.905 132.38C271.215 138.366 271.033 143.923 271.375 148.032C271.578 150.41 272.189 157.647 277.552 158.265C277.756 158.287 277.959 158.302 278.17 158.302C285.242 158.302 290.017 144.374 291.158 134.482C292.496 122.859 290.271 110.691 283.44 109.898L283.447 109.906ZM287.074 134.009C285.78 145.261 280.976 154.178 278.177 154.178C278.127 154.178 278.083 154.178 278.032 154.171C275.263 153.851 274.689 144.294 276.004 132.846C277.291 121.623 280.096 113.986 282.814 113.986C282.873 113.986 282.923 113.986 282.982 113.993C285.751 114.313 288.396 122.561 287.081 134.009H287.074Z" fill="#0F1B2A"/>
<path d="M268.228 64.819L286.725 30.0603L284.624 28.7947L264.993 61.3497L268.228 64.819Z" fill="#FEFEFF"/>
<path d="M143.232 158.505C147.258 167.99 156.132 175.459 166.773 175.227C176.926 175.001 186.571 167.175 190.757 158.193C192.233 155.036 189.078 154.512 186.549 154.614C184.027 154.716 171.73 154.389 165.624 154.091C160.05 153.814 146.909 151.458 144.801 151.458C142.694 151.458 141.436 154.302 143.224 158.505H143.232Z" fill="#FEFEFF"/>
<path d="M192.538 129.5C194.668 122.503 199.363 111.346 207.648 111.44C216.276 111.542 217.511 124.278 217.511 131.522C217.511 132.642 219.074 132.904 219.452 131.849C222.504 123.325 221.988 112.779 219.982 109.477C216.915 104.429 211.777 101.578 205.81 101.832C193.825 102.356 190.925 113.121 190.554 123.172C190.481 125.18 190.481 127.216 190.576 129.245C190.627 130.365 192.204 130.569 192.531 129.5H192.538Z" fill="#FEFEFF"/>
<path d="M117.568 125.449C117.91 126.445 119.385 126.249 119.494 125.201C120.192 118.495 122.394 106.007 129.139 104.982C135.658 103.993 138.973 114.139 140.368 120.226C140.608 121.274 142.09 121.245 142.316 120.197C143.45 114.873 143.849 109.04 141.495 104.276C140.026 101.309 136.894 97.4467 133.507 96.5739C130.091 95.6939 125.694 97.1412 123.055 99.3014C118.477 103.04 115.904 109.768 115.882 115.579C115.875 118.917 116.507 122.256 117.561 125.412C117.561 125.42 117.561 125.434 117.568 125.441V125.449Z" fill="#FEFEFF"/>
<path d="M198.498 264.753C198.498 279.241 187.24 290.689 172.769 290.689C158.298 290.689 147.033 278.536 147.033 264.047C147.033 249.559 158 238.816 172.478 238.816C186.956 238.816 198.498 250.265 198.498 264.753Z" fill="#0F1B2A"/>
<path d="M172.762 292.34C157.666 292.34 145.383 279.648 145.383 264.047C145.383 248.446 157.034 237.165 172.478 237.165C187.923 237.165 200.148 249.283 200.148 264.753C200.148 280.223 188.119 292.34 172.769 292.34H172.762ZM172.478 240.467C158.909 240.467 148.683 250.606 148.683 264.055C148.683 277.503 159.49 289.045 172.769 289.045C186.048 289.045 196.855 278.376 196.855 264.76C196.855 251.145 186.149 240.475 172.486 240.475L172.478 240.467Z" fill="#0F1B2A"/>
<path d="M164.454 272.441L164.258 274.295C167.965 274.877 171.751 275.655 175.611 276.63L175.822 274.703L176.432 269.189L165.014 267.124L164.454 272.441Z" fill="#FF3B00"/>
<path d="M155.115 269.066L154.701 273.219C155.943 273.299 157.193 273.408 158.451 273.539L158.604 272.011L160.631 252.141C159.367 251.843 158.124 251.53 156.903 251.195L155.108 269.066H155.115Z" fill="#FF3B00"/>
<path d="M186.993 275.255L186.462 279.859C184.979 279.357 183.511 278.885 182.05 278.434L182.239 276.783L184.674 255.298C186.2 255.356 187.741 255.392 189.289 255.399L186.993 275.248V275.255Z" fill="#FF3B00"/>
<path d="M166.439 253.341L165.559 261.756L177.028 263.618L177.987 254.898C176.069 254.723 174.172 254.519 172.297 254.265C170.305 253.996 168.35 253.69 166.439 253.341Z" fill="#FF3B00"/>
</g>
<defs>
<clipPath id="clip0_597_3159">
<rect width="311" height="422" fill="white"/>
</clipPath>
</defs>
</svg>
