<svg width="465" height="500" viewBox="0 0 465 500" fill="none" xmlns="http://www.w3.org/2000/svg">
<g clip-path="url(#clip0_597_3248)">
<path d="M222.55 49.42C224.063 49.42 225.29 48.1933 225.29 46.68C225.29 45.1667 224.063 43.94 222.55 43.94C221.037 43.94 219.81 45.1667 219.81 46.68C219.81 48.1933 221.037 49.42 222.55 49.42Z" stroke="#144AF4" stroke-miterlimit="10"/>
<path d="M42.95 30.91C44.4633 30.91 45.69 29.6833 45.69 28.17C45.69 26.6567 44.4633 25.43 42.95 25.43C41.4368 25.43 40.21 26.6567 40.21 28.17C40.21 29.6833 41.4368 30.91 42.95 30.91Z" stroke="#144AF4" stroke-miterlimit="10"/>
<path d="M280.77 131.14H270.81" stroke="#144AF4" stroke-miterlimit="10"/>
<path d="M50.67 303.71H40.71" stroke="#144AF4" stroke-miterlimit="10"/>
<path d="M424.57 370.1H414.61" stroke="#144AF4" stroke-miterlimit="10"/>
<path d="M9.96 189.33H0" stroke="#144AF4" stroke-miterlimit="10"/>
<path d="M18.38 189.33H13.4" stroke="#144AF4" stroke-miterlimit="10"/>
</g>
<defs>
<clipPath id="clip0_597_3248">
<rect width="522.95" height="687.52" fill="white" transform="translate(0 -61)"/>
</clipPath>
</defs>
</svg>
